<?xml version="1.0" encoding="utf-8"?>
<svg xmlns="http://www.w3.org/2000/svg" xmlns:xlink="http://www.w3.org/1999/xlink" height="95" preserveAspectRatio="xMinYMin meet" style="background: grey" version="1.1" viewBox="-4 -4 95 104" width="104">
   <polyline points="39.9813,8.9606  38.9606,0.018707  30.0187,1.0394  31.0394,9.9813  39.9813,8.9606 " style="fill:rgb(103,83,64)"/>
   <polyline points="50.375,9.6216  50.6216,0.62501  41.625,0.37837  41.3784,9.375  50.375,9.6216 " style="fill:rgb(96,75,60)"/>
   <polyline points="13.3628,7.1194  7.1194,0.63716  0.63716,6.8806  6.8806,13.3628  13.3628,7.1194 " style="fill:rgb(94,70,58)"/>
   <polyline points="26.0528,8.9655  21.9655,0.94718  13.9472,5.0345  18.0345,13.0528  26.0528,8.9655 " style="fill:rgb(92,71,56)"/>
   <polyline points="59.5986,12.2488  61.2488,3.4014  52.4014,1.7512  50.7512,10.5986  59.5986,12.2488 " style="fill:rgb(104,84,66)"/>
   <polyline points="68.8462,12.692  71.692,4.1538  63.1538,1.308  60.308,9.8462  68.8462,12.692 " style="fill:rgb(110,90,71)"/>
   <polyline points="79.6267,13.1526  84.1526,5.3733  76.3733,0.84745  71.8474,8.6267  79.6267,13.1526 " style="fill:rgb(115,95,76)"/>
   <polyline points="86.2466,19.3192  93.3192,13.7534  87.7534,6.6808  80.6808,12.2466  86.2466,19.3192 " style="fill:rgb(115,97,80)"/>
   <polyline points="19.3555,14.6721  12.6721,8.6445  6.6445,15.3279  13.3279,21.3555  19.3555,14.6721 " style="fill:rgb(103,81,71)"/>
   <polyline points="31.9958,17.1331  28.1331,9.0042  20.0042,12.8669  23.8669,20.9958  31.9958,17.1331 " style="fill:rgb(103,82,66)"/>
   <polyline points="43.364,18.4245  41.4245,9.636  32.636,11.5755  34.5755,20.364  43.364,18.4245 " style="fill:rgb(105,87,73)"/>
   <polyline points="53.0914,21.8744  53.8744,12.9086  44.9086,12.1256  44.1256,21.0914  53.0914,21.8744 " style="fill:rgb(95,74,61)"/>
   <polyline points="65.9721,23.0507  70.0507,15.0279  62.0279,10.9493  57.9493,18.9721  65.9721,23.0507 " style="fill:rgb(91,70,56)"/>
   <polyline points="76.7044,23.3249  82.3249,16.2956  75.2956,10.6751  69.6751,17.7044  76.7044,23.3249 " style="fill:rgb(96,75,60)"/>
   <polyline points="25.3591,22.7505  18.7505,16.6409  12.6409,23.2495  19.2495,29.3591  25.3591,22.7505 " style="fill:rgb(68,51,46)"/>
   <polyline points="12.1959,21.3254  3.3254,19.8041  1.8041,28.6746  10.6746,30.1959  12.1959,21.3254 " style="fill:rgb(91,76,71)"/>
   <polyline points="37.1516,26.6303  32.6303,18.8484  24.8484,23.3697  29.3697,31.1516  37.1516,26.6303 " style="fill:rgb(53,36,34)"/>
   <polyline points="58.4528,31.1959  63.1959,23.5472  55.5472,18.8041  50.8041,26.4528  58.4528,31.1959 " style="fill:rgb(86,67,60)"/>
   <polyline points="82.5186,30.8603  90.8603,27.4814  87.4814,19.1397  79.1397,22.5186  82.5186,30.8603 " style="fill:rgb(85,66,57)"/>
   <polyline points="47.5512,31.4482  47.4482,22.4488  38.4488,22.5518  38.5518,31.5512  47.5512,31.4482 " style="fill:rgb(61,46,45)"/>
   <polyline points="68.7694,33.2439  76.2439,28.2306  71.2306,20.7561  63.7561,25.7694  68.7694,33.2439 " style="fill:rgb(96,75,64)"/>
   <polyline points="19.9501,38.5855  28.5855,36.0499  26.0499,27.4145  17.4145,29.9501  19.9501,38.5855 " style="fill:rgb(51,38,37)"/>
   <polyline points="7.6809,40.4299  16.4299,38.3191  14.3191,29.5701  5.5701,31.6809  7.6809,40.4299 " style="fill:rgb(98,79,73)"/>
   <polyline points="35.8723,41.3039  41.3039,34.1277  34.1277,28.6961  28.6961,35.8723  35.8723,41.3039 " style="fill:rgb(101,111,115)"/>
   <polyline points="58.2782,36.0415  53.0415,28.7218  45.7218,33.9585  50.9585,41.2782  58.2782,36.0415 " style="fill:rgb(67,65,62)"/>
   <polyline points="73.4242,40.2644  82.2644,38.5758  80.5758,29.7356  71.7356,31.4242  73.4242,40.2644 " style="fill:rgb(88,66,58)"/>
   <polyline points="84.5769,39.5756  93.5756,39.4231  93.4231,30.4244  84.4244,30.5769  84.5769,39.5756 " style="fill:rgb(98,80,68)"/>
   <polyline points="70.9785,34.8187  62.8187,31.0215  59.0215,39.1813  67.1813,42.9785  70.9785,34.8187 " style="fill:rgb(69,55,47)"/>
   <polyline points="26.7627,49.3595  33.3595,43.2373  27.2373,36.6405  20.6405,42.7627  26.7627,49.3595 " style="fill:rgb(109,97,93)"/>
   <polyline points="48.7366,47.2503  48.2503,38.2634  39.2634,38.7497  39.7497,47.7366  48.7366,47.2503 " style="fill:rgb(75,71,67)"/>
   <polyline points="11.2147,51.1084  19.1084,46.7853  14.7853,38.8916  6.8916,43.2147  11.2147,51.1084 " style="fill:rgb(101,84,74)"/>
   <polyline points="61.3553,45.3315  55.3315,38.6447  48.6447,44.6685  54.6685,51.3553  61.3553,45.3315 " style="fill:rgb(102,107,105)"/>
   <polyline points="87.7551,42.2836  79.2836,39.2449  76.2449,47.7164  84.7164,50.7551  87.7551,42.2836 " style="fill:rgb(76,54,46)"/>
   <polyline points="76.4785,50.2382  74.2382,41.5215  65.5215,43.7618  67.7618,52.4785  76.4785,50.2382 " style="fill:rgb(76,53,48)"/>
   <polyline points="37.287,56.9388  40.9388,48.713  32.713,45.0612  29.0612,53.287  37.287,56.9388 " style="fill:rgb(94,82,78)"/>
   <polyline points="18.722,59.3579  25.3579,53.278  19.278,46.6421  12.6421,52.722  18.722,59.3579 " style="fill:rgb(117,99,85)"/>
   <polyline points="51.6499,55.929  48.929,47.3501  40.3501,50.071  43.071,58.6499  51.6499,55.929 " style="fill:rgb(123,126,122)"/>
   <polyline points="67.9446,55.2719  64.2719,47.0554  56.0554,50.7281  59.7281,58.9446  67.9446,55.2719 " style="fill:rgb(143,148,136)"/>
   <polyline points="5.2299,61.1128  13.1128,56.7701  8.7701,48.8872  0.88717,53.2299  5.2299,61.1128 " style="fill:rgb(127,107,91)"/>
   <polyline points="85.2166,53.6386  77.6386,48.7834  72.7834,56.3614  80.3614,61.2166  85.2166,53.6386 " style="fill:rgb(89,68,55)"/>
   <polyline points="30.8547,65.0877  35.0877,57.1453  27.1453,52.9123  22.9123,60.8547  30.8547,65.0877 " style="fill:rgb(112,94,80)"/>
   <polyline points="58.0267,64.9029  56.9029,55.9733  47.9733,57.0971  49.0971,66.0267  58.0267,64.9029 " style="fill:rgb(105,93,89)"/>
   <polyline points="73.8935,63.4014  70.4014,55.1065  62.1065,58.5986  65.5986,66.8935  73.8935,63.4014 " style="fill:rgb(116,104,98)"/>
   <polyline points="15.2017,69.3608  21.3608,62.7983  14.7983,56.6392  8.6392,63.2017  15.2017,69.3608 " style="fill:rgb(131,111,95)"/>
   <polyline points="43.5005,68.3147  45.3147,59.4995  36.4995,57.6853  34.6853,66.5005  43.5005,68.3147 " style="fill:rgb(116,97,86)"/>
   <polyline points="92.2617,61.8638  84.8638,56.7383  79.7383,64.1362  87.1362,69.2617  92.2617,61.8638 " style="fill:rgb(115,104,90)"/>
   <polyline points="6.5467,75.3478  13.3478,69.4533  7.4533,62.6522  0.65221,68.5467  6.5467,75.3478 " style="fill:rgb(137,114,99)"/>
   <polyline points="27.0657,75.0194  31.0194,66.9343  22.9343,62.9806  18.9806,71.0657  27.0657,75.0194 " style="fill:rgb(133,112,96)"/>
   <polyline points="78.7158,71.7981  75.7981,63.2842  67.2842,66.2019  70.2019,74.7158  78.7158,71.7981 " style="fill:rgb(117,101,91)"/>
   <polyline points="53.2962,75.6949  53.6949,66.7038  44.7038,66.3051  44.3051,75.2962  53.2962,75.6949 " style="fill:rgb(125,107,93)"/>
   <polyline points="64.9439,75.0072  64.0072,66.0561  55.0561,66.9928  55.9928,75.9439  64.9439,75.0072 " style="fill:rgb(126,110,100)"/>
   <polyline points="38.1937,78.5046  40.5046,69.8063  31.8063,67.4954  29.4954,76.1937  38.1937,78.5046 " style="fill:rgb(137,116,103)"/>
   <polyline points="89.1754,76.5379  84.5379,68.8246  76.8246,73.4621  81.4621,81.1754  89.1754,76.5379 " style="fill:rgb(122,109,93)"/>
   <polyline points="16.8662,83.0842  21.0842,75.1338  13.1338,70.9158  8.9158,78.8662  16.8662,83.0842 " style="fill:rgb(140,116,102)"/>
   <polyline points="78.4094,82.3523  76.3523,73.5906  67.5906,75.6477  69.6477,84.4094  78.4094,82.3523 " style="fill:rgb(134,121,108)"/>
</svg>