<?xml version="1.0" encoding="utf-8"?>
<svg xmlns="http://www.w3.org/2000/svg" xmlns:xlink="http://www.w3.org/1999/xlink" height="235" preserveAspectRatio="xMinYMin meet" style="background: grey" version="1.1" viewBox="-4 -4 235 310" width="310">
   <polyline points="15.5003,9.4997  15.4997,0.49973  6.4997,0.50027  6.5003,9.5003  15.5003,9.4997 " style="fill:rgb(255,255,255)"/>
   <polyline points="26.4997,9.5003  26.5003,0.50027  17.5003,0.49973  17.4997,9.4997  26.4997,9.5003 " style="fill:rgb(255,255,255)"/>
   <polyline points="53.8073,9.1701  53.1701,0.19266  44.1927,0.82993  44.8299,9.8073  53.8073,9.1701 " style="fill:rgb(255,255,255)"/>
   <polyline points="64.5,9.5  64.5,0.5  55.5,0.5  55.5,9.5  64.5,9.5 " style="fill:rgb(255,255,255)"/>
   <polyline points="75.5,9.5  75.5,0.5  66.5,0.5  66.5,9.5  75.5,9.5 " style="fill:rgb(255,255,255)"/>
   <polyline points="86.5,9.5  86.5,0.5  77.5,0.5  77.5,9.5  86.5,9.5 " style="fill:rgb(255,255,255)"/>
   <polyline points="103.4996,9.5004  103.5004,0.50038  94.5004,0.49962  94.4996,9.4996  103.4996,9.5004 " style="fill:rgb(255,255,255)"/>
   <polyline points="114.5,9.5  114.5,0.50002  105.5,0.49998  105.5,9.5  114.5,9.5 " style="fill:rgb(255,255,255)"/>
   <polyline points="125.527,9.4729  125.4729,0.47302  116.473,0.52715  116.5271,9.527  125.527,9.4729 " style="fill:rgb(255,255,255)"/>
   <polyline points="136.5,9.5  136.5,0.5  127.5,0.5  127.5,9.5  136.5,9.5 " style="fill:rgb(255,255,255)"/>
   <polyline points="147.5019,9.4981  147.4981,0.4981  138.4981,0.5019  138.5019,9.5019  147.5019,9.4981 " style="fill:rgb(255,255,255)"/>
   <polyline points="158.5,9.5  158.5,0.5  149.5,0.5  149.5,9.5  158.5,9.5 " style="fill:rgb(255,255,255)"/>
   <polyline points="169.5,9.5  169.5,0.5  160.5,0.5  160.5,9.5  169.5,9.5 " style="fill:rgb(255,255,255)"/>
   <polyline points="180.5,9.5  180.5,0.5  171.5,0.5  171.5,9.5  180.5,9.5 " style="fill:rgb(255,255,255)"/>
   <polyline points="191.5,9.5  191.5,0.50001  182.5,0.49999  182.5,9.5  191.5,9.5 " style="fill:rgb(255,255,255)"/>
   <polyline points="202.5,9.5  202.5,0.5  193.5,0.5  193.5,9.5  202.5,9.5 " style="fill:rgb(255,255,255)"/>
   <polyline points="211.5,9.5  211.5,0.5  202.5,0.5  202.5,9.5  211.5,9.5 " style="fill:rgb(255,255,255)"/>
   <polyline points="220.5,9.5  220.5,0.5  211.5,0.5  211.5,9.5  220.5,9.5 " style="fill:rgb(255,255,255)"/>
   <polyline points="229.5,9.5  229.5,0.5  220.5,0.5  220.5,9.5  229.5,9.5 " style="fill:rgb(255,255,255)"/>
   <polyline points="238.5,9.5  238.5,0.5  229.5,0.5  229.5,9.5  238.5,9.5 " style="fill:rgb(255,255,255)"/>
   <polyline points="247.5,9.5  247.5,0.5  238.5,0.5  238.5,9.5  247.5,9.5 " style="fill:rgb(255,255,255)"/>
   <polyline points="256.5,9.5  256.5,0.5  247.5,0.5  247.5,9.5  256.5,9.5 " style="fill:rgb(255,255,255)"/>
   <polyline points="265.5,9.5  265.5,0.5  256.5,0.5  256.5,9.5  265.5,9.5 " style="fill:rgb(255,255,255)"/>
   <polyline points="274.5,9.5  274.5,0.5  265.5,0.5  265.5,9.5  274.5,9.5 " style="fill:rgb(255,255,255)"/>
   <polyline points="283.5,9.5  283.5,0.5  274.5,0.5  274.5,9.5  283.5,9.5 " style="fill:rgb(255,255,255)"/>
   <polyline points="292.5,9.5  292.5,0.5  283.5,0.5  283.5,9.5  292.5,9.5 " style="fill:rgb(255,255,255)"/>
   <polyline points="36.3103,12.4352  38.4352,3.6897  29.6897,1.5648  27.5648,10.3103  36.3103,12.4352 " style="fill:rgb(255,255,255)"/>
   <polyline points="22.4847,11.7724  13.7724,9.5153  11.5153,18.2276  20.2276,20.4847  22.4847,11.7724 " style="fill:rgb(255,255,255)"/>
   <polyline points="47.5,19.5  47.5,10.5  38.5,10.5  38.5,19.5  47.5,19.5 " style="fill:rgb(254,254,254)"/>
   <polyline points="58.5,19.5  58.5,10.5  49.5,10.5  49.5,19.5  58.5,19.5 " style="fill:rgb(255,255,255)"/>
   <polyline points="67.5,19.5  67.5,10.5  58.5,10.5  58.5,19.5  67.5,19.5 " style="fill:rgb(255,255,255)"/>
   <polyline points="76.5,19.5  76.5,10.5  67.5,10.5  67.5,19.5  76.5,19.5 " style="fill:rgb(255,255,255)"/>
   <polyline points="85.5,19.5  85.5,10.5  76.5,10.5  76.5,19.5  85.5,19.5 " style="fill:rgb(255,255,255)"/>
   <polyline points="94.5,19.5  94.5,10.5  85.5,10.5  85.5,19.5  94.5,19.5 " style="fill:rgb(255,255,255)"/>
   <polyline points="105.5,19.5  105.5,10.5  96.5,10.5  96.5,19.5  105.5,19.5 " style="fill:rgb(254,254,254)"/>
   <polyline points="116.5,19.5  116.5,10.5  107.5,10.5  107.5,19.5  116.5,19.5 " style="fill:rgb(254,254,254)"/>
   <polyline points="125.5,19.5  125.5,10.5  116.5,10.5  116.5,19.5  125.5,19.5 " style="fill:rgb(254,254,254)"/>
   <polyline points="134.5,19.5  134.5,10.5  125.5,10.5  125.5,19.5  134.5,19.5 " style="fill:rgb(254,254,254)"/>
   <polyline points="143.5,19.5  143.5,10.5  134.5,10.5  134.5,19.5  143.5,19.5 " style="fill:rgb(254,254,254)"/>
   <polyline points="152.5,19.5  152.5,10.5  143.5,10.5  143.5,19.5  152.5,19.5 " style="fill:rgb(254,254,254)"/>
   <polyline points="161.5,19.5  161.5,10.5  152.5,10.5  152.5,19.5  161.5,19.5 " style="fill:rgb(254,254,254)"/>
   <polyline points="170.5,19.5  170.5,10.5  161.5,10.5  161.5,19.5  170.5,19.5 " style="fill:rgb(254,254,254)"/>
   <polyline points="179.5,19.5  179.5,10.5  170.5,10.5  170.5,19.5  179.5,19.5 " style="fill:rgb(254,254,254)"/>
   <polyline points="188.5,19.5  188.5,10.5  179.5,10.5  179.5,19.5  188.5,19.5 " style="fill:rgb(254,254,254)"/>
   <polyline points="197.5,19.5  197.5,10.5  188.5,10.5  188.5,19.5  197.5,19.5 " style="fill:rgb(254,254,254)"/>
   <polyline points="222.535,19.4647  222.4647,10.465  213.465,10.5353  213.5353,19.535  222.535,19.4647 " style="fill:rgb(254,254,254)"/>
   <polyline points="239.1809,19.7979  239.7979,10.8191  230.8191,10.2021  230.2021,19.1809  239.1809,19.7979 " style="fill:rgb(254,254,254)"/>
   <polyline points="250.4997,19.5003  250.5003,10.5003  241.5003,10.4997  241.4997,19.4997  250.4997,19.5003 " style="fill:rgb(254,254,254)"/>
   <polyline points="270.0514,18.8708  268.8708,9.9486  259.9486,11.1292  261.1292,20.0514  270.0514,18.8708 " style="fill:rgb(254,254,254)"/>
   <polyline points="286.901,19.0595  286.0595,10.099  277.099,10.9405  277.9405,19.901  286.901,19.0595 " style="fill:rgb(254,254,254)"/>
   <polyline points="297.5,19.5  297.5,10.5  288.5,10.5  288.5,19.5  297.5,19.5 " style="fill:rgb(254,254,254)"/>
   <polyline points="31.4997,21.5003  31.5003,12.5003  22.5003,12.4997  22.4997,21.4997  31.4997,21.5003 " style="fill:rgb(255,255,255)"/>
   <polyline points="199.5367,21.5364  208.5364,21.4633  208.4633,12.4636  199.4636,12.5367  199.5367,21.5364 " style="fill:rgb(254,254,254)"/>
   <polyline points="9.195,25.7856  9.7856,16.805  0.80495,16.2144  0.21444,25.195  9.195,25.7856 " style="fill:rgb(255,255,255)"/>
   <polyline points="260.5,25.5  260.5,16.5  251.5,16.5  251.5,25.5  260.5,25.5 " style="fill:rgb(254,254,254)"/>
   <polyline points="228.6415,29.1486  233.1486,21.3585  225.3585,16.8514  220.8514,24.6415  228.6415,29.1486 " style="fill:rgb(254,254,254)"/>
   <polyline points="19.5003,29.4997  19.4997,20.4997  10.4997,20.5003  10.5003,29.5003  19.5003,29.4997 " style="fill:rgb(254,254,254)"/>
   <polyline points="40.5,29.5  40.5,20.5  31.5,20.5  31.5,29.5  40.5,29.5 " style="fill:rgb(254,254,254)"/>
   <polyline points="52.8722,30.0504  54.0504,21.1278  45.1278,19.9496  43.9496,28.8722  52.8722,30.0504 " style="fill:rgb(255,255,255)"/>
   <polyline points="64.5,29.5  64.5,20.5  55.5,20.5  55.5,29.5  64.5,29.5 " style="fill:rgb(255,255,255)"/>
   <polyline points="73.5,29.5  73.5,20.5  64.5,20.5  64.5,29.5  73.5,29.5 " style="fill:rgb(255,255,255)"/>
   <polyline points="82.5,29.5  82.5,20.5  73.5,20.5  73.5,29.5  82.5,29.5 " style="fill:rgb(255,255,255)"/>
   <polyline points="91.5,29.5  91.5,20.5  82.5,20.5  82.5,29.5  91.5,29.5 " style="fill:rgb(255,255,255)"/>
   <polyline points="102.3018,29.6898  102.6898,20.6982  93.6982,20.3102  93.3102,29.3018  102.3018,29.6898 " style="fill:rgb(254,254,254)"/>
   <polyline points="113.5,29.5  113.5,20.5  104.5,20.5  104.5,29.5  113.5,29.5 " style="fill:rgb(254,254,254)"/>
   <polyline points="122.5,29.5  122.5,20.5  113.5,20.5  113.5,29.5  122.5,29.5 " style="fill:rgb(254,254,254)"/>
   <polyline points="131.5,29.5  131.5,20.5  122.5,20.5  122.5,29.5  131.5,29.5 " style="fill:rgb(254,254,254)"/>
   <polyline points="140.5,29.5  140.5,20.5  131.5,20.5  131.5,29.5  140.5,29.5 " style="fill:rgb(254,254,254)"/>
   <polyline points="149.5,29.5  149.5,20.5  140.5,20.5  140.5,29.5  149.5,29.5 " style="fill:rgb(254,254,254)"/>
   <polyline points="158.5,29.5  158.5,20.5  149.5,20.5  149.5,29.5  158.5,29.5 " style="fill:rgb(254,254,254)"/>
   <polyline points="167.5,29.5  167.5,20.5  158.5,20.5  158.5,29.5  167.5,29.5 " style="fill:rgb(254,254,254)"/>
   <polyline points="176.5,29.5  176.5,20.5  167.5,20.5  167.5,29.5  176.5,29.5 " style="fill:rgb(254,254,254)"/>
   <polyline points="185.5,29.5  185.5,20.5  176.5,20.5  176.5,29.5  185.5,29.5 " style="fill:rgb(254,254,254)"/>
   <polyline points="194.5,29.5  194.5,20.5  185.5,20.5  185.5,29.5  194.5,29.5 " style="fill:rgb(254,254,254)"/>
   <polyline points="219.5018,29.4982  219.4982,20.4982  210.4982,20.5018  210.5018,29.5018  219.5018,29.4982 " style="fill:rgb(254,254,254)"/>
   <polyline points="242.5,29.5  242.5,20.5  233.5,20.5  233.5,29.5  242.5,29.5 " style="fill:rgb(254,254,254)"/>
   <polyline points="271.5,29.5  271.5,20.5  262.5,20.5  262.5,29.5  271.5,29.5 " style="fill:rgb(254,254,254)"/>
   <polyline points="282.5,29.5  282.5,20.5  273.5,20.5  273.5,29.5  282.5,29.5 " style="fill:rgb(254,254,254)"/>
   <polyline points="293.5255,29.4743  293.4743,20.4745  284.4745,20.5257  284.5257,29.5255  293.5255,29.4743 " style="fill:rgb(254,254,254)"/>
   <polyline points="21.4098,32.2546  30.2546,30.5902  28.5902,21.7454  19.7454,23.4098  21.4098,32.2546 " style="fill:rgb(255,255,255)"/>
   <polyline points="205.5,31.5  205.5,22.5  196.5,22.5  196.5,31.5  205.5,31.5 " style="fill:rgb(255,255,255)"/>
   <polyline points="9.5,26.5  0.5,26.5  0.5,35.5  9.5,35.5  9.5,26.5 " style="fill:rgb(254,254,254)"/>
   <polyline points="252.4617,36.8686  255.8686,28.5383  247.5383,25.1314  244.1314,33.4617  252.4617,36.8686 " style="fill:rgb(254,254,254)"/>
   <polyline points="19.5041,39.4959  19.4959,30.4959  10.4959,30.5041  10.5041,39.5041  19.5041,39.4959 " style="fill:rgb(254,254,254)"/>
   <polyline points="40.5,39.5  40.5,30.5  31.5,30.5  31.5,39.5  40.5,39.5 " style="fill:rgb(254,254,254)"/>
   <polyline points="42.5308,39.5306  51.5306,39.4692  51.4692,30.4694  42.4694,30.5308  42.5308,39.5306 " style="fill:rgb(254,254,254)"/>
   <polyline points="62.5149,39.485  62.485,30.4851  53.4851,30.515  53.515,39.5149  62.5149,39.485 " style="fill:rgb(255,255,255)"/>
   <polyline points="73.5949,39.403  73.403,30.4051  64.4051,30.597  64.597,39.5949  73.5949,39.403 " style="fill:rgb(255,255,255)"/>
   <polyline points="85.4571,38.2742  83.2742,29.5429  74.5429,31.7258  76.7258,40.4571  85.4571,38.2742 " style="fill:rgb(255,255,255)"/>
   <polyline points="88.3331,40.2013  97.2013,38.6669  95.6669,29.7987  86.7987,31.3331  88.3331,40.2013 " style="fill:rgb(255,255,255)"/>
   <polyline points="106.5,39.5  106.5,30.5  97.5,30.5  97.5,39.5  106.5,39.5 " style="fill:rgb(255,255,255)"/>
   <polyline points="115.5,39.5  115.5,30.5  106.5,30.5  106.5,39.5  115.5,39.5 " style="fill:rgb(255,255,255)"/>
   <polyline points="124.5,39.5  124.5,30.5  115.5,30.5  115.5,39.5  124.5,39.5 " style="fill:rgb(255,255,255)"/>
   <polyline points="133.5,39.5  133.5,30.5  124.5,30.5  124.5,39.5  133.5,39.5 " style="fill:rgb(255,255,255)"/>
   <polyline points="142.5,39.5  142.5,30.5  133.5,30.5  133.5,39.5  142.5,39.5 " style="fill:rgb(255,255,255)"/>
   <polyline points="151.5,39.5  151.5,30.5  142.5,30.5  142.5,39.5  151.5,39.5 " style="fill:rgb(255,255,255)"/>
   <polyline points="160.5,39.5  160.5,30.5  151.5,30.5  151.5,39.5  160.5,39.5 " style="fill:rgb(255,255,255)"/>
   <polyline points="169.5,39.5  169.5,30.5  160.5,30.5  160.5,39.5  169.5,39.5 " style="fill:rgb(255,255,255)"/>
   <polyline points="178.5,39.5  178.5,30.5  169.5,30.5  169.5,39.5  178.5,39.5 " style="fill:rgb(255,255,255)"/>
   <polyline points="187.5,39.5  187.5,30.5  178.5,30.5  178.5,39.5  187.5,39.5 " style="fill:rgb(255,255,255)"/>
   <polyline points="196.5,39.5  196.5,30.5  187.5,30.5  187.5,39.5  196.5,39.5 " style="fill:rgb(255,255,255)"/>
   <polyline points="215.5,39.5  215.5,30.5  206.5,30.5  206.5,39.5  215.5,39.5 " style="fill:rgb(255,255,255)"/>
   <polyline points="224.5,39.5  224.5,30.5  215.5,30.5  215.5,39.5  224.5,39.5 " style="fill:rgb(255,255,255)"/>
   <polyline points="233.5,39.5  233.5,30.5  224.5,30.5  224.5,39.5  233.5,39.5 " style="fill:rgb(255,255,255)"/>
   <polyline points="242.5,39.5  242.5,30.5  233.5,30.5  233.5,39.5  242.5,39.5 " style="fill:rgb(255,255,255)"/>
   <polyline points="265.5,39.5  265.5,30.5  256.5,30.5  256.5,39.5  265.5,39.5 " style="fill:rgb(255,255,255)"/>
   <polyline points="274.5,39.5  274.5,30.5  265.5,30.5  265.5,39.5  274.5,39.5 " style="fill:rgb(255,255,255)"/>
   <polyline points="283.5,39.5  283.5,30.5  274.5,30.5  274.5,39.5  283.5,39.5 " style="fill:rgb(255,255,255)"/>
   <polyline points="292.5,39.5  292.5,30.5  283.5,30.5  283.5,39.5  292.5,39.5 " style="fill:rgb(255,255,255)"/>
   <polyline points="29.8074,41.17  29.17,32.1926  20.1926,32.83  20.83,41.8074  29.8074,41.17 " style="fill:rgb(254,254,254)"/>
   <polyline points="205.5,43.5  205.5,34.5  196.5,34.5  196.5,43.5  205.5,43.5 " style="fill:rgb(255,255,255)"/>
   <polyline points="0.5,45.5  9.5,45.5  9.5,36.5  0.5,36.5  0.5,45.5 " style="fill:rgb(254,254,254)"/>
   <polyline points="251.5,47.5  251.5,38.5  242.5,38.5  242.5,47.5  251.5,47.5 " style="fill:rgb(254,254,254)"/>
   <polyline points="19.5,40.5  10.5,40.5  10.5,49.5  19.5,49.5  19.5,40.5 " style="fill:rgb(254,254,254)"/>
   <polyline points="40.5,49.5  40.5,40.5  31.5,40.5  31.5,49.5  40.5,49.5 " style="fill:rgb(254,254,254)"/>
   <polyline points="51.5178,49.4822  51.4822,40.4822  42.4822,40.5178  42.5178,49.5178  51.5178,49.4822 " style="fill:rgb(255,255,255)"/>
   <polyline points="63.3544,50.4081  65.4081,41.6456  56.6456,39.5919  54.5919,48.3544  63.3544,50.4081 " style="fill:rgb(255,255,255)"/>
   <polyline points="76.7053,49.2848  76.2848,40.2947  67.2947,40.7152  67.7152,49.7053  76.7053,49.2848 " style="fill:rgb(255,255,255)"/>
   <polyline points="91.1654,43.4228  83.4228,38.8346  78.8346,46.5772  86.5772,51.1654  91.1654,43.4228 " style="fill:rgb(255,255,255)"/>
   <polyline points="102.4011,48.3658  100.3658,39.5989  91.5989,41.6342  93.6342,50.4011  102.4011,48.3658 " style="fill:rgb(255,255,255)"/>
   <polyline points="111.5,49.5  111.5,40.5  102.5,40.5  102.5,49.5  111.5,49.5 " style="fill:rgb(255,255,255)"/>
   <polyline points="120.5,49.5  120.5,40.5  111.5,40.5  111.5,49.5  120.5,49.5 " style="fill:rgb(255,255,255)"/>
   <polyline points="129.5,49.5  129.5,40.5  120.5,40.5  120.5,49.5  129.5,49.5 " style="fill:rgb(255,255,255)"/>
   <polyline points="138.5,49.5  138.5,40.5  129.5,40.5  129.5,49.5  138.5,49.5 " style="fill:rgb(255,255,255)"/>
   <polyline points="147.5,49.5  147.5,40.5  138.5,40.5  138.5,49.5  147.5,49.5 " style="fill:rgb(255,255,255)"/>
   <polyline points="156.5,49.5  156.5,40.5  147.5,40.5  147.5,49.5  156.5,49.5 " style="fill:rgb(255,255,255)"/>
   <polyline points="165.5,49.5  165.5,40.5  156.5,40.5  156.5,49.5  165.5,49.5 " style="fill:rgb(255,255,255)"/>
   <polyline points="174.5,49.5  174.5,40.5  165.5,40.5  165.5,49.5  174.5,49.5 " style="fill:rgb(255,255,255)"/>
   <polyline points="183.5,49.5  183.5,40.5  174.5,40.5  174.5,49.5  183.5,49.5 " style="fill:rgb(255,255,255)"/>
   <polyline points="192.5,49.5  192.5,40.5  183.5,40.5  183.5,49.5  192.5,49.5 " style="fill:rgb(255,255,255)"/>
   <polyline points="215.5,49.5  215.5,40.5  206.5,40.5  206.5,49.5  215.5,49.5 " style="fill:rgb(255,255,255)"/>
   <polyline points="224.5,49.5  224.5,40.5  215.5,40.5  215.5,49.5  224.5,49.5 " style="fill:rgb(255,255,255)"/>
   <polyline points="233.5,49.5  233.5,40.5  224.5,40.5  224.5,49.5  233.5,49.5 " style="fill:rgb(255,255,255)"/>
   <polyline points="242.5,49.5  242.5,40.5  233.5,40.5  233.5,49.5  242.5,49.5 " style="fill:rgb(255,255,255)"/>
   <polyline points="261.5,49.5  261.5,40.5  252.5,40.5  252.5,49.5  261.5,49.5 " style="fill:rgb(255,255,255)"/>
   <polyline points="270.5,49.5  270.5,40.5  261.5,40.5  261.5,49.5  270.5,49.5 " style="fill:rgb(255,255,255)"/>
   <polyline points="279.5,49.5  279.5,40.5  270.5,40.5  270.5,49.5  279.5,49.5 " style="fill:rgb(255,255,255)"/>
   <polyline points="288.5,49.5  288.5,40.5  279.5,40.5  279.5,49.5  288.5,49.5 " style="fill:rgb(255,255,255)"/>
   <polyline points="297.5,49.5  297.5,40.5  288.5,40.5  288.5,49.5  297.5,49.5 " style="fill:rgb(255,255,255)"/>
   <polyline points="20.5,51.5  29.5,51.5  29.5,42.5  20.5,42.5  20.5,51.5 " style="fill:rgb(255,255,255)"/>
   <polyline points="201.5,53.5  201.5,44.5  192.5,44.5  192.5,53.5  201.5,53.5 " style="fill:rgb(255,255,255)"/>
   <polyline points="9.8699,55.0968  9.0968,46.1301  0.13009,46.9032  0.90318,55.8699  9.8699,55.0968 " style="fill:rgb(255,255,255)"/>
   <polyline points="250.9258,58.0088  252.0088,49.0742  243.0742,47.9912  241.9912,56.9258  250.9258,58.0088 " style="fill:rgb(255,255,255)"/>
   <polyline points="19.5,50.5  10.5,50.5  10.5,59.5  19.5,59.5  19.5,50.5 " style="fill:rgb(254,254,254)"/>
   <polyline points="38.4323,59.5667  38.5667,50.5677  29.5677,50.4333  29.4333,59.4323  38.4323,59.5667 " style="fill:rgb(255,255,255)"/>
   <polyline points="50.4366,60.3563  52.3563,51.5634  43.5634,49.6437  41.6437,58.4366  50.4366,60.3563 " style="fill:rgb(255,255,255)"/>
   <polyline points="63.5003,59.4997  63.4997,50.4997  54.4997,50.5003  54.5003,59.5003  63.5003,59.4997 " style="fill:rgb(255,255,255)"/>
   <polyline points="73.7895,60.1127  75.1127,51.2105  66.2105,49.8873  64.8873,58.7895  73.7895,60.1127 " style="fill:rgb(255,255,255)"/>
   <polyline points="89.7512,61.2402  97.2402,56.2488  92.2488,48.7598  84.7598,53.7512  89.7512,61.2402 " style="fill:rgb(255,255,255)"/>
   <polyline points="106.5498,59.4496  106.4496,50.4502  97.4502,50.5504  97.5504,59.5498  106.5498,59.4496 " style="fill:rgb(255,255,255)"/>
   <polyline points="118.3834,58.394  116.394,49.6166  107.6166,51.606  109.606,60.3834  118.3834,58.394 " style="fill:rgb(255,255,255)"/>
   <polyline points="127.4748,59.5251  127.5251,50.5252  118.5252,50.4749  118.4749,59.4748  127.4748,59.5251 " style="fill:rgb(255,255,255)"/>
   <polyline points="140.4246,59.5742  140.5742,50.5754  131.5754,50.4258  131.4258,59.4246  140.4246,59.5742 " style="fill:rgb(255,255,255)"/>
   <polyline points="156.0919,58.8173  154.8173,49.9081  145.9081,51.1827  147.1827,60.0919  156.0919,58.8173 " style="fill:rgb(255,255,255)"/>
   <polyline points="166.9586,58.9891  165.9891,50.0414  157.0414,51.0109  158.0109,59.9586  166.9586,58.9891 " style="fill:rgb(255,255,255)"/>
   <polyline points="178.7861,60.1152  180.1152,51.2139  171.2139,49.8848  169.8848,58.7861  178.7861,60.1152 " style="fill:rgb(255,255,255)"/>
   <polyline points="190.1798,59.7989  190.7989,50.8202  181.8202,50.2011  181.2011,59.1798  190.1798,59.7989 " style="fill:rgb(255,255,255)"/>
   <polyline points="205.4664,60.2928  214.2928,58.5336  212.5336,49.7072  203.7072,51.4664  205.4664,60.2928 " style="fill:rgb(255,255,255)"/>
   <polyline points="225.254,59.7333  225.7333,50.746  216.746,50.2667  216.2667,59.254  225.254,59.7333 " style="fill:rgb(255,255,255)"/>
   <polyline points="261.5818,60.2603  263.2603,51.4182  254.4182,49.7397  252.7397,58.5818  261.5818,60.2603 " style="fill:rgb(255,255,255)"/>
   <polyline points="272.1214,59.8491  272.8491,50.8786  263.8786,50.1509  263.1509,59.1214  272.1214,59.8491 " style="fill:rgb(255,255,255)"/>
   <polyline points="282.5288,60.296  284.296,51.4712  275.4712,49.704  273.704,58.5288  282.5288,60.296 " style="fill:rgb(255,255,255)"/>
   <polyline points="294.9229,60.011  296.011,51.0771  287.0771,49.989  285.989,58.9229  294.9229,60.011 " style="fill:rgb(255,255,255)"/>
   <polyline points="237.7562,52.7717  228.7717,52.2438  228.2438,61.2283  237.2283,61.7562  237.7562,52.7717 " style="fill:rgb(255,255,255)"/>
   <polyline points="86.4183,62.3379  84.3379,53.5817  75.5817,55.6621  77.6621,64.4183  86.4183,62.3379 " style="fill:rgb(255,255,255)"/>
   <polyline points="199.1551,63.8202  199.8202,54.8449  190.8449,54.1798  190.1798,63.1551  199.1551,63.8202 " style="fill:rgb(255,255,255)"/>
   <polyline points="11.5,60.5  2.5,60.5  2.5,69.5  11.5,69.5  11.5,60.5 " style="fill:rgb(255,255,255)"/>
   <polyline points="15.5,69.5  24.5,69.5  24.5,60.5  15.5,60.5  15.5,69.5 " style="fill:rgb(254,254,254)"/>
   <polyline points="42.1177,68.7827  40.7827,59.8823  31.8823,61.2173  33.2173,70.1177  42.1177,68.7827 " style="fill:rgb(255,255,255)"/>
   <polyline points="56.436,68.3091  54.3091,59.564  45.564,61.6909  47.6909,70.436  56.436,68.3091 " style="fill:rgb(255,255,255)"/>
   <polyline points="65.5,69.5  65.5,60.5  56.5,60.5  56.5,69.5  65.5,69.5 " style="fill:rgb(255,255,255)"/>
   <polyline points="76.7362,69.2507  76.2507,60.2638  67.2638,60.7493  67.7493,69.7362  76.7362,69.2507 " style="fill:rgb(255,255,255)"/>
   <polyline points="104.3551,61.5615  95.5615,59.6449  93.6449,68.4385  102.4385,70.3551  104.3551,61.5615 " style="fill:rgb(255,255,255)"/>
   <polyline points="119.6936,60.7023  110.7023,60.3064  110.3064,69.2977  119.2977,69.6936  119.6936,60.7023 " style="fill:rgb(255,255,255)"/>
   <polyline points="129.522,70.3005  131.3005,61.478  122.478,59.6995  120.6995,68.522  129.522,70.3005 " style="fill:rgb(255,255,255)"/>
   <polyline points="145.7592,67.7077  142.7077,59.2408  134.2408,62.2923  137.2923,70.7592  145.7592,67.7077 " style="fill:rgb(255,255,255)"/>
   <polyline points="157.4541,68.2792  155.2792,59.5459  146.5459,61.7208  148.7208,70.4541  157.4541,68.2792 " style="fill:rgb(255,255,255)"/>
   <polyline points="171.3621,71.2165  176.2165,63.6379  168.6379,58.7835  163.7835,66.3621  171.3621,71.2165 " style="fill:rgb(255,255,255)"/>
   <polyline points="186.6354,69.3604  186.3604,60.3646  177.3646,60.6396  177.6396,69.6354  186.6354,69.3604 " style="fill:rgb(255,255,255)"/>
   <polyline points="205.7306,70.4599  214.4599,68.2694  212.2694,59.5401  203.5401,61.7306  205.7306,70.4599 " style="fill:rgb(255,255,255)"/>
   <polyline points="218.6747,69.6681  227.6681,69.3253  227.3253,60.3319  218.3319,60.6747  218.6747,69.6681 " style="fill:rgb(255,255,255)"/>
   <polyline points="244.0475,71.0256  248.0256,62.9525  239.9525,58.9744  235.9744,67.0475  244.0475,71.0256 " style="fill:rgb(255,255,255)"/>
   <polyline points="255.9897,70.618  258.618,62.0103  250.0103,59.382  247.382,67.9897  255.9897,70.618 " style="fill:rgb(255,255,255)"/>
   <polyline points="272.1541,71.3075  279.3075,65.8459  273.8459,58.6925  266.6925,64.1541  272.1541,71.3075 " style="fill:rgb(255,255,255)"/>
   <polyline points="279.5,69.5  288.5,69.5  288.5,60.5  279.5,60.5  279.5,69.5 " style="fill:rgb(255,255,255)"/>
   <polyline points="299.872,60.9056  290.9056,60.128  290.128,69.0944  299.0944,69.872  299.872,60.9056 " style="fill:rgb(255,255,255)"/>
   <polyline points="78.5,73.5  87.5,73.5  87.5,64.5  78.5,64.5  78.5,73.5 " style="fill:rgb(254,254,254)"/>
   <polyline points="196.0811,73.8831  196.8831,64.9189  187.9189,64.1169  187.1169,73.0811  196.0811,73.8831 " style="fill:rgb(255,255,255)"/>
   <polyline points="239.3198,70.2514  232.2514,64.6802  226.6802,71.7486  233.7486,77.3198  239.3198,70.2514 " style="fill:rgb(255,255,255)"/>
   <polyline points="263.9491,77.3638  270.3638,71.0509  264.0509,64.6362  257.6362,70.9491  263.9491,77.3638 " style="fill:rgb(255,255,255)"/>
   <polyline points="98.2952,69.47  89.47,67.7048  87.7048,76.53  96.53,78.2952  98.2952,69.47 " style="fill:rgb(255,255,255)"/>
   <polyline points="166.1573,76.7286  164.7286,67.8427  155.8427,69.2714  157.2714,78.1573  166.1573,76.7286 " style="fill:rgb(255,255,255)"/>
   <polyline points="9.4225,79.5762  9.5762,70.5775  0.5775,70.4238  0.42381,79.4225  9.4225,79.5762 " style="fill:rgb(255,255,255)"/>
   <polyline points="11.5001,79.5001  20.5001,79.4999  20.4999,70.4999  11.4999,70.5001  11.5001,79.5001 " style="fill:rgb(254,254,254)"/>
   <polyline points="31.5,70.5  22.5,70.5  22.5,79.5  31.5,79.5  31.5,70.5 " style="fill:rgb(255,255,255)"/>
   <polyline points="49.5971,78.0285  47.0285,69.4029  38.4029,71.9715  40.9715,80.5971  49.5971,78.0285 " style="fill:rgb(255,255,255)"/>
   <polyline points="58.7739,80.7276  61.7276,72.2261  53.2261,69.2724  50.2724,77.7739  58.7739,80.7276 " style="fill:rgb(255,255,255)"/>
   <polyline points="65.9993,79.9492  74.9492,79.0007  74.0007,70.0508  65.0508,70.9993  65.9993,79.9492 " style="fill:rgb(255,255,255)"/>
   <polyline points="109.665,70.6713  100.6713,70.335  100.335,79.3287  109.3287,79.665  109.665,70.6713 " style="fill:rgb(255,255,255)"/>
   <polyline points="121.2158,78.6463  119.6463,69.7842  110.7842,71.3537  112.3537,80.2158  121.2158,78.6463 " style="fill:rgb(255,255,255)"/>
   <polyline points="135.3003,78.5223  133.5223,69.6997  124.6997,71.4777  126.4777,80.3003  135.3003,78.5223 " style="fill:rgb(255,255,255)"/>
   <polyline points="145.3916,78.3809  143.3809,69.6084  134.6084,71.6191  136.6191,80.3916  145.3916,78.3809 " style="fill:rgb(255,255,255)"/>
   <polyline points="182.3544,74.6508  175.6508,68.6456  169.6456,75.3492  176.3492,81.3544  182.3544,74.6508 " style="fill:rgb(255,255,255)"/>
   <polyline points="202.134,81.2621  207.2621,73.866  199.866,68.7379  194.7379,76.134  202.134,81.2621 " style="fill:rgb(255,255,255)"/>
   <polyline points="220.3636,75.07  214.07,68.6364  207.6364,74.93  213.93,81.3636  220.3636,75.07 " style="fill:rgb(255,255,255)"/>
   <polyline points="247.251,81.359  253.359,74.749  246.749,68.641  240.641,75.251  247.251,81.359 " style="fill:rgb(255,255,255)"/>
   <polyline points="280.2136,80.9666  283.9666,72.7864  275.7864,69.0334  272.0334,77.2136  280.2136,80.9666 " style="fill:rgb(255,255,255)"/>
   <polyline points="297.2121,78.6516  295.6516,69.7879  286.7879,71.3484  288.3484,80.2121  297.2121,78.6516 " style="fill:rgb(255,255,255)"/>
   <polyline points="156.5643,80.0885  154.0885,71.4357  145.4357,73.9115  147.9115,82.5643  156.5643,80.0885 " style="fill:rgb(255,255,255)"/>
   <polyline points="86.0514,82.8708  84.8708,73.9486  75.9486,75.1292  77.1292,84.0514  86.0514,82.8708 " style="fill:rgb(255,255,255)"/>
   <polyline points="191.734,76.2393  183.2393,73.266  180.266,81.7607  188.7607,84.734  191.734,76.2393 " style="fill:rgb(255,255,255)"/>
   <polyline points="223.6385,84.9096  231.9096,81.3615  228.3615,73.0904  220.0904,76.6385  223.6385,84.9096 " style="fill:rgb(255,255,255)"/>
   <polyline points="257.1739,85.2548  262.2548,77.8261  254.8261,72.7452  249.7452,80.1739  257.1739,85.2548 " style="fill:rgb(255,255,255)"/>
   <polyline points="34.8983,89.3631  41.3631,83.1017  35.1017,76.6369  28.6369,82.8983  34.8983,89.3631 " style="fill:rgb(255,255,255)"/>
   <polyline points="174.2729,84.0725  169.0725,76.7271  161.7271,81.9275  166.9275,89.2729  174.2729,84.0725 " style="fill:rgb(255,255,255)"/>
   <polyline points="197.3829,88.901  200.901,80.6171  192.6171,77.099  189.099,85.3829  197.3829,88.901 " style="fill:rgb(255,255,255)"/>
   <polyline points="209.3357,89.3551  215.3551,82.6643  208.6643,76.6449  202.6449,83.3357  209.3357,89.3551 " style="fill:rgb(255,255,255)"/>
   <polyline points="240.5559,88.8281  243.8281,80.4441  235.4441,77.1719  232.1719,85.5559  240.5559,88.8281 " style="fill:rgb(255,255,255)"/>
   <polyline points="269.5826,88.2597  271.2597,79.4174  262.4174,77.7403  260.7403,86.5826  269.5826,88.2597 " style="fill:rgb(255,255,255)"/>
   <polyline points="2.5,89.5  11.5,89.5  11.5,80.5  2.5,80.5  2.5,89.5 " style="fill:rgb(255,255,255)"/>
   <polyline points="15.5,89.5  24.5,89.5  24.5,80.5  15.5,80.5  15.5,89.5 " style="fill:rgb(254,254,254)"/>
   <polyline points="44.4055,90.8111  52.8111,87.5945  49.5945,79.1889  41.1889,82.4055  44.4055,90.8111 " style="fill:rgb(255,255,255)"/>
   <polyline points="72.5793,81.9388  63.9388,79.4207  61.4207,88.0612  70.0612,90.5793  72.5793,81.9388 " style="fill:rgb(255,255,255)"/>
   <polyline points="96.5793,81.9388  87.9388,79.4207  85.4207,88.0612  94.0612,90.5793  96.5793,81.9388 " style="fill:rgb(255,255,255)"/>
   <polyline points="109.6245,89.372  109.372,80.3755  100.3755,80.628  100.628,89.6245  109.6245,89.372 " style="fill:rgb(255,255,255)"/>
   <polyline points="123.5218,91.1793  128.1793,83.4782  120.4782,78.8207  115.8207,86.5218  123.5218,91.1793 " style="fill:rgb(255,255,255)"/>
   <polyline points="140.3539,89.6415  140.6415,80.6461  131.6461,80.3585  131.3585,89.3539  140.3539,89.6415 " style="fill:rgb(255,255,255)"/>
   <polyline points="282.54,91.3473  289.3473,85.46  283.46,78.6527  276.6527,84.54  282.54,91.3473 " style="fill:rgb(255,255,255)"/>
   <polyline points="156.2575,90.5859  154.5859,81.7425  145.7425,83.4141  147.4141,92.2575  156.2575,90.5859 " style="fill:rgb(255,255,255)"/>
   <polyline points="182.8668,92.0545  184.0545,83.1332  175.1332,81.9455  173.9455,90.8668  182.8668,92.0545 " style="fill:rgb(255,255,255)"/>
   <polyline points="251.5815,92.2605  253.2605,83.4185  244.4185,81.7395  242.7395,90.5815  251.5815,92.2605 " style="fill:rgb(255,255,255)"/>
   <polyline points="297.7253,92.1596  299.1596,83.2747  290.2747,81.8404  288.8404,90.7253  297.7253,92.1596 " style="fill:rgb(255,255,255)"/>
   <polyline points="82.3522,85.557  73.557,83.6478  71.6478,92.443  80.443,94.3522  82.3522,85.557 " style="fill:rgb(255,255,255)"/>
   <polyline points="222.4344,94.3577  224.3577,85.5656  215.5656,83.6423  213.6423,92.4344  222.4344,94.3577 " style="fill:rgb(255,255,255)"/>
   <polyline points="191.0917,97.0104  195.0104,88.9083  186.9083,84.9896  182.9896,93.0917  191.0917,97.0104 " style="fill:rgb(255,255,255)"/>
   <polyline points="232.9338,96.0025  234.0025,87.0662  225.0662,85.9975  223.9975,94.9338  232.9338,96.0025 " style="fill:rgb(255,255,255)"/>
   <polyline points="33.4994,97.5006  33.5006,88.5006  24.5006,88.4994  24.4994,97.4994  33.4994,97.5006 " style="fill:rgb(255,255,255)"/>
   <polyline points="60.5,88.5  51.5,88.5  51.5,97.5  60.5,97.5  60.5,88.5 " style="fill:rgb(255,255,255)"/>
   <polyline points="164.8151,98.0936  166.0936,89.1849  157.1849,87.9064  155.9064,96.8151  164.8151,98.0936 " style="fill:rgb(255,255,255)"/>
   <polyline points="200.2399,99.3594  206.3594,92.7601  199.7601,86.6406  193.6406,93.2399  200.2399,99.3594 " style="fill:rgb(255,255,255)"/>
   <polyline points="263.3082,92.1593  256.1593,86.6918  250.6918,93.8407  257.8407,99.3082  263.3082,92.1593 " style="fill:rgb(255,255,255)"/>
   <polyline points="275.6171,95.9913  272.9913,87.3829  264.3829,90.0087  267.0087,98.6171  275.6171,95.9913 " style="fill:rgb(255,255,255)"/>
   <polyline points="12.0504,98.8722  10.8722,89.9496  1.9496,91.1278  3.1278,100.0504  12.0504,98.8722 " style="fill:rgb(255,255,255)"/>
   <polyline points="22.535,99.4648  22.4648,90.465  13.465,90.5352  13.5352,99.535  22.535,99.4648 " style="fill:rgb(254,254,254)"/>
   <polyline points="43.5,99.5  43.5,90.5  34.5,90.5  34.5,99.5  43.5,99.5 " style="fill:rgb(255,255,255)"/>
   <polyline points="90.4996,99.5004  90.5004,90.5004  81.5004,90.4996  81.4996,99.4996  90.4996,99.5004 " style="fill:rgb(255,255,255)"/>
   <polyline points="103.5,99.5  103.5,90.5  94.5,90.5  94.5,99.5  103.5,99.5 " style="fill:rgb(255,255,255)"/>
   <polyline points="114.7859,99.1946  114.1946,90.2141  105.2141,90.8054  105.8054,99.7859  114.7859,99.1946 " style="fill:rgb(255,255,255)"/>
   <polyline points="131.7739,100.7276  134.7276,92.2261  126.2261,89.2724  123.2724,97.7739  131.7739,100.7276 " style="fill:rgb(255,255,255)"/>
   <polyline points="149.242,96.2399  144.2399,88.758  136.758,93.7601  141.7601,101.242  149.242,96.2399 " style="fill:rgb(255,255,255)"/>
   <polyline points="292.3637,95.0606  286.0606,88.6363  279.6363,94.9394  285.9394,101.3637  292.3637,95.0606 " style="fill:rgb(255,255,255)"/>
   <polyline points="71.4997,101.5003  71.5003,92.5003  62.5003,92.4997  62.4997,101.4997  71.4997,101.5003 " style="fill:rgb(255,255,255)"/>
   <polyline points="176.5,101.5  176.5,92.5  167.5,92.5  167.5,101.5  176.5,101.5 " style="fill:rgb(255,255,255)"/>
   <polyline points="214.5549,102.2785  216.2785,93.4451  207.4451,91.7215  205.7215,100.5549  214.5549,102.2785 " style="fill:rgb(255,255,255)"/>
   <polyline points="242.3217,102.4283  244.4283,93.6783  235.6783,91.5717  233.5717,100.3217  242.3217,102.4283 " style="fill:rgb(255,255,255)"/>
   <polyline points="184.2505,107.2399  189.2399,99.7495  181.7495,94.7601  176.7601,102.2505  184.2505,107.2399 " style="fill:rgb(255,255,255)"/>
   <polyline points="227.2903,104.5373  225.5373,95.7097  216.7097,97.4627  218.4627,106.2903  227.2903,104.5373 " style="fill:rgb(255,255,255)"/>
   <polyline points="252.5453,106.8328  255.8328,98.4547  247.4547,95.1672  244.1672,103.5453  252.5453,106.8328 " style="fill:rgb(255,255,255)"/>
   <polyline points="33.5,107.5  33.5,98.5  24.5,98.5  24.5,107.5  33.5,107.5 " style="fill:rgb(254,254,254)"/>
   <polyline points="54.288,107.7024  54.7024,98.712  45.712,98.2976  45.2976,107.288  54.288,107.7024 " style="fill:rgb(255,255,255)"/>
   <polyline points="124.9353,100.7039  116.7039,97.0647  113.0647,105.2961  121.2961,108.9353  124.9353,100.7039 " style="fill:rgb(255,255,255)"/>
   <polyline points="155.4463,107.5531  155.5531,98.5537  146.5537,98.4469  146.4469,107.4463  155.4463,107.5531 " style="fill:rgb(255,255,255)"/>
   <polyline points="198.084,107.8807  198.8807,98.916  189.916,98.1193  189.1193,107.084  198.084,107.8807 " style="fill:rgb(255,255,255)"/>
   <polyline points="261.3463,109.1454  269.1454,104.6537  264.6537,96.8546  256.8546,101.3463  261.3463,109.1454 " style="fill:rgb(255,255,255)"/>
   <polyline points="277.7644,108.7322  280.7322,100.2356  272.2356,97.2678  269.2678,105.7644  277.7644,108.7322 " style="fill:rgb(255,255,255)"/>
   <polyline points="299.2643,107.724  299.724,98.7357  290.7357,98.276  290.276,107.2643  299.2643,107.724 " style="fill:rgb(255,255,255)"/>
   <polyline points="9.5481,109.4513  9.4513,100.4519  0.45185,100.5487  0.54867,109.5481  9.5481,109.4513 " style="fill:rgb(254,254,254)"/>
   <polyline points="11.5,109.5  20.5,109.5  20.5,100.5  11.5,100.5  11.5,109.5 " style="fill:rgb(254,254,254)"/>
   <polyline points="44.2192,108.6414  42.6414,99.7808  33.7808,101.3586  35.3586,110.2192  44.2192,108.6414 " style="fill:rgb(255,255,255)"/>
   <polyline points="81.5,109.5  81.5,100.5  72.5,100.5  72.5,109.5  81.5,109.5 " style="fill:rgb(255,255,255)"/>
   <polyline points="90.5,109.5  90.5,100.5  81.5,100.5  81.5,109.5  90.5,109.5 " style="fill:rgb(255,255,255)"/>
   <polyline points="102.3882,108.3864  100.3864,99.6118  91.6118,101.6136  93.6136,110.3882  102.3882,108.3864 " style="fill:rgb(255,255,255)"/>
   <polyline points="163.2102,111.3605  169.3605,104.7898  162.7898,98.6395  156.6395,105.2102  163.2102,111.3605 " style="fill:rgb(255,255,255)"/>
   <polyline points="65.5,111.5  65.5,102.5  56.5,102.5  56.5,111.5  65.5,111.5 " style="fill:rgb(254,254,254)"/>
   <polyline points="136.242,108.2399  131.2399,100.758  123.758,105.7601  128.7601,113.242  136.242,108.2399 " style="fill:rgb(255,255,255)"/>
   <polyline points="210.859,109.4845  207.4845,101.141  199.141,104.5155  202.5155,112.859  210.859,109.4845 " style="fill:rgb(255,255,255)"/>
   <polyline points="239.3621,107.1525  233.1525,100.6379  226.6379,106.8475  232.8475,113.3621  239.3621,107.1525 " style="fill:rgb(255,255,255)"/>
   <polyline points="286.4557,112.8711  289.8711,104.5443  281.5443,101.1289  278.1289,109.4557  286.4557,112.8711 " style="fill:rgb(255,255,255)"/>
   <polyline points="111.6236,114.798  114.798,106.3764  106.3764,103.202  103.202,111.6236  111.6236,114.798 " style="fill:rgb(255,255,255)"/>
   <polyline points="179.5177,113.4822  179.4822,104.4823  170.4823,104.5178  170.5178,113.5177  179.5177,113.4822 " style="fill:rgb(255,255,255)"/>
   <polyline points="247.0865,114.5654  249.5654,105.9135  240.9135,103.4346  238.4346,112.0865  247.0865,114.5654 " style="fill:rgb(255,255,255)"/>
   <polyline points="145.2001,115.7811  145.7811,106.7999  136.7999,106.2189  136.2189,115.2001  145.2001,115.7811 " style="fill:rgb(255,255,255)"/>
   <polyline points="215.5798,117.3501  222.3501,111.4202  216.4202,104.6499  209.6499,110.5798  215.5798,117.3501 " style="fill:rgb(255,255,255)"/>
   <polyline points="24.7728,117.7572  33.7572,117.2272  33.2272,108.2428  24.2428,108.7728  24.7728,117.7572 " style="fill:rgb(255,255,255)"/>
   <polyline points="188.2143,118.9663  191.9663,110.7857  183.7857,107.0337  180.0337,115.2143  188.2143,118.9663 " style="fill:rgb(255,255,255)"/>
   <polyline points="257.5451,118.2851  259.2851,109.4549  250.4549,107.7149  248.7149,116.5451  257.5451,118.2851 " style="fill:rgb(255,255,255)"/>
   <polyline points="272.5,117.5  272.5,108.5  263.5,108.5  263.5,117.5  272.5,117.5 " style="fill:rgb(255,255,255)"/>
   <polyline points="296.665,118.2027  298.2027,109.335  289.335,107.7973  287.7973,116.665  296.665,118.2027 " style="fill:rgb(255,255,255)"/>
   <polyline points="0.5,119.5  9.5,119.5  9.5,110.5  0.5,110.5  0.5,119.5 " style="fill:rgb(254,254,254)"/>
   <polyline points="11.5,119.5  20.5,119.5  20.5,110.5  11.5,110.5  11.5,119.5 " style="fill:rgb(254,254,254)"/>
   <polyline points="43.2858,119.7045  43.7045,110.7142  34.7142,110.2955  34.2955,119.2858  43.2858,119.7045 " style="fill:rgb(254,254,254)"/>
   <polyline points="54.5531,119.4463  54.4463,110.4469  45.4469,110.5537  45.5537,119.5531  54.5531,119.4463 " style="fill:rgb(255,255,255)"/>
   <polyline points="75.5,119.5  75.5,110.5  66.5,110.5  66.5,119.5  75.5,119.5 " style="fill:rgb(255,255,255)"/>
   <polyline points="84.5,119.5  84.5,110.5  75.5,110.5  75.5,119.5  84.5,119.5 " style="fill:rgb(255,255,255)"/>
   <polyline points="93.5,119.5  93.5,110.5  84.5,110.5  84.5,119.5  93.5,119.5 " style="fill:rgb(255,255,255)"/>
   <polyline points="117.2676,120.7475  125.7475,117.7324  122.7324,109.2525  114.2525,112.2676  117.2676,120.7475 " style="fill:rgb(255,255,255)"/>
   <polyline points="150.8013,121.2501  158.2501,116.1987  153.1987,108.7499  145.7499,113.8013  150.8013,121.2501 " style="fill:rgb(255,255,255)"/>
   <polyline points="233.3,115.9  227.9,108.7  220.7,114.1  226.1,121.3  233.3,115.9 " style="fill:rgb(255,255,255)"/>
   <polyline points="65.5,121.5  65.5,112.5  56.5,112.5  56.5,121.5  65.5,121.5 " style="fill:rgb(255,255,255)"/>
   <polyline points="105.3503,113.5541  96.5541,111.6497  94.6497,120.4459  103.4459,122.3503  105.3503,113.5541 " style="fill:rgb(255,255,255)"/>
   <polyline points="129.739,122.9488  137.9488,119.261  134.261,111.0512  126.0512,114.739  129.739,122.9488 " style="fill:rgb(255,255,255)"/>
   <polyline points="172.1467,118.6485  167.6485,110.8533  159.8533,115.3515  164.3515,123.1467  172.1467,118.6485 " style="fill:rgb(255,255,255)"/>
   <polyline points="199.8851,122.0404  201.0404,113.1149  192.1149,111.9596  190.9596,120.8851  199.8851,122.0404 " style="fill:rgb(255,255,255)"/>
   <polyline points="215.3299,117.6576  209.6576,110.6701  202.6701,116.3424  208.3424,123.3299  215.3299,117.6576 " style="fill:rgb(255,255,255)"/>
   <polyline points="272.5,121.5  281.5,121.5  281.5,112.5  272.5,112.5  272.5,121.5 " style="fill:rgb(255,255,255)"/>
   <polyline points="245.2037,117.5809  237.5809,112.7963  232.7963,120.4191  240.4191,125.2037  245.2037,117.5809 " style="fill:rgb(255,255,255)"/>
   <polyline points="176.9035,127.3632  183.3632,121.0965  177.0965,114.6368  170.6368,120.9035  176.9035,127.3632 " style="fill:rgb(255,255,255)"/>
   <polyline points="29.5013,118.5013  20.5013,118.4987  20.4987,127.4987  29.4987,127.5013  29.5013,118.5013 " style="fill:rgb(254,254,254)"/>
   <polyline points="113.3522,119.557  104.557,117.6478  102.6478,126.443  111.443,128.3522  113.3522,119.557 " style="fill:rgb(255,255,255)"/>
   <polyline points="143.5961,129.3511  150.3511,123.4039  144.4039,116.6489  137.6489,122.5961  143.5961,129.3511 " style="fill:rgb(255,255,255)"/>
   <polyline points="224.3334,123.6232  218.6232,116.6666  211.6666,122.3768  217.3768,129.3334  224.3334,123.6232 " style="fill:rgb(255,255,255)"/>
   <polyline points="258.2599,127.728  258.728,118.7401  249.7401,118.272  249.272,127.2599  258.2599,127.728 " style="fill:rgb(255,255,255)"/>
   <polyline points="270.1811,119.3045  261.3045,117.8189  259.8189,126.6955  268.6955,128.1811  270.1811,119.3045 " style="fill:rgb(255,255,255)"/>
   <polyline points="282.5,127.5  291.5,127.5  291.5,118.5  282.5,118.5  282.5,127.5 " style="fill:rgb(255,255,255)"/>
   <polyline points="9.5,120.5  0.50003,120.5  0.49997,129.5  9.5,129.5  9.5,120.5 " style="fill:rgb(255,255,255)"/>
   <polyline points="40.5,129.5  40.5,120.5  31.5,120.5  31.5,129.5  40.5,129.5 " style="fill:rgb(254,254,254)"/>
   <polyline points="51.5001,120.5001  42.5001,120.4999  42.4999,129.4999  51.4999,129.5001  51.5001,120.5001 " style="fill:rgb(254,254,254)"/>
   <polyline points="74.5,129.5  74.5,120.5  65.5,120.5  65.5,129.5  74.5,129.5 " style="fill:rgb(254,254,254)"/>
   <polyline points="85.5,129.5  85.5,120.5  76.5,120.5  76.5,129.5  85.5,129.5 " style="fill:rgb(254,254,254)"/>
   <polyline points="119.5,129.5  128.5,129.5  128.5,120.5  119.5,120.5  119.5,129.5 " style="fill:rgb(254,254,254)"/>
   <polyline points="161.5,120.5  152.5,120.5  152.5,129.5  161.5,129.5  161.5,120.5 " style="fill:rgb(255,255,255)"/>
   <polyline points="10.5,131.5  19.5,131.5  19.5,122.5  10.5,122.5  10.5,131.5 " style="fill:rgb(254,254,254)"/>
   <polyline points="62.5,131.5  62.5,122.5  53.5,122.5  53.5,131.5  62.5,131.5 " style="fill:rgb(255,255,255)"/>
   <polyline points="95.5,131.5  95.5,122.5  86.5,122.5  86.5,131.5  95.5,131.5 " style="fill:rgb(255,255,255)"/>
   <polyline points="190.363,126.8896  183.8896,120.637  177.637,127.1104  184.1104,133.363  190.363,126.8896 " style="fill:rgb(255,255,255)"/>
   <polyline points="190.5,131.5  199.5,131.5  199.5,122.5  190.5,122.5  190.5,131.5 " style="fill:rgb(255,255,255)"/>
   <polyline points="234.9441,131.0069  234.0069,122.0559  225.0559,122.9931  225.9931,131.9441  234.9441,131.0069 " style="fill:rgb(255,255,255)"/>
   <polyline points="270.5,131.5  279.5,131.5  279.5,122.5  270.5,122.5  270.5,131.5 " style="fill:rgb(255,255,255)"/>
   <polyline points="141.276,127.9456  133.9456,122.724  128.724,130.0544  136.0544,135.276  141.276,127.9456 " style="fill:rgb(255,255,255)"/>
   <polyline points="167.9035,135.3632  174.3632,129.0965  168.0965,122.6368  161.6368,128.9035  167.9035,135.3632 " style="fill:rgb(255,255,255)"/>
   <polyline points="208.2186,134.4901  210.4901,125.7814  201.7814,123.5099  199.5099,132.2186  208.2186,134.4901 " style="fill:rgb(255,255,255)"/>
   <polyline points="243.7991,136.7153  246.7153,128.2009  238.2009,125.2847  235.2847,133.7991  243.7991,136.7153 " style="fill:rgb(255,255,255)"/>
   <polyline points="29.235,137.7502  29.7502,128.765  20.765,128.2498  20.2498,137.235  29.235,137.7502 " style="fill:rgb(255,255,255)"/>
   <polyline points="106.5002,137.4998  106.4998,128.4998  97.4998,128.5002  97.5002,137.5002  106.5002,137.4998 " style="fill:rgb(255,255,255)"/>
   <polyline points="119.095,134.8305  114.8305,126.905  106.905,131.1695  111.1695,139.095  119.095,134.8305 " style="fill:rgb(255,255,255)"/>
   <polyline points="258.3518,136.4436  256.4436,127.6482  247.6482,129.5564  249.5564,138.3518  258.3518,136.4436 " style="fill:rgb(255,255,255)"/>
   <polyline points="268.6742,138.1962  270.1962,129.3258  261.3258,127.8038  259.8038,136.6742  268.6742,138.1962 " style="fill:rgb(255,255,255)"/>
   <polyline points="291.6555,137.3389  291.3389,128.3445  282.3445,128.6611  282.6611,137.6555  291.6555,137.3389 " style="fill:rgb(255,255,255)"/>
   <polyline points="0.5,139.5  9.5,139.5  9.5,130.5  0.5,130.5  0.5,139.5 " style="fill:rgb(254,254,254)"/>
   <polyline points="33.5098,139.5098  42.5098,139.4902  42.4902,130.4902  33.4902,130.5098  33.5098,139.5098 " style="fill:rgb(255,255,255)"/>
   <polyline points="71.5,139.5  71.5,130.5  62.5,130.5  62.5,139.5  71.5,139.5 " style="fill:rgb(254,254,254)"/>
   <polyline points="80.5,139.5  80.5,130.5  71.5,130.5  71.5,139.5  80.5,139.5 " style="fill:rgb(254,254,254)"/>
   <polyline points="148.8122,140.0958  150.0958,131.1878  141.1878,129.9042  139.9042,138.8122  148.8122,140.0958 " style="fill:rgb(255,255,255)"/>
   <polyline points="175.8482,141.3621  182.3621,135.1518  176.1518,128.6379  169.6379,134.8482  175.8482,141.3621 " style="fill:rgb(255,255,255)"/>
   <polyline points="215.9266,140.6511  218.6511,132.0734  210.0734,129.3489  207.3489,137.9266  215.9266,140.6511 " style="fill:rgb(255,255,255)"/>
   <polyline points="10.5,141.5  19.5,141.5  19.5,132.5  10.5,132.5  10.5,141.5 " style="fill:rgb(254,254,254)"/>
   <polyline points="43.5729,141.5718  52.5718,141.4271  52.4271,132.4282  43.4282,132.5729  43.5729,141.5718 " style="fill:rgb(255,255,255)"/>
   <polyline points="89.5,141.5  89.5,132.5  80.5,132.5  80.5,141.5  89.5,141.5 " style="fill:rgb(254,254,254)"/>
   <polyline points="131.153,140.7344  129.7344,131.847  120.847,133.2656  122.2656,142.153  131.153,140.7344 " style="fill:rgb(255,255,255)"/>
   <polyline points="160.6946,141.2966  160.2966,132.3054  151.3054,132.7034  151.7034,141.6946  160.6946,141.2966 " style="fill:rgb(255,255,255)"/>
   <polyline points="194.5135,142.3062  196.3062,133.4865  187.4865,131.6938  185.6938,140.5135  194.5135,142.3062 " style="fill:rgb(255,255,255)"/>
   <polyline points="226.733,143.1234  231.1234,135.267  223.267,130.8766  218.8766,138.733  226.733,143.1234 " style="fill:rgb(255,255,255)"/>
   <polyline points="279.8051,141.1726  279.1726,132.1949  270.1949,132.8274  270.8274,141.8051  279.8051,141.1726 " style="fill:rgb(255,255,255)"/>
   <polyline points="203.373,144.905  206.905,136.627  198.627,133.095  195.095,141.373  203.373,144.905 " style="fill:rgb(255,255,255)"/>
   <polyline points="172.8519,143.5011  169.5011,135.1481  161.1481,138.4989  164.4989,146.8519  172.8519,143.5011 " style="fill:rgb(255,255,255)"/>
   <polyline points="240.2184,146.4902  242.4902,137.7816  233.7816,135.5098  231.5098,144.2184  240.2184,146.4902 " style="fill:rgb(255,255,255)"/>
   <polyline points="30.0504,146.8722  28.8722,137.9496  19.9496,139.1278  21.1278,148.0504  30.0504,146.8722 " style="fill:rgb(255,255,255)"/>
   <polyline points="91.5005,147.5005  100.5005,147.4995  100.4995,138.4995  91.4995,138.5005  91.5005,147.5005 " style="fill:rgb(254,254,254)"/>
   <polyline points="138.2905,149.2317  143.2317,141.7095  135.7095,136.7683  130.7683,144.2905  138.2905,149.2317 " style="fill:rgb(255,255,255)"/>
   <polyline points="253.7695,148.1275  255.1275,139.2305  246.2305,137.8725  244.8725,146.7695  253.7695,148.1275 " style="fill:rgb(255,255,255)"/>
   <polyline points="266.6274,147.3689  266.3689,138.3726  257.3726,138.6311  257.6311,147.6274  266.6274,147.3689 " style="fill:rgb(255,255,255)"/>
   <polyline points="289.9428,147.0086  289.0086,138.0572  280.0572,138.9914  280.9914,147.9428  289.9428,147.0086 " style="fill:rgb(255,255,255)"/>
   <polyline points="9.3063,149.6857  9.6857,140.6937  0.6937,140.3143  0.3143,149.3063  9.3063,149.6857 " style="fill:rgb(255,255,255)"/>
   <polyline points="40.5,149.5  40.5,140.5  31.5,140.5  31.5,149.5  40.5,149.5 " style="fill:rgb(254,254,254)"/>
   <polyline points="63.5,149.5  63.5,140.5  54.5,140.5  54.5,149.5  63.5,149.5 " style="fill:rgb(255,255,255)"/>
   <polyline points="72.5,149.5  72.5,140.5  63.5,140.5  63.5,149.5  72.5,149.5 " style="fill:rgb(255,255,255)"/>
   <polyline points="104.1536,150.6919  112.6919,147.8464  109.8464,139.3081  101.3081,142.1536  104.1536,150.6919 " style="fill:rgb(255,255,255)"/>
   <polyline points="177.47,150.2952  186.2952,148.53  184.53,139.7048  175.7048,141.47  177.47,150.2952 " style="fill:rgb(255,255,255)"/>
   <polyline points="215.0969,149.8699  215.8699,140.9031  206.9031,140.1301  206.1301,149.0969  215.0969,149.8699 " style="fill:rgb(255,255,255)"/>
   <polyline points="19.5,142.5  10.5,142.5  10.5,151.5  19.5,151.5  19.5,142.5 " style="fill:rgb(254,254,254)"/>
   <polyline points="53.2534,143.408  44.408,141.7466  42.7466,150.592  51.592,152.2534  53.2534,143.408 " style="fill:rgb(254,254,254)"/>
   <polyline points="82.5,151.5  82.5,142.5  73.5,142.5  73.5,151.5  82.5,151.5 " style="fill:rgb(255,255,255)"/>
   <polyline points="116.7039,152.9353  124.9353,149.2961  121.2961,141.0647  113.0647,144.7039  116.7039,152.9353 " style="fill:rgb(255,255,255)"/>
   <polyline points="153.5,151.5  153.5,142.5  144.5,142.5  144.5,151.5  153.5,151.5 " style="fill:rgb(255,255,255)"/>
   <polyline points="226.319,152.9264  229.9264,144.681  221.681,141.0736  218.0736,149.319  226.319,152.9264 " style="fill:rgb(255,255,255)"/>
   <polyline points="269.5,151.5  278.5,151.5  278.5,142.5  269.5,142.5  269.5,151.5 " style="fill:rgb(255,255,255)"/>
   <polyline points="190.0324,154.6297  198.6297,151.9676  195.9676,143.3703  187.3703,146.0324  190.0324,154.6297 " style="fill:rgb(255,255,255)"/>
   <polyline points="91.5,155.5  91.5,146.5  82.5,146.5  82.5,155.5  91.5,155.5 " style="fill:rgb(255,255,255)"/>
   <polyline points="163.4024,156.3781  165.3781,147.5976  156.5976,145.6219  154.6219,154.4024  163.4024,156.3781 " style="fill:rgb(255,255,255)"/>
   <polyline points="174.5531,155.4463  174.4463,146.4469  165.4469,146.5537  165.5537,155.5531  174.5531,155.4463 " style="fill:rgb(255,255,255)"/>
   <polyline points="238.5142,156.3057  240.3057,147.4858  231.4858,145.6943  229.6943,154.5142  238.5142,156.3057 " style="fill:rgb(255,255,255)"/>
   <polyline points="290.5,155.5  299.5,155.5  299.5,146.5  290.5,146.5  290.5,155.5 " style="fill:rgb(255,255,255)"/>
   <polyline points="102.3882,156.3864  100.3864,147.6118  91.6118,149.6136  93.6136,158.3882  102.3882,156.3864 " style="fill:rgb(255,255,255)"/>
   <polyline points="135.3632,152.9035  128.9035,146.6368  122.6368,153.0965  129.0965,159.3632  135.3632,152.9035 " style="fill:rgb(255,255,255)"/>
   <polyline points="251.0074,156.9276  249.9276,147.9926  240.9926,149.0724  242.0724,158.0074  251.0074,156.9276 " style="fill:rgb(255,255,255)"/>
   <polyline points="263.2332,151.7166  255.7166,146.7668  250.7668,154.2834  258.2834,159.2332  263.2332,151.7166 " style="fill:rgb(255,255,255)"/>
   <polyline points="9.5315,159.4682  9.4682,150.4685  0.46846,150.5318  0.53177,159.5315  9.5315,159.4682 " style="fill:rgb(254,254,254)"/>
   <polyline points="26.7743,160.7274  29.7274,152.2257  21.2257,149.2726  18.2726,157.7743  26.7743,160.7274 " style="fill:rgb(255,255,255)"/>
   <polyline points="40.5,159.5  40.5,150.5  31.5,150.5  31.5,159.5  40.5,159.5 " style="fill:rgb(255,255,255)"/>
   <polyline points="61.5,159.5  61.5,150.5  52.5,150.5  52.5,159.5  61.5,159.5 " style="fill:rgb(254,254,254)"/>
   <polyline points="70.5,159.5  70.5,150.5  61.5,150.5  61.5,159.5  70.5,159.5 " style="fill:rgb(254,254,254)"/>
   <polyline points="109.2329,161.1137  117.1137,156.7671  112.7671,148.8863  104.8863,153.2329  109.2329,161.1137 " style="fill:rgb(255,255,255)"/>
   <polyline points="140.0999,161.3  147.3,155.9001  141.9001,148.7  134.7,154.0999  140.0999,161.3 " style="fill:rgb(255,255,255)"/>
   <polyline points="202.8053,161.3128  208.3128,154.1947  201.1947,148.6872  195.6872,155.8053  202.8053,161.3128 " style="fill:rgb(255,255,255)"/>
   <polyline points="285.8318,160.6992  288.6992,152.1682  280.1682,149.3008  277.3008,157.8318  285.8318,160.6992 " style="fill:rgb(255,255,255)"/>
   <polyline points="79.5,161.5  79.5,152.5  70.5,152.5  70.5,161.5  79.5,161.5 " style="fill:rgb(255,255,255)"/>
   <polyline points="187.5499,160.1143  185.1143,151.4501  176.4501,153.8857  178.8857,162.5499  187.5499,160.1143 " style="fill:rgb(255,255,255)"/>
   <polyline points="216.1722,162.9818  219.9818,154.8278  211.8278,151.0182  208.0182,159.1722  216.1722,162.9818 " style="fill:rgb(255,255,255)"/>
   <polyline points="274.364,157  268,150.636  261.636,157  268,163.364  274.364,157 " style="fill:rgb(255,255,255)"/>
   <polyline points="43.0323,163.9757  51.9757,162.9677  50.9677,154.0243  42.0243,155.0323  43.0323,163.9757 " style="fill:rgb(255,255,255)"/>
   <polyline points="89.5,165.5  89.5,156.5  80.5,156.5  80.5,165.5  89.5,165.5 " style="fill:rgb(254,254,254)"/>
   <polyline points="156.4084,165.5898  156.5898,156.5916  147.5916,156.4102  147.4102,165.4084  156.4084,165.5898 " style="fill:rgb(255,255,255)"/>
   <polyline points="171.3586,165.637  171.637,156.6414  162.6414,156.363  162.363,165.3586  171.3586,165.637 " style="fill:rgb(255,255,255)"/>
   <polyline points="229.4838,166.3257  231.3257,157.5162  222.5162,155.6743  220.6743,164.4838  229.4838,166.3257 " style="fill:rgb(255,255,255)"/>
   <polyline points="296.0062,165.9447  296.9447,156.9938  287.9938,156.0553  287.0553,165.0062  296.0062,165.9447 " style="fill:rgb(255,255,255)"/>
   <polyline points="10.5,167.5  19.5,167.5  19.5,158.5  10.5,158.5  10.5,167.5 " style="fill:rgb(254,254,254)"/>
   <polyline points="95.7039,168.9353  103.9353,165.2961  100.2961,157.0647  92.0647,160.7039  95.7039,168.9353 " style="fill:rgb(255,255,255)"/>
   <polyline points="123.0299,166.8988  121.8988,157.9701  112.9701,159.1012  114.1012,168.0299  123.0299,166.8988 " style="fill:rgb(255,255,255)"/>
   <polyline points="141.3573,163.2916  135.2916,156.6427  128.6427,162.7084  134.7084,169.3573  141.3573,163.2916 " style="fill:rgb(255,255,255)"/>
   <polyline points="191.376,169.3333  198.3333,163.624  192.624,156.6667  185.6667,162.376  191.376,169.3333 " style="fill:rgb(255,255,255)"/>
   <polyline points="239.0514,168.5847  241.5847,159.9486  232.9486,157.4153  230.4153,166.0514  239.0514,168.5847 " style="fill:rgb(255,255,255)"/>
   <polyline points="255.2409,166.6101  253.6101,157.7591  244.7591,159.3899  246.3899,168.2409  255.2409,166.6101 " style="fill:rgb(255,255,255)"/>
   <polyline points="34.4104,168.3508  32.3508,159.5896  23.5896,161.6492  25.6492,170.4104  34.4104,168.3508 " style="fill:rgb(255,255,255)"/>
   <polyline points="61.5,169.5  61.5,160.5  52.5,160.5  52.5,169.5  61.5,169.5 " style="fill:rgb(255,255,255)"/>
   <polyline points="70.5,169.5  70.5,160.5  61.5,160.5  61.5,169.5  70.5,169.5 " style="fill:rgb(255,255,255)"/>
   <polyline points="281.7036,169.2868  281.2868,160.2964  272.2964,160.7132  272.7132,169.7036  281.7036,169.2868 " style="fill:rgb(255,255,255)"/>
   <polyline points="9.4642,171.5355  9.5355,162.5358  0.53582,162.4645  0.46446,171.4642  9.4642,171.5355 " style="fill:rgb(254,254,254)"/>
   <polyline points="80.5,171.5  80.5,162.5  71.5,162.5  71.5,171.5  80.5,171.5 " style="fill:rgb(254,254,254)"/>
   <polyline points="179.7739,172.7276  182.7276,164.2261  174.2261,161.2724  171.2724,169.7739  179.7739,172.7276 " style="fill:rgb(255,255,255)"/>
   <polyline points="207.5557,162.5564  198.5564,162.4443  198.4443,171.4436  207.4436,171.5557  207.5557,162.5564 " style="fill:rgb(255,255,255)"/>
   <polyline points="264.846,172.6921  267.6921,164.154  259.154,161.3079  256.3079,169.846  264.846,172.6921 " style="fill:rgb(255,255,255)"/>
   <polyline points="43.4981,173.5019  43.5019,164.5019  34.5019,164.4981  34.4981,173.4981  43.4981,173.5019 " style="fill:rgb(254,254,254)"/>
   <polyline points="150.3632,168.9035  143.9035,162.6368  137.6368,169.0965  144.0965,175.3632  150.3632,168.9035 " style="fill:rgb(255,255,255)"/>
   <polyline points="217.2697,173.7191  217.7191,164.7303  208.7303,164.2809  208.2809,173.2697  217.2697,173.7191 " style="fill:rgb(255,255,255)"/>
   <polyline points="89.5,175.5  89.5,166.5  80.5,166.5  80.5,175.5  89.5,175.5 " style="fill:rgb(255,255,255)"/>
   <polyline points="113.3522,167.557  104.557,165.6478  102.6478,174.443  111.443,176.3522  113.3522,167.557 " style="fill:rgb(255,255,255)"/>
   <polyline points="161.3522,167.557  152.557,165.6478  150.6478,174.443  159.443,176.3522  161.3522,167.557 " style="fill:rgb(255,255,255)"/>
   <polyline points="231.4544,176.3448  233.3448,167.5456  224.5456,165.6552  222.6552,174.4544  231.4544,176.3448 " style="fill:rgb(255,255,255)"/>
   <polyline points="290.2158,176.9657  293.9657,168.7842  285.7842,165.0343  282.0343,173.2158  290.2158,176.9657 " style="fill:rgb(255,255,255)"/>
   <polyline points="10.5,177.5  19.5,177.5  19.5,168.5  10.5,168.5  10.5,177.5 " style="fill:rgb(254,254,254)"/>
   <polyline points="122.5,168.5  113.5,168.5  113.5,177.5  122.5,177.5  122.5,168.5 " style="fill:rgb(255,255,255)"/>
   <polyline points="124.5,177.5  133.5,177.5  133.5,168.5  124.5,168.5  124.5,177.5 " style="fill:rgb(255,255,255)"/>
   <polyline points="170.5,168.5  161.5,168.5  161.5,177.5  170.5,177.5  170.5,168.5 " style="fill:rgb(255,255,255)"/>
   <polyline points="187.8978,178.666  190.666,170.1022  182.1022,167.334  179.334,175.8978  187.8978,178.666 " style="fill:rgb(255,255,255)"/>
   <polyline points="249.2482,171.7916  241.7916,166.7518  236.7518,174.2084  244.2084,179.2482  249.2482,171.7916 " style="fill:rgb(255,255,255)"/>
   <polyline points="20.6915,179.6837  29.6837,179.3085  29.3085,170.3163  20.3163,170.6915  20.6915,179.6837 " style="fill:rgb(254,254,254)"/>
   <polyline points="54.288,179.7024  54.7024,170.712  45.712,170.2976  45.2976,179.288  54.288,179.7024 " style="fill:rgb(255,255,255)"/>
   <polyline points="65.5,179.5  65.5,170.5  56.5,170.5  56.5,179.5  65.5,179.5 " style="fill:rgb(255,255,255)"/>
   <polyline points="100.4999,179.5001  100.5001,170.5001  91.5001,170.4999  91.4999,179.4999  100.4999,179.5001 " style="fill:rgb(255,255,255)"/>
   <polyline points="255.6334,180.7935  258.7935,172.3666  250.3666,169.2065  247.2065,177.6334  255.6334,180.7935 " style="fill:rgb(255,255,255)"/>
   <polyline points="275.7719,179.2105  275.2105,170.2281  266.2281,170.7895  266.7895,179.7719  275.7719,179.2105 " style="fill:rgb(255,255,255)"/>
   <polyline points="9.5481,181.4513  9.4513,172.4519  0.45185,172.5487  0.54867,181.5481  9.5481,181.4513 " style="fill:rgb(254,254,254)"/>
   <polyline points="74.5,181.5  74.5,172.5  65.5,172.5  65.5,181.5  74.5,181.5 " style="fill:rgb(255,255,255)"/>
   <polyline points="199.6722,181.3209  199.3209,172.3278  190.3278,172.6791  190.6791,181.6722  199.6722,181.3209 " style="fill:rgb(255,255,255)"/>
   <polyline points="39.4996,183.5004  39.5004,174.5004  30.5004,174.4996  30.4996,183.4996  39.4996,183.5004 " style="fill:rgb(255,255,255)"/>
   <polyline points="209.9611,183.9809  210.9809,175.0389  202.0389,174.0191  201.0191,182.9611  209.9611,183.9809 " style="fill:rgb(255,255,255)"/>
   <polyline points="222.0945,182.8139  220.8139,173.9055  211.9055,175.1861  213.1861,184.0945  222.0945,182.8139 " style="fill:rgb(255,255,255)"/>
   <polyline points="83.5,185.5  83.5,176.5  74.5,176.5  74.5,185.5  83.5,185.5 " style="fill:rgb(255,255,255)"/>
   <polyline points="112.2653,185.7231  112.7231,176.7347  103.7347,176.2769  103.2769,185.2653  112.2653,185.7231 " style="fill:rgb(255,255,255)"/>
   <polyline points="142.9427,185.9955  143.9955,177.0573  135.0573,176.0045  134.0045,184.9427  142.9427,185.9955 " style="fill:rgb(255,255,255)"/>
   <polyline points="154.5002,185.4998  154.4998,176.4998  145.4998,176.5002  145.5002,185.5002  154.5002,185.4998 " style="fill:rgb(255,255,255)"/>
   <polyline points="237.7847,185.196  237.196,176.2153  228.2153,176.804  228.804,185.7847  237.7847,185.196 " style="fill:rgb(255,255,255)"/>
   <polyline points="266.804,185.1739  266.1739,176.196  257.196,176.8261  257.8261,185.804  266.804,185.1739 " style="fill:rgb(255,255,255)"/>
   <polyline points="283.1136,187.0027  287.0027,178.8864  278.8864,174.9973  274.9973,183.1136  283.1136,187.0027 " style="fill:rgb(255,255,255)"/>
   <polyline points="290.5,185.5  299.5,185.5  299.5,176.5  290.5,176.5  290.5,185.5 " style="fill:rgb(255,255,255)"/>
   <polyline points="19.5,178.5  10.5,178.5  10.5,187.5  19.5,187.5  19.5,178.5 " style="fill:rgb(254,254,254)"/>
   <polyline points="122.988,186.9522  121.9522,178.012  113.012,179.0478  114.0478,187.988  122.988,186.9522 " style="fill:rgb(255,255,255)"/>
   <polyline points="133.9506,179.0011  125.0011,178.0494  124.0494,186.9989  132.9989,187.9506  133.9506,179.0011 " style="fill:rgb(255,255,255)"/>
   <polyline points="164.7127,178.7232  155.7232,178.2873  155.2873,187.2768  164.2768,187.7127  164.7127,178.7232 " style="fill:rgb(255,255,255)"/>
   <polyline points="174.8468,188.0698  176.0698,179.1532  167.1532,177.9302  165.9302,186.8468  174.8468,188.0698 " style="fill:rgb(255,255,255)"/>
   <polyline points="187.4048,179.6402  178.6402,177.5952  176.5952,186.3598  185.3598,188.4048  187.4048,179.6402 " style="fill:rgb(255,255,255)"/>
   <polyline points="40.5364,189.5362  49.5362,189.4636  49.4636,180.4638  40.4638,180.5364  40.5364,189.5362 " style="fill:rgb(255,255,255)"/>
   <polyline points="60.5,189.5  60.5,180.5  51.5,180.5  51.5,189.5  60.5,189.5 " style="fill:rgb(254,254,254)"/>
   <polyline points="93.5,189.5  93.5,180.5  84.5,180.5  84.5,189.5  93.5,189.5 " style="fill:rgb(254,254,254)"/>
   <polyline points="248.3512,189.644  248.644,180.6488  239.6488,180.356  239.356,189.3512  248.3512,189.644 " style="fill:rgb(255,255,255)"/>
   <polyline points="0.5,191.5  9.5,191.5  9.5,182.5  0.5,182.5  0.5,191.5 " style="fill:rgb(254,254,254)"/>
   <polyline points="31.138,190.7551  29.7551,181.862  20.862,183.2449  22.2449,192.138  31.138,190.7551 " style="fill:rgb(255,255,255)"/>
   <polyline points="70.5,191.5  70.5,182.5  61.5,182.5  61.5,191.5  70.5,191.5 " style="fill:rgb(255,255,255)"/>
   <polyline points="198.5382,190.135  196.135,181.4618  187.4618,183.865  189.865,192.5382  198.5382,190.135 " style="fill:rgb(255,255,255)"/>
   <polyline points="104.5793,185.9388  95.9388,183.4207  93.4207,192.0612  102.0612,194.5793  104.5793,185.9388 " style="fill:rgb(255,255,255)"/>
   <polyline points="209.5,193.5  209.5,184.5  200.5,184.5  200.5,193.5  209.5,193.5 " style="fill:rgb(255,255,255)"/>
   <polyline points="220.5,193.5  220.5,184.5  211.5,184.5  211.5,193.5  220.5,193.5 " style="fill:rgb(255,255,255)"/>
   <polyline points="277.5,193.5  277.5,184.5  268.5,184.5  268.5,193.5  277.5,193.5 " style="fill:rgb(255,255,255)"/>
   <polyline points="81.5,195.5  81.5,186.5  72.5,186.5  72.5,195.5  81.5,195.5 " style="fill:rgb(254,254,254)"/>
   <polyline points="144.8639,195.1039  144.1039,186.1361  135.1361,186.8961  135.8961,195.8639  144.8639,195.1039 " style="fill:rgb(255,255,255)"/>
   <polyline points="231.5,195.5  231.5,186.5  222.5,186.5  222.5,195.5  231.5,195.5 " style="fill:rgb(255,255,255)"/>
   <polyline points="258.5,195.5  258.5,186.5  249.5,186.5  249.5,195.5  258.5,195.5 " style="fill:rgb(255,255,255)"/>
   <polyline points="267.5,195.5  267.5,186.5  258.5,186.5  258.5,195.5  267.5,195.5 " style="fill:rgb(255,255,255)"/>
   <polyline points="292.5,195.5  292.5,186.5  283.5,186.5  283.5,195.5  292.5,195.5 " style="fill:rgb(255,255,255)"/>
   <polyline points="19.7304,197.2571  19.2571,188.2696  10.2696,188.7429  10.7429,197.7304  19.7304,197.2571 " style="fill:rgb(255,255,255)"/>
   <polyline points="40.5,197.5  40.5,188.5  31.5,188.5  31.5,197.5  40.5,197.5 " style="fill:rgb(255,255,255)"/>
   <polyline points="115.5951,197.4029  115.4029,188.4049  106.4049,188.5971  106.5971,197.5951  115.5951,197.4029 " style="fill:rgb(255,255,255)"/>
   <polyline points="125.8283,198.0837  127.0837,189.1717  118.1717,187.9163  116.9163,196.8283  125.8283,198.0837 " style="fill:rgb(255,255,255)"/>
   <polyline points="156.7266,195.7759  153.7759,187.2734  145.2734,190.2241  148.2241,198.7266  156.7266,195.7759 " style="fill:rgb(255,255,255)"/>
   <polyline points="165.9598,196.9875  164.9875,188.0402  156.0402,189.0125  157.0125,197.9598  165.9598,196.9875 " style="fill:rgb(255,255,255)"/>
   <polyline points="179.1361,196.7577  177.7577,187.8639  168.8639,189.2423  170.2423,198.1361  179.1361,196.7577 " style="fill:rgb(255,255,255)"/>
   <polyline points="53.1701,199.8073  53.8073,190.8299  44.8299,190.1927  44.1927,199.1701  53.1701,199.8073 " style="fill:rgb(255,255,255)"/>
   <polyline points="92.5,199.5  92.5,190.5  83.5,190.5  83.5,199.5  92.5,199.5 " style="fill:rgb(255,255,255)"/>
   <polyline points="241.5,199.5  241.5,190.5  232.5,190.5  232.5,199.5  241.5,199.5 " style="fill:rgb(254,254,254)"/>
   <polyline points="63.559,201.4402  63.4402,192.441  54.441,192.5598  54.5598,201.559  63.559,201.4402 " style="fill:rgb(255,255,255)"/>
   <polyline points="192.3606,197.2058  186.2058,190.6394  179.6394,196.7942  185.7942,203.3606  192.3606,197.2058 " style="fill:rgb(255,255,255)"/>
   <polyline points="9.0555,203.9043  9.9043,194.9445  0.94446,194.0957  0.095654,203.0555  9.0555,203.9043 " style="fill:rgb(255,255,255)"/>
   <polyline points="204.364,198.9992  197.9992,192.636  191.636,199.0008  198.0008,205.364  204.364,198.9992 " style="fill:rgb(254,254,254)"/>
   <polyline points="219.9657,202.9802  218.9802,194.0343  210.0343,195.0198  211.0198,203.9657  219.9657,202.9802 " style="fill:rgb(254,254,254)"/>
   <polyline points="278.5268,203.473  278.473,194.4732  269.4732,194.527  269.527,203.5268  278.5268,203.473 " style="fill:rgb(254,254,254)"/>
   <polyline points="30.1779,197.3001  21.3001,195.8221  19.8221,204.6999  28.6999,206.1779  30.1779,197.3001 " style="fill:rgb(255,255,255)"/>
   <polyline points="74.4486,197.7118  65.7118,195.5514  63.5514,204.2882  72.2882,206.4486  74.4486,197.7118 " style="fill:rgb(255,255,255)"/>
   <polyline points="104.8055,203.607  101.607,195.1945  93.1945,198.393  96.393,206.8055  104.8055,203.607 " style="fill:rgb(255,255,255)"/>
   <polyline points="135.6934,205.2979  135.2979,196.3066  126.3066,196.7021  126.7021,205.6934  135.6934,205.2979 " style="fill:rgb(255,255,255)"/>
   <polyline points="147.0676,204.8496  145.8496,195.9324  136.9324,197.1504  138.1504,206.0676  147.0676,204.8496 " style="fill:rgb(255,255,255)"/>
   <polyline points="230.3556,204.4377  228.4377,195.6444  219.6444,197.5623  221.5623,206.3556  230.3556,204.4377 " style="fill:rgb(254,254,254)"/>
   <polyline points="253.0355,198.9818  244.9818,194.9645  240.9645,203.0182  249.0182,207.0355  253.0355,198.9818 " style="fill:rgb(254,254,254)"/>
   <polyline points="256.7257,206.457  265.457,204.2743  263.2743,195.543  254.543,197.7257  256.7257,206.457 " style="fill:rgb(254,254,254)"/>
   <polyline points="280.7257,206.457  289.457,204.2743  287.2743,195.543  278.543,197.7257  280.7257,206.457 " style="fill:rgb(254,254,254)"/>
   <polyline points="19.5,198.5  10.5,198.5  10.5,207.5  19.5,207.5  19.5,198.5 " style="fill:rgb(255,255,255)"/>
   <polyline points="40.5,207.5  40.5,198.5  31.5,198.5  31.5,207.5  40.5,207.5 " style="fill:rgb(255,255,255)"/>
   <polyline points="114.4078,208.3746  116.3746,199.5922  107.5922,197.6254  105.6254,206.4078  114.4078,208.3746 " style="fill:rgb(255,255,255)"/>
   <polyline points="158.5688,206.0803  156.0803,197.4312  147.4312,199.9197  149.9197,208.5688  158.5688,206.0803 " style="fill:rgb(255,255,255)"/>
   <polyline points="168.699,208.1786  170.1786,199.301  161.301,197.8214  159.8214,206.699  168.699,208.1786 " style="fill:rgb(255,255,255)"/>
   <polyline points="53.0162,209.9366  53.9366,200.9838  44.9838,200.0634  44.0634,209.0162  53.0162,209.9366 " style="fill:rgb(255,255,255)"/>
   <polyline points="80.5762,211.3378  86.3378,204.4238  79.4238,198.6622  73.6622,205.5762  80.5762,211.3378 " style="fill:rgb(255,255,255)"/>
   <polyline points="182.3532,205.3692  176.3692,198.6468  169.6468,204.6308  175.6308,211.3532  182.3532,205.3692 " style="fill:rgb(255,255,255)"/>
   <polyline points="230.9031,209.8699  239.8699,209.0969  239.0969,200.1301  230.1301,200.9031  230.9031,209.8699 " style="fill:rgb(254,254,254)"/>
   <polyline points="298.8699,200.9031  289.9031,200.1301  289.1301,209.0969  298.0969,209.8699  298.8699,200.9031 " style="fill:rgb(254,254,254)"/>
   <polyline points="63.6886,211.3032  63.3032,202.3114  54.3114,202.6968  54.6968,211.6886  63.6886,211.3032 " style="fill:rgb(255,255,255)"/>
   <polyline points="118.3456,212.2101  127.2101,210.6544  125.6544,201.7899  116.7899,203.3456  118.3456,212.2101 " style="fill:rgb(255,255,255)"/>
   <polyline points="210.5128,211.4871  210.4871,202.4872  201.4872,202.5129  201.5129,211.5128  210.5128,211.4871 " style="fill:rgb(254,254,254)"/>
   <polyline points="9.7304,213.2571  9.2571,204.2696  0.2696,204.7429  0.74285,213.7304  9.7304,213.2571 " style="fill:rgb(254,254,254)"/>
   <polyline points="93.1841,214.5101  95.5101,205.8159  86.8159,203.4899  84.4899,212.1841  93.1841,214.5101 " style="fill:rgb(255,255,255)"/>
   <polyline points="192.5,204.5  183.5,204.5  183.5,213.5  192.5,213.5  192.5,204.5 " style="fill:rgb(255,255,255)"/>
   <polyline points="265.7264,214.4575  274.4575,212.2736  272.2736,203.5425  263.5425,205.7264  265.7264,214.4575 " style="fill:rgb(254,254,254)"/>
   <polyline points="27.5039,216.8507  30.8507,208.4961  22.4961,205.1493  19.1493,213.5039  27.5039,216.8507 " style="fill:rgb(255,255,255)"/>
   <polyline points="106.0224,214.9084  104.9084,205.9776  95.9776,207.0916  97.0916,216.0224  106.0224,214.9084 " style="fill:rgb(255,255,255)"/>
   <polyline points="140.0145,215.938  140.938,206.9855  131.9855,206.062  131.062,215.0145  140.0145,215.938 " style="fill:rgb(255,255,255)"/>
   <polyline points="221.2336,215.7515  221.7515,206.7664  212.7664,206.2485  212.2485,215.2336  221.2336,215.7515 " style="fill:rgb(254,254,254)"/>
   <polyline points="258.5002,215.4998  258.4998,206.4998  249.4998,206.5002  249.5002,215.5002  258.5002,215.4998 " style="fill:rgb(254,254,254)"/>
   <polyline points="283.5268,215.473  283.473,206.4732  274.4732,206.527  274.527,215.5268  283.5268,215.473 " style="fill:rgb(254,254,254)"/>
   <polyline points="41.5418,217.4578  41.4578,208.4582  32.4582,208.5422  32.5422,217.5418  41.5418,217.4578 " style="fill:rgb(255,255,255)"/>
   <polyline points="69.6223,219.1537  74.1537,211.3777  66.3777,206.8463  61.8463,214.6223  69.6223,219.1537 " style="fill:rgb(255,255,255)"/>
   <polyline points="148.5756,218.8195  151.8195,210.4244  143.4244,207.1805  140.1805,215.5756  148.5756,218.8195 " style="fill:rgb(255,255,255)"/>
   <polyline points="164.3605,213.2111  158.2111,206.6395  151.6395,212.7889  157.7889,219.3605  164.3605,213.2111 " style="fill:rgb(255,255,255)"/>
   <polyline points="201.5,208.5  192.5,208.5  192.5,217.5  201.5,217.5  201.5,208.5 " style="fill:rgb(254,254,254)"/>
   <polyline points="118.0805,218.8325  116.8325,209.9195  107.9195,211.1675  109.1675,220.0805  118.0805,218.8325 " style="fill:rgb(255,255,255)"/>
   <polyline points="172.3744,220.9044  175.9044,212.6256  167.6256,209.0956  164.0956,217.3744  172.3744,220.9044 " style="fill:rgb(255,255,255)"/>
   <polyline points="233.6937,220.1823  235.1823,211.3063  226.3063,209.8177  224.8177,218.6937  233.6937,220.1823 " style="fill:rgb(254,254,254)"/>
   <polyline points="246.7008,219.2899  246.2899,210.2992  237.2992,210.7101  237.7101,219.7008  246.7008,219.2899 " style="fill:rgb(254,254,254)"/>
   <polyline points="294.4767,218.2413  292.2413,209.5233  283.5233,211.7587  285.7587,220.4767  294.4767,218.2413 " style="fill:rgb(254,254,254)"/>
   <polyline points="52.0426,220.8823  50.8823,211.9574  41.9574,213.1177  43.1177,222.0426  52.0426,220.8823 " style="fill:rgb(255,255,255)"/>
   <polyline points="82.2001,222.9716  85.9716,214.7999  77.7999,211.0284  74.0284,219.2001  82.2001,222.9716 " style="fill:rgb(255,255,255)"/>
   <polyline points="129.682,219.8661  126.8661,211.318  118.318,214.1339  121.1339,222.682  129.682,219.8661 " style="fill:rgb(255,255,255)"/>
   <polyline points="11.4983,223.5017  11.5017,214.5017  2.5017,214.4983  2.4983,223.4983  11.4983,223.5017 " style="fill:rgb(254,254,254)"/>
   <polyline points="184.6781,223.3145  184.3145,214.3219  175.3219,214.6855  175.6855,223.6781  184.6781,223.3145 " style="fill:rgb(255,255,255)"/>
   <polyline points="210.7426,224.1471  212.1471,215.2574  203.2574,213.8529  201.8529,222.7426  210.7426,224.1471 " style="fill:rgb(254,254,254)"/>
   <polyline points="271.4168,223.5817  271.5817,214.5832  262.5832,214.4183  262.4183,223.4168  271.4168,223.5817 " style="fill:rgb(254,254,254)"/>
</svg>