<?xml version="1.0" encoding="utf-8"?>
<svg xmlns="http://www.w3.org/2000/svg" xmlns:xlink="http://www.w3.org/1999/xlink" height="235" preserveAspectRatio="xMinYMin meet" style="background: grey" version="1.1" viewBox="-4 -4 235 310" width="310">
   <polyline points="125.9447,0.99373  116.9937,0.055323  116.0553,9.0063  125.0063,9.9447  125.9447,0.99373 " style="fill:rgb(255,255,255)"/>
   <polyline points="136.9592,1.0117  128.0117,0.040815  127.0408,8.9883  135.9883,9.9592  136.9592,1.0117 " style="fill:rgb(255,255,255)"/>
   <polyline points="147.6189,0.62218  138.6222,0.38106  138.3811,9.3778  147.3778,9.6189  147.6189,0.62218 " style="fill:rgb(255,255,255)"/>
   <polyline points="158.6602,0.66611  149.6661,0.33981  149.3398,9.3339  158.3339,9.6602  158.6602,0.66611 " style="fill:rgb(255,255,255)"/>
   <polyline points="169.5384,0.53871  160.5387,0.46162  160.4616,9.4613  169.4613,9.5384  169.5384,0.53871 " style="fill:rgb(255,255,255)"/>
   <polyline points="171.5025,9.5025  180.5025,9.4975  180.4975,0.49748  171.4975,0.50252  171.5025,9.5025 " style="fill:rgb(255,255,255)"/>
   <polyline points="191.5742,0.57542  182.5754,0.42583  182.4258,9.4246  191.4246,9.5742  191.5742,0.57542 " style="fill:rgb(255,255,255)"/>
   <polyline points="193.5728,9.5717  202.5717,9.4272  202.4272,0.42832  193.4283,0.57284  193.5728,9.5717 " style="fill:rgb(255,255,255)"/>
   <polyline points="204.7492,9.7361  213.7361,9.2508  213.2508,0.26392  204.2639,0.74918  204.7492,9.7361 " style="fill:rgb(255,255,255)"/>
   <polyline points="215.9383,9.8993  224.8993,9.0617  224.0617,0.10074  215.1007,0.93832  215.9383,9.8993 " style="fill:rgb(255,255,255)"/>
   <polyline points="13.329,6.3343  6.3343,0.67095  0.67095,7.6657  7.6657,13.329  13.329,6.3343 " style="fill:rgb(255,255,255)"/>
   <polyline points="24.5567,3.8978  15.8978,1.4433  13.4433,10.1022  22.1022,12.5567  24.5567,3.8978 " style="fill:rgb(254,254,254)"/>
   <polyline points="34.6117,3.9986  25.9986,1.3883  23.3883,10.0014  32.0014,12.6117  34.6117,3.9986 " style="fill:rgb(255,255,255)"/>
   <polyline points="44.6793,4.1284  36.1284,1.3207  33.3207,9.8716  41.8716,12.6793  44.6793,4.1284 " style="fill:rgb(255,255,255)"/>
   <polyline points="54.8063,4.3949  46.3949,1.1937  43.1937,9.6051  51.6051,12.8063  54.8063,4.3949 " style="fill:rgb(255,255,255)"/>
   <polyline points="64.3092,3.491  55.491,1.6908  53.6908,10.509  62.509,12.3092  64.3092,3.491 " style="fill:rgb(255,255,255)"/>
   <polyline points="74.2746,3.4393  65.4393,1.7254  63.7254,10.5607  72.5607,12.2746  74.2746,3.4393 " style="fill:rgb(255,255,255)"/>
   <polyline points="84.3979,3.6292  75.6292,1.6021  73.6021,10.3708  82.3708,12.3979  84.3979,3.6292 " style="fill:rgb(255,255,255)"/>
   <polyline points="94.6904,4.1505  86.1505,1.3096  83.3096,9.8495  91.8495,12.6904  94.6904,4.1505 " style="fill:rgb(255,255,255)"/>
   <polyline points="104.9025,4.6209  96.6209,1.0975  93.0975,9.3791  101.3791,12.9025  104.9025,4.6209 " style="fill:rgb(254,254,254)"/>
   <polyline points="116.2812,3.4491  107.4491,1.7188  105.7188,10.5509  114.5509,12.2812  116.2812,3.4491 " style="fill:rgb(254,254,254)"/>
   <polyline points="226.9302,11.8926  235.8926,11.0698  235.0698,2.1074  226.1074,2.9302  226.9302,11.8926 " style="fill:rgb(254,254,254)"/>
   <polyline points="238.1203,12.0446  247.0446,10.8797  245.8797,1.9554  236.9554,3.1203  238.1203,12.0446 " style="fill:rgb(254,254,254)"/>
   <polyline points="249.248,12.1402  258.1402,10.752  256.752,1.8598  247.8598,3.248  249.248,12.1402 " style="fill:rgb(254,254,254)"/>
   <polyline points="259.5424,12.3427  268.3427,10.4576  266.4576,1.6573  257.6573,3.5424  259.5424,12.3427 " style="fill:rgb(254,254,254)"/>
   <polyline points="269.8168,12.5107  278.5107,10.1832  276.1832,1.4893  267.4893,3.8168  269.8168,12.5107 " style="fill:rgb(254,254,254)"/>
   <polyline points="280.4274,12.8208  288.8208,9.5726  285.5726,1.1792  277.1792,4.4274  280.4274,12.8208 " style="fill:rgb(254,254,254)"/>
   <polyline points="292.8737,19.3627  299.3627,13.1263  293.1263,6.6373  286.6373,12.8737  292.8737,19.3627 " style="fill:rgb(254,254,254)"/>
   <polyline points="167.0556,13.0431  159.0431,8.9444  154.9444,16.9569  162.9569,21.0556  167.0556,13.0431 " style="fill:rgb(254,254,254)"/>
   <polyline points="177.7835,10.8026  168.8026,10.2165  168.2165,19.1974  177.1974,19.7835  177.7835,10.8026 " style="fill:rgb(254,254,254)"/>
   <polyline points="189.3972,11.628  180.628,9.6028  178.6028,18.372  187.372,20.3972  189.3972,11.628 " style="fill:rgb(254,254,254)"/>
   <polyline points="209.225,11.3669  200.3669,9.775  198.775,18.6331  207.6331,20.225  209.225,11.3669 " style="fill:rgb(254,254,254)"/>
   <polyline points="219.1229,20.6764  227.6764,17.8771  224.8771,9.3236  216.3236,12.1229  219.1229,20.6764 " style="fill:rgb(254,254,254)"/>
   <polyline points="19.2084,15.6017  11.6017,10.7916  6.7916,18.3983  14.3983,23.2084  19.2084,15.6017 " style="fill:rgb(255,255,255)"/>
   <polyline points="31.3625,16.865  24.865,10.6375  18.6375,17.135  25.135,23.3625  31.3625,16.865 " style="fill:rgb(255,255,255)"/>
   <polyline points="43.4095,13.6478  34.6478,11.5905  32.5905,20.3522  41.3522,22.4095  43.4095,13.6478 " style="fill:rgb(255,255,255)"/>
   <polyline points="61.8167,14.418  53.418,11.1833  50.1833,19.582  58.582,22.8167  61.8167,14.418 " style="fill:rgb(255,255,255)"/>
   <polyline points="71.7926,14.3646  63.3646,11.2074  60.2074,19.6354  68.6354,22.7926  71.7926,14.3646 " style="fill:rgb(255,255,255)"/>
   <polyline points="84.0406,14.9974  75.9974,10.9594  71.9594,19.0026  80.0026,23.0406  84.0406,14.9974 " style="fill:rgb(255,255,255)"/>
   <polyline points="101.3521,16.6116  94.6116,10.6479  88.6479,17.3884  95.3884,23.3521  101.3521,16.6116 " style="fill:rgb(255,255,255)"/>
   <polyline points="124.2477,15.789  116.789,10.7523  111.7523,18.211  119.211,23.2477  124.2477,15.789 " style="fill:rgb(255,255,255)"/>
   <polyline points="135.0128,14.9153  126.9153,10.9872  122.9872,19.0847  131.0847,23.0128  135.0128,14.9153 " style="fill:rgb(255,255,255)"/>
   <polyline points="146.5695,13.9209  137.9209,11.4305  135.4305,20.0791  144.0791,22.5695  146.5695,13.9209 " style="fill:rgb(255,255,255)"/>
   <polyline points="198.5182,13.8299  189.8299,11.4818  187.4818,20.1701  196.1701,22.5182  198.5182,13.8299 " style="fill:rgb(255,255,255)"/>
   <polyline points="252.2815,13.4495  243.4495,11.7185  241.7185,20.5505  250.5505,22.2815  252.2815,13.4495 " style="fill:rgb(255,255,255)"/>
   <polyline points="276.7334,23.3584  283.3584,17.2666  277.2666,10.6416  270.6416,16.7334  276.7334,23.3584 " style="fill:rgb(254,254,254)"/>
   <polyline points="232.9998,25.364  239.364,19.0002  233.0002,12.636  226.636,18.9998  232.9998,25.364 " style="fill:rgb(254,254,254)"/>
   <polyline points="257.9973,25.364  264.364,19.0027  258.0027,12.636  251.636,18.9973  257.9973,25.364 " style="fill:rgb(254,254,254)"/>
   <polyline points="111.2429,19.7646  103.7646,14.7571  98.7571,22.2354  106.2354,27.2429  111.2429,19.7646 " style="fill:rgb(254,254,254)"/>
   <polyline points="154.9204,16.9639  145.9639,16.0796  145.0796,25.0361  154.0361,25.9204  154.9204,16.9639 " style="fill:rgb(254,254,254)"/>
   <polyline points="286.9549,27.3638  293.3638,21.0451  287.0451,14.6362  280.6362,20.9549  286.9549,27.3638 " style="fill:rgb(254,254,254)"/>
   <polyline points="53.3136,22.2008  46.2008,16.6864  40.6864,23.7992  47.7992,29.3136  53.3136,22.2008 " style="fill:rgb(255,255,255)"/>
   <polyline points="91.911,20.642  83.642,17.089  80.089,25.358  88.358,28.911  91.911,20.642 " style="fill:rgb(254,254,254)"/>
   <polyline points="211.6275,28.9052  219.9052,25.3725  216.3725,17.0948  208.0948,20.6275  211.6275,28.9052 " style="fill:rgb(254,254,254)"/>
   <polyline points="267.2313,29.3174  274.3174,23.7687  268.7687,16.6826  261.6826,22.2313  267.2313,29.3174 " style="fill:rgb(255,255,255)"/>
   <polyline points="13.1051,23.2034  5.2034,18.8949  0.8949,26.7966  8.7966,31.1051  13.1051,23.2034 " style="fill:rgb(255,255,255)"/>
   <polyline points="37.255,23.8274  29.8274,18.745  24.745,26.1726  32.1726,31.255  37.255,23.8274 " style="fill:rgb(255,255,255)"/>
   <polyline points="172.5045,20.5046  163.5046,20.4955  163.4955,29.4954  172.4954,29.5045  172.5045,20.5046 " style="fill:rgb(254,254,254)"/>
   <polyline points="174.5271,29.5269  183.5269,29.4729  183.4729,20.4731  174.4731,20.5271  174.5271,29.5269 " style="fill:rgb(254,254,254)"/>
   <polyline points="207.0015,21.065  198.065,19.9985  196.9985,28.935  205.935,30.0015  207.0015,21.065 " style="fill:rgb(254,254,254)"/>
   <polyline points="24.6678,24.1059  16.1059,21.3322  13.3322,29.8941  21.8941,32.6678  24.6678,24.1059 " style="fill:rgb(254,254,254)"/>
   <polyline points="68.7652,24.3051  60.3051,21.2348  57.2348,29.6949  65.6949,32.7652  68.7652,24.3051 " style="fill:rgb(255,255,255)"/>
   <polyline points="119.3622,26.8517  112.8517,20.6378  106.6378,27.1483  113.1483,33.3622  119.3622,26.8517 " style="fill:rgb(255,255,255)"/>
   <polyline points="132.3223,26.2732  125.2732,20.6777  119.6777,27.7268  126.7268,33.3223  132.3223,26.2732 " style="fill:rgb(255,255,255)"/>
   <polyline points="144.0528,25.0345  136.0345,20.9472  131.9472,28.9655  139.9655,33.0528  144.0528,25.0345 " style="fill:rgb(255,255,255)"/>
   <polyline points="194.7723,22.7899  185.7899,22.2277  185.2277,31.2101  194.2101,31.7723  194.7723,22.7899 " style="fill:rgb(255,255,255)"/>
   <polyline points="221.2669,32.154  230.154,30.7331  228.7331,21.846  219.846,23.2669  221.2669,32.154 " style="fill:rgb(255,255,255)"/>
   <polyline points="239.2065,33.106  247.106,28.7935  242.7935,20.894  234.894,25.2065  239.2065,33.106 " style="fill:rgb(255,255,255)"/>
   <polyline points="79.2072,27.5961  71.5961,22.7928  66.7928,30.4039  74.4039,35.2072  79.2072,27.5961 " style="fill:rgb(255,255,255)"/>
   <polyline points="103.3488,28.5616  96.5616,22.6512  90.6512,29.4384  97.4384,35.3488  103.3488,28.5616 " style="fill:rgb(255,255,255)"/>
   <polyline points="275.0095,35.0447  283.0447,30.9905  278.9905,22.9553  270.9553,27.0095  275.0095,35.0447 " style="fill:rgb(255,255,255)"/>
   <polyline points="153.9312,26.9771  144.9771,26.0688  144.0688,35.0229  153.0229,35.9312  153.9312,26.9771 " style="fill:rgb(254,254,254)"/>
   <polyline points="251.7404,36.9493  259.9493,33.2596  256.2596,25.0507  248.0507,28.7404  251.7404,36.9493 " style="fill:rgb(254,254,254)"/>
   <polyline points="289.7562,37.3593  296.3593,31.2438  290.2438,24.6407  283.6407,30.7562  289.7562,37.3593 " style="fill:rgb(254,254,254)"/>
   <polyline points="35.2342,38.1301  44.1301,36.7658  42.7658,27.8699  33.8699,29.2342  35.2342,38.1301 " style="fill:rgb(254,254,254)"/>
   <polyline points="50.5001,39.3443  57.3443,33.4999  51.4999,26.6557  44.6557,32.5001  50.5001,39.3443 " style="fill:rgb(255,255,255)"/>
   <polyline points="89.3556,32.6736  82.6736,26.6444  76.6444,33.3264  83.3264,39.3556  89.3556,32.6736 " style="fill:rgb(255,255,255)"/>
   <polyline points="211.7934,38.9692  219.9692,35.2066  216.2066,27.0308  208.0308,30.7934  211.7934,38.9692 " style="fill:rgb(255,255,255)"/>
   <polyline points="32.1592,31.2741  23.2741,29.8408  21.8408,38.7259  30.7259,40.1592  32.1592,31.2741 " style="fill:rgb(254,254,254)"/>
   <polyline points="111.2517,33.8101  103.8101,28.7483  98.7483,36.1899  106.1899,41.2517  111.2517,33.8101 " style="fill:rgb(255,255,255)"/>
   <polyline points="164.5008,30.5008  155.5008,30.4992  155.4992,39.4992  164.4992,39.5008  164.5008,30.5008 " style="fill:rgb(255,255,255)"/>
   <polyline points="166.6243,39.621  175.621,39.3757  175.3757,30.379  166.379,30.6243  166.6243,39.621 " style="fill:rgb(255,255,255)"/>
   <polyline points="195.7476,39.7347  204.7347,39.2524  204.2524,30.2653  195.2653,30.7476  195.7476,39.7347 " style="fill:rgb(255,255,255)"/>
   <polyline points="229.642,40.4059  238.4059,38.358  236.358,29.5941  227.5941,31.642  229.642,40.4059 " style="fill:rgb(255,255,255)"/>
   <polyline points="264.8823,41.0013  273.0013,37.1177  269.1177,28.9987  260.9987,32.8823  264.8823,41.0013 " style="fill:rgb(255,255,255)"/>
   <polyline points="13.3519,36.6088  6.6088,30.6481  0.64807,37.3912  7.3912,43.3519  13.3519,36.6088 " style="fill:rgb(255,255,255)"/>
   <polyline points="98.3635,36.9239  91.9239,30.6365  85.6365,37.0761  92.0761,43.3635  98.3635,36.9239 " style="fill:rgb(255,255,255)"/>
   <polyline points="123.2781,35.9584  115.9584,30.7219  110.7219,38.0416  118.0416,43.2781  123.2781,35.9584 " style="fill:rgb(254,254,254)"/>
   <polyline points="137.6702,34.1105  129.1105,31.3298  126.3298,39.8895  134.8895,42.6702  137.6702,34.1105 " style="fill:rgb(254,254,254)"/>
   <polyline points="177.9151,41.8799  186.8799,41.0849  186.0849,32.1201  177.1201,32.9151  177.9151,41.8799 " style="fill:rgb(254,254,254)"/>
   <polyline points="242.8398,42.9861  250.9861,39.1602  247.1602,31.0139  239.0139,34.8398  242.8398,42.9861 " style="fill:rgb(254,254,254)"/>
   <polyline points="282.5552,43.3484  289.3484,37.4448  283.4448,30.6516  276.6516,36.5552  282.5552,43.3484 " style="fill:rgb(254,254,254)"/>
   <polyline points="58.2052,45.3141  65.3141,39.7948  59.7948,32.6859  52.6859,38.2052  58.2052,45.3141 " style="fill:rgb(255,255,255)"/>
   <polyline points="23.3627,40.8737  16.8737,34.6373  10.6373,41.1263  17.1263,47.3627  23.3627,40.8737 " style="fill:rgb(254,254,254)"/>
   <polyline points="78.3621,40.8449  71.8449,34.6379  65.6379,41.1551  72.1551,47.3621  78.3621,40.8449 " style="fill:rgb(255,255,255)"/>
   <polyline points="146.1066,37.2023  137.2023,35.8934  135.8934,44.7977  144.7977,46.1066  146.1066,37.2023 " style="fill:rgb(255,255,255)"/>
   <polyline points="217.0625,46.6454  225.6454,43.9375  222.9375,35.3546  214.3546,38.0625  217.0625,46.6454 " style="fill:rgb(255,255,255)"/>
   <polyline points="256.5323,47.1924  264.1924,42.4677  259.4677,34.8076  251.8076,39.5323  256.5323,47.1924 " style="fill:rgb(255,255,255)"/>
   <polyline points="41.7811,49.2461  49.2461,44.2189  44.2189,36.7539  36.7539,41.7811  41.7811,49.2461 " style="fill:rgb(255,255,255)"/>
   <polyline points="106.2122,41.6186  98.6186,36.7878  93.7878,44.3814  101.3814,49.2122  106.2122,41.6186 " style="fill:rgb(254,254,254)"/>
   <polyline points="271.3549,48.7882  279.7882,45.6451  276.6451,37.2118  268.2118,40.3549  271.3549,48.7882 " style="fill:rgb(254,254,254)"/>
   <polyline points="290.5809,49.2037  298.2037,44.4191  293.4191,36.7963  285.7963,41.5809  290.5809,49.2037 " style="fill:rgb(254,254,254)"/>
   <polyline points="87.3638,44.9598  80.9598,38.6362  74.6362,45.0402  81.0402,51.3638  87.3638,44.9598 " style="fill:rgb(255,255,255)"/>
   <polyline points="116.2394,43.7469  108.7469,38.7606  103.7606,46.2531  111.2531,51.2394  116.2394,43.7469 " style="fill:rgb(255,255,255)"/>
   <polyline points="130.4328,41.6857  121.6857,39.5672  119.5672,48.3143  128.3143,50.4328  130.4328,41.6857 " style="fill:rgb(255,255,255)"/>
   <polyline points="146.5028,49.5028  155.5028,49.4972  155.4972,40.4972  146.4972,40.5028  146.5028,49.5028 " style="fill:rgb(255,255,255)"/>
   <polyline points="157.711,49.7016  166.7016,49.289  166.289,40.2984  157.2984,40.711  157.711,49.7016 " style="fill:rgb(255,255,255)"/>
   <polyline points="168.8609,49.8341  177.8341,49.1391  177.1391,40.1659  168.1659,40.8609  168.8609,49.8341 " style="fill:rgb(255,255,255)"/>
   <polyline points="188.0611,49.9985  196.9985,48.9389  195.9389,40.0015  187.0015,41.0611  188.0611,49.9985 " style="fill:rgb(255,255,255)"/>
   <polyline points="199.2436,50.1371  208.1371,48.7564  206.7564,39.8629  197.8629,41.2436  199.2436,50.1371 " style="fill:rgb(255,255,255)"/>
   <polyline points="227.9738,50.5984  236.5984,48.0262  234.0262,39.4016  225.4016,41.9738  227.9738,50.5984 " style="fill:rgb(255,255,255)"/>
   <polyline points="24.9985,53.364  31.364,47.0015  25.0015,40.636  18.636,46.9985  24.9985,53.364 " style="fill:rgb(255,255,255)"/>
   <polyline points="244.2595,52.1487  253.1487,50.7405  251.7405,41.8513  242.8513,43.2595  244.2595,52.1487 " style="fill:rgb(254,254,254)"/>
   <polyline points="15.3635,48.9208  8.9208,42.6365  2.6365,49.0792  9.0792,55.3635  15.3635,48.9208 " style="fill:rgb(255,255,255)"/>
   <polyline points="51.6723,55.3555  58.3555,49.3277  52.3277,42.6445  45.6445,48.6723  51.6723,55.3555 " style="fill:rgb(255,255,255)"/>
   <polyline points="97.3616,48.8284  90.8284,42.6384  84.6384,49.1716  91.1716,55.3616  97.3616,48.8284 " style="fill:rgb(255,255,255)"/>
   <polyline points="262.7214,54.4544  271.4544,52.2786  269.2786,43.5456  260.5456,45.7214  262.7214,54.4544 " style="fill:rgb(255,255,255)"/>
   <polyline points="281.3786,54.799  289.799,51.6214  286.6214,43.201  278.201,46.3786  281.3786,54.799 " style="fill:rgb(255,255,255)"/>
   <polyline points="60.7653,55.7505  69.7505,55.2347  69.2347,46.2495  60.2495,46.7653  60.7653,55.7505 " style="fill:rgb(255,255,255)"/>
   <polyline points="138.6205,46.6239  129.6239,46.3795  129.3795,55.3761  138.3761,55.6205  138.6205,46.6239 " style="fill:rgb(255,255,255)"/>
   <polyline points="178.7729,55.7572  187.7572,55.2271  187.2271,46.2428  178.2428,46.7729  178.7729,55.7572 " style="fill:rgb(255,255,255)"/>
   <polyline points="216.1171,56.0421  225.0421,54.8829  223.8829,45.9579  214.9579,47.1171  216.1171,56.0421 " style="fill:rgb(255,255,255)"/>
   <polyline points="32.7446,59.3588  39.3588,53.2554  33.2554,46.6412  26.6412,52.7446  32.7446,59.3588 " style="fill:rgb(255,255,255)"/>
   <polyline points="234.5349,58.3379  243.3379,56.4651  241.4651,47.6621  232.6621,49.5349  234.5349,58.3379 " style="fill:rgb(255,255,255)"/>
   <polyline points="23.3608,54.7987  16.7987,48.6392  10.6392,55.2013  17.2013,61.3608  23.3608,54.7987 " style="fill:rgb(254,254,254)"/>
   <polyline points="43.9646,61.3639  50.3639,55.0354  44.0354,48.6361  37.6361,54.9646  43.9646,61.3639 " style="fill:rgb(255,255,255)"/>
   <polyline points="81.0961,53.1731  73.1731,48.9039  68.9039,56.8269  76.8269,61.0961  81.0961,53.1731 " style="fill:rgb(255,255,255)"/>
   <polyline points="106.8107,52.4047  98.4047,49.1893  95.1893,57.5953  103.5953,60.8107  106.8107,52.4047 " style="fill:rgb(255,255,255)"/>
   <polyline points="121.9695,51.0245  113.0245,50.0305  112.0305,58.9755  120.9755,59.9695  121.9695,51.0245 " style="fill:rgb(255,255,255)"/>
   <polyline points="139.5782,59.5769  148.5769,59.4218  148.4218,50.4231  139.4231,50.5782  139.5782,59.5769 " style="fill:rgb(255,255,255)"/>
   <polyline points="150.6936,59.6856  159.6856,59.3064  159.3064,50.3144  150.3144,50.6936  150.6936,59.6856 " style="fill:rgb(255,255,255)"/>
   <polyline points="161.7867,59.7695  170.7695,59.2133  170.2133,50.2305  161.2305,50.7867  161.7867,59.7695 " style="fill:rgb(255,255,255)"/>
   <polyline points="188.9955,59.9461  197.9461,59.0045  197.0045,50.0539  188.0539,50.9955  188.9955,59.9461 " style="fill:rgb(255,255,255)"/>
   <polyline points="200.1113,60.0377  209.0377,58.8887  207.8887,49.9623  198.9623,51.1113  200.1113,60.0377 " style="fill:rgb(255,255,255)"/>
   <polyline points="252.0827,60.6559  260.6559,57.9173  257.9173,49.3441  249.3441,52.0827  252.0827,60.6559 " style="fill:rgb(255,255,255)"/>
   <polyline points="291.8207,61.2537  299.2537,56.1793  294.1793,48.7463  286.7463,53.8207  291.8207,61.2537 " style="fill:rgb(255,255,255)"/>
   <polyline points="270.8685,62.9964  278.9964,59.1315  275.1315,51.0036  267.0036,54.8685  270.8685,62.9964 " style="fill:rgb(255,255,255)"/>
   <polyline points="63.1537,57.3778  55.3778,52.8463  50.8463,60.6222  58.6222,65.1537  63.1537,57.3778 " style="fill:rgb(255,255,255)"/>
   <polyline points="89.6945,54.7033  80.7033,54.3055  80.3055,63.2967  89.2967,63.6945  89.6945,54.7033 " style="fill:rgb(255,255,255)"/>
   <polyline points="224.691,64.436  233.436,62.309  231.309,53.564  222.564,55.691  224.691,64.436 " style="fill:rgb(255,255,255)"/>
   <polyline points="13.3639,60.9667  6.9667,54.6361  0.63613,61.0333  7.0333,67.3639  13.3639,60.9667 " style="fill:rgb(255,255,255)"/>
   <polyline points="23.9802,67.3639  30.3639,61.0198  24.0198,54.6361  17.6361,60.9802  23.9802,67.3639 " style="fill:rgb(254,254,254)"/>
   <polyline points="122.5487,65.5482  131.5482,65.4513  131.4513,56.4518  122.4518,56.5487  122.5487,65.5482 " style="fill:rgb(255,255,255)"/>
   <polyline points="172.087,66.0188  181.0188,64.913  179.913,55.9812  170.9812,57.087  172.087,66.0188 " style="fill:rgb(255,255,255)"/>
   <polyline points="213.5853,66.3703  222.3703,64.4147  220.4147,55.6297  211.6297,57.5853  213.5853,66.3703 " style="fill:rgb(255,255,255)"/>
   <polyline points="242.205,66.7173  250.7173,63.795  247.795,55.2827  239.2827,58.205  242.205,66.7173 " style="fill:rgb(255,255,255)"/>
   <polyline points="283.6886,67.2274  291.2274,62.3114  286.3114,54.7726  278.7726,59.6886  283.6886,67.2274 " style="fill:rgb(255,255,255)"/>
   <polyline points="36.4318,69.3385  43.3385,63.5682  37.5682,56.6615  30.6615,62.4318  36.4318,69.3385 " style="fill:rgb(255,255,255)"/>
   <polyline points="65.9516,69.277  73.277,64.0484  68.0484,56.723  60.723,61.9516  65.9516,69.277 " style="fill:rgb(255,255,255)"/>
   <polyline points="259.8564,68.9921  267.9921,65.1436  264.1436,57.0079  256.0079,60.8564  259.8564,68.9921 " style="fill:rgb(255,255,255)"/>
   <polyline points="94.9342,71.3636  101.3636,65.0658  95.0658,58.6364  88.6364,64.9342  94.9342,71.3636 " style="fill:rgb(255,255,255)"/>
   <polyline points="103.9929,69.944  112.944,69.0071  112.0071,60.056  103.056,60.9929  103.9929,69.944 " style="fill:rgb(255,255,255)"/>
   <polyline points="132.9473,69.9067  141.9067,69.0527  141.0527,60.0933  132.0933,60.9473  132.9473,69.9067 " style="fill:rgb(255,255,255)"/>
   <polyline points="144.0344,69.9774  152.9774,68.9656  151.9656,60.0226  143.0226,61.0344  144.0344,69.9774 " style="fill:rgb(255,255,255)"/>
   <polyline points="155.1237,70.0472  164.0472,68.8763  162.8763,59.9528  153.9528,61.1237  155.1237,70.0472 " style="fill:rgb(255,255,255)"/>
   <polyline points="184.3853,70.2377  193.2377,68.6147  191.6147,59.7623  182.7623,61.3853  184.3853,70.2377 " style="fill:rgb(255,255,255)"/>
   <polyline points="196.5208,70.3287  205.3287,68.4792  203.4792,59.6713  194.6713,61.5208  196.5208,70.3287 " style="fill:rgb(255,255,255)"/>
   <polyline points="21.3637,66.9477  14.9477,60.6363  8.6363,67.0523  15.0523,73.3637  21.3637,66.9477 " style="fill:rgb(254,254,254)"/>
   <polyline points="52.9928,63.0539  44.0539,62.0072  43.0072,70.9461  51.9461,71.9928  52.9928,63.0539 " style="fill:rgb(255,255,255)"/>
   <polyline points="83.2784,65.9599  75.9599,60.7216  70.7216,68.0401  78.0401,73.2784  83.2784,65.9599 " style="fill:rgb(255,255,255)"/>
   <polyline points="114.1655,72.079  123.079,70.8345  121.8345,61.921  112.921,63.1655  114.1655,72.079 " style="fill:rgb(255,255,255)"/>
   <polyline points="232.286,72.7562  240.7562,69.714  237.714,61.2438  229.2438,64.286  232.286,72.7562 " style="fill:rgb(255,255,255)"/>
   <polyline points="273.5596,73.1988  281.1988,68.4404  276.4404,60.8012  268.8012,65.5596  273.5596,73.1988 " style="fill:rgb(255,255,255)"/>
   <polyline points="292.2563,73.3204  299.3204,67.7437  293.7437,60.6796  286.6796,66.2563  292.2563,73.3204 " style="fill:rgb(255,255,255)"/>
   <polyline points="28.8406,75.362  35.362,69.1594  29.1594,62.638  22.638,68.8406  28.8406,75.362 " style="fill:rgb(255,255,255)"/>
   <polyline points="249.8771,74.9994  257.9994,71.1229  254.1229,63.0006  246.0006,66.8771  249.8771,74.9994 " style="fill:rgb(255,255,255)"/>
   <polyline points="64.5838,67.9469  55.9469,65.4162  53.4162,74.0531  62.0531,76.5838  64.5838,67.9469 " style="fill:rgb(255,255,255)"/>
   <polyline points="86.0243,77.2887  93.2887,71.9757  87.9757,64.7113  80.7113,70.0243  86.0243,77.2887 " style="fill:rgb(255,255,255)"/>
   <polyline points="168.5859,76.3706  177.3706,74.4141  175.4141,65.6294  166.6294,67.5859  168.5859,76.3706 " style="fill:rgb(255,255,255)"/>
   <polyline points="213.0856,76.6574  221.6574,73.9144  218.9144,65.3426  210.3426,68.0856  213.0856,76.6574 " style="fill:rgb(255,255,255)"/>
   <polyline points="223.2913,76.7587  231.7587,73.7087  228.7087,65.2413  220.2413,68.2913  223.2913,76.7587 " style="fill:rgb(255,255,255)"/>
   <polyline points="126.0142,78.6201  134.6201,75.9858  131.9858,67.3799  123.3799,70.0142  126.0142,78.6201 " style="fill:rgb(255,255,255)"/>
   <polyline points="204.0481,78.6379  212.6379,75.9519  209.9519,67.3621  201.3621,70.0481  204.0481,78.6379 " style="fill:rgb(255,255,255)"/>
   <polyline points="263.5088,79.1868  271.1868,74.4912  266.4912,66.8132  258.8132,71.5088  263.5088,79.1868 " style="fill:rgb(255,255,255)"/>
   <polyline points="284.154,79.3075  291.3075,73.846  285.846,66.6925  278.6925,72.154  284.154,79.3075 " style="fill:rgb(255,255,255)"/>
   <polyline points="13.3639,74.9716  6.9716,68.6361  0.6361,75.0284  7.0284,81.3639  13.3639,74.9716 " style="fill:rgb(255,255,255)"/>
   <polyline points="21.7838,81.3603  28.3603,75.2162  22.2162,68.6397  15.6397,74.7838  21.7838,81.3603 " style="fill:rgb(254,254,254)"/>
   <polyline points="36.6827,80.9271  44.9271,77.3173  41.3173,69.0729  33.0729,72.6827  36.6827,80.9271 " style="fill:rgb(255,255,255)"/>
   <polyline points="98.884,81.3629  105.3629,75.116  99.116,68.6371  92.6371,74.884  98.884,81.3629 " style="fill:rgb(255,255,255)"/>
   <polyline points="137.0011,80.6131  145.6131,77.9989  142.9989,69.3869  134.3869,72.0011  137.0011,80.6131 " style="fill:rgb(255,255,255)"/>
   <polyline points="146.8659,80.5387  155.5387,78.1341  153.1341,69.4613  144.4613,71.8659  146.8659,80.5387 " style="fill:rgb(255,255,255)"/>
   <polyline points="156.8339,80.5205  165.5205,78.1661  163.1661,69.4795  154.4795,71.8339  156.8339,80.5205 " style="fill:rgb(255,255,255)"/>
   <polyline points="182.9768,80.6  191.6,78.0232  189.0232,69.4  180.4,71.9768  182.9768,80.6 " style="fill:rgb(255,255,255)"/>
   <polyline points="239.9192,81.0142  248.0142,77.0808  244.0808,68.9858  235.9858,72.9192  239.9192,81.0142 " style="fill:rgb(255,255,255)"/>
   <polyline points="66.1395,82.6849  74.6849,79.8605  71.8605,71.3151  63.3151,74.1395  66.1395,82.6849 " style="fill:rgb(255,255,255)"/>
   <polyline points="110.7956,83.3607  117.3607,77.2044  111.2044,70.6393  104.6393,76.7956  110.7956,83.3607 " style="fill:rgb(255,255,255)"/>
   <polyline points="195.1914,82.7107  203.7107,79.8086  200.8086,71.2893  192.2893,74.1914  195.1914,82.7107 " style="fill:rgb(255,255,255)"/>
   <polyline points="56.2503,75.4036  47.4036,73.7497  45.7497,82.5964  54.5964,84.2503  56.2503,75.4036 " style="fill:rgb(255,255,255)"/>
   <polyline points="230.9095,85.0108  239.0108,81.0905  235.0905,72.9892  226.9892,76.9095  230.9095,85.0108 " style="fill:rgb(255,255,255)"/>
   <polyline points="253.5071,85.1864  261.1864,80.4929  256.4929,72.8136  248.8136,77.5071  253.5071,85.1864 " style="fill:rgb(255,255,255)"/>
   <polyline points="274.0742,85.2963  281.2963,79.9258  275.9258,72.7037  268.7037,78.0742  274.0742,85.2963 " style="fill:rgb(255,255,255)"/>
   <polyline points="21.3637,80.9473  14.9473,74.6363  8.6363,81.0527  15.0527,87.3637  21.3637,80.9473 " style="fill:rgb(254,254,254)"/>
   <polyline points="29.4309,87.3385  36.3385,81.5691  30.5691,74.6615  23.6615,80.4309  29.4309,87.3385 " style="fill:rgb(255,255,255)"/>
   <polyline points="86.2603,79.8563  78.8563,74.7397  73.7397,82.1437  81.1437,87.2603  86.2603,79.8563 " style="fill:rgb(255,255,255)"/>
   <polyline points="120.5026,87.3445  127.3445,81.4974  121.4974,74.6555  114.6555,80.5026  120.5026,87.3445 " style="fill:rgb(255,255,255)"/>
   <polyline points="170.4726,86.8406  178.8406,83.5274  175.5274,75.1594  167.1594,78.4726  170.4726,86.8406 " style="fill:rgb(255,255,255)"/>
   <polyline points="214.682,86.9268  222.9268,83.318  219.318,75.0732  211.0732,78.682  214.682,86.9268 " style="fill:rgb(255,255,255)"/>
   <polyline points="290.5169,87.3456  297.3456,81.4831  291.4831,74.6544  284.6544,80.5169  290.5169,87.3456 " style="fill:rgb(255,255,255)"/>
   <polyline points="90.4188,89.3374  97.3374,83.5812  91.5812,76.6626  84.6626,82.4188  90.4188,89.3374 " style="fill:rgb(255,255,255)"/>
   <polyline points="58.2694,90.7484  66.7484,87.7306  63.7306,79.2516  55.2516,82.2694  58.2694,90.7484 " style="fill:rgb(255,255,255)"/>
   <polyline points="102.615,91.3523  109.3523,85.385  103.385,78.6477  96.6477,84.615  102.615,91.3523 " style="fill:rgb(255,255,255)"/>
   <polyline points="131.2932,91.3246  138.3246,85.7068  132.7068,78.6754  125.6754,84.2932  131.2932,91.3246 " style="fill:rgb(255,255,255)"/>
   <polyline points="142.4955,91.1836  150.1836,86.5045  145.5045,78.8164  137.8164,83.4955  142.4955,91.1836 " style="fill:rgb(255,255,255)"/>
   <polyline points="159.9469,91.0237  168.0237,87.0531  164.0531,78.9763  155.9763,82.9469  159.9469,91.0237 " style="fill:rgb(255,255,255)"/>
   <polyline points="185.8548,90.9915  193.9915,87.1452  190.1452,79.0085  182.0085,82.8548  185.8548,90.9915 " style="fill:rgb(255,255,255)"/>
   <polyline points="201.777,90.9631  209.9631,87.223  206.223,79.0369  198.0369,82.777  201.777,90.9631 " style="fill:rgb(255,255,255)"/>
   <polyline points="242.5302,91.1919  250.1919,86.4698  245.4698,78.8081  237.8081,83.5302  242.5302,91.1919 " style="fill:rgb(255,255,255)"/>
   <polyline points="263.0372,91.2907  270.2907,85.9628  264.9628,78.7093  257.7093,84.0372  263.0372,91.2907 " style="fill:rgb(255,255,255)"/>
   <polyline points="36.9589,91.9162  45.9162,91.0411  45.0411,82.0838  36.0838,82.9589  36.9589,91.9162 " style="fill:rgb(255,255,255)"/>
   <polyline points="224.2215,93.1104  232.1104,88.7785  227.7785,80.8896  219.8896,85.2215  224.2215,93.1104 " style="fill:rgb(255,255,255)"/>
   <polyline points="279.4569,93.3407  286.3407,87.5431  280.5431,80.6593  273.6593,86.4569  279.4569,93.3407 " style="fill:rgb(255,255,255)"/>
   <polyline points="13.3637,88.9479  6.9479,82.6363  0.63625,89.0521  7.0521,95.3637  13.3637,88.9479 " style="fill:rgb(255,255,255)"/>
   <polyline points="21.7034,95.357  28.357,89.2966  22.2966,82.643  15.643,88.7034  21.7034,95.357 " style="fill:rgb(254,254,254)"/>
   <polyline points="55.9559,85.0076  47.0076,84.0441  46.0441,92.9924  54.9924,93.9559  55.9559,85.0076 " style="fill:rgb(255,255,255)"/>
   <polyline points="68.6187,94.3914  77.3914,92.3813  75.3813,83.6086  66.6086,85.6187  68.6187,94.3914 " style="fill:rgb(255,255,255)"/>
   <polyline points="113.9256,95.3635  120.3635,89.0744  114.0744,82.6365  107.6365,88.9256  113.9256,95.3635 " style="fill:rgb(255,255,255)"/>
   <polyline points="177.692,95.2281  185.2281,90.308  180.308,82.7719  172.7719,87.692  177.692,95.2281 " style="fill:rgb(255,255,255)"/>
   <polyline points="84.4767,97.3424  91.3424,91.5233  85.5233,84.6576  78.6576,90.4767  84.4767,97.3424 " style="fill:rgb(255,255,255)"/>
   <polyline points="152.5738,97.3497  159.3497,91.4262  153.4262,84.6503  146.6503,90.5738  152.5738,97.3497 " style="fill:rgb(255,255,255)"/>
   <polyline points="235.7019,97.2302  243.2302,92.2981  238.2981,84.7698  230.7698,89.7019  235.7019,97.2302 " style="fill:rgb(255,255,255)"/>
   <polyline points="251.0399,97.2911  258.2911,91.9601  252.9601,84.7089  245.7089,90.0399  251.0399,97.2911 " style="fill:rgb(255,255,255)"/>
   <polyline points="124.632,99.3533  131.3533,93.368  125.368,86.6467  118.6467,92.632  124.632,99.3533 " style="fill:rgb(255,255,255)"/>
   <polyline points="137.717,99.3577  144.3577,93.283  138.283,86.6423  131.6423,92.717  137.717,99.3577 " style="fill:rgb(255,255,255)"/>
   <polyline points="168.5293,99.3465  175.3465,93.4707  169.4707,86.6535  162.6535,92.5293  168.5293,99.3465 " style="fill:rgb(255,255,255)"/>
   <polyline points="191.4674,99.1767  199.1767,94.5326  194.5326,86.8233  186.8233,91.4674  191.4674,99.1767 " style="fill:rgb(255,255,255)"/>
   <polyline points="207.3489,99.146  215.146,94.6511  210.6511,86.854  202.854,91.3489  207.3489,99.146 " style="fill:rgb(255,255,255)"/>
   <polyline points="268.4583,99.3409  275.3409,93.5417  269.5417,86.6591  262.6591,92.4583  268.4583,99.3409 " style="fill:rgb(255,255,255)"/>
   <polyline points="288.731,99.3583  295.3583,93.269  289.269,86.6417  282.6417,92.731  288.731,99.3583 " style="fill:rgb(255,255,255)"/>
   <polyline points="21.364,94.9997  14.9997,88.636  8.636,95.0003  15.0003,101.364  21.364,94.9997 " style="fill:rgb(254,254,254)"/>
   <polyline points="36.5324,90.5326  27.5326,90.4676  27.4676,99.4674  36.4674,99.5324  36.5324,90.5326 " style="fill:rgb(255,255,255)"/>
   <polyline points="57.033,99.9762  65.9762,98.967  64.967,90.0238  56.0238,91.033  57.033,99.9762 " style="fill:rgb(255,255,255)"/>
   <polyline points="94.4933,101.183  102.183,96.5067  97.5067,88.817  89.817,93.4933  94.4933,101.183 " style="fill:rgb(255,255,255)"/>
   <polyline points="108.8402,103.362  115.362,97.1598  109.1598,90.638  102.638,96.8402  108.8402,103.362 " style="fill:rgb(255,255,255)"/>
   <polyline points="183.286,103.3238  190.3238,97.714  184.714,90.6762  177.6762,96.286  183.286,103.3238 " style="fill:rgb(255,255,255)"/>
   <polyline points="218.734,103.2368  226.2368,98.266  221.266,90.7632  213.7632,95.734  218.734,103.2368 " style="fill:rgb(255,255,255)"/>
   <polyline points="244.2021,103.3137  251.3137,97.7979  245.7979,90.6863  238.6863,96.2021  244.2021,103.3137 " style="fill:rgb(255,255,255)"/>
   <polyline points="259.4637,103.3413  266.3413,97.5363  260.5363,90.6587  253.6587,96.4637  259.4637,103.3413 " style="fill:rgb(255,255,255)"/>
   <polyline points="38.9992,103.9491  47.9491,103.0008  47.0008,94.0509  38.0509,94.9992  38.9992,103.9491 " style="fill:rgb(254,254,254)"/>
   <polyline points="68.9851,104.6045  77.6045,102.0149  75.0149,93.3955  66.3955,95.9851  68.9851,104.6045 " style="fill:rgb(255,255,255)"/>
   <polyline points="157.6114,105.3521  164.3521,99.3886  158.3886,92.6479  151.6479,98.6114  157.6114,105.3521 " style="fill:rgb(255,255,255)"/>
   <polyline points="199.7449,105.239  207.239,100.2551  202.2551,92.761  194.761,97.7449  199.7449,105.239 " style="fill:rgb(255,255,255)"/>
   <polyline points="277.7509,105.3591  284.3591,99.2491  278.2491,92.6409  271.6409,98.7509  277.7509,105.3591 " style="fill:rgb(255,255,255)"/>
   <polyline points="125.2939,100.0581  118.0581,94.7061  112.7061,101.9419  119.9419,107.2939  125.2939,100.0581 " style="fill:rgb(255,255,255)"/>
   <polyline points="131.9545,107.3638  138.3638,101.0455  132.0455,94.6362  125.6362,100.9545  131.9545,107.3638 " style="fill:rgb(255,255,255)"/>
   <polyline points="151.3633,100.9084  144.9084,94.6367  138.6367,101.0916  145.0916,107.3633  151.3633,100.9084 " style="fill:rgb(254,254,254)"/>
   <polyline points="173.6743,107.3556  180.3556,101.3257  174.3257,94.6444  167.6444,100.6743  173.6743,107.3556 " style="fill:rgb(254,254,254)"/>
   <polyline points="230.1647,107.3089  237.3089,101.8353  231.8353,94.6911  224.6911,100.1647  230.1647,107.3089 " style="fill:rgb(255,255,255)"/>
   <polyline points="13.3639,102.9823  6.9823,96.6361  0.63606,103.0177  7.0177,109.3639  13.3639,102.9823 " style="fill:rgb(254,254,254)"/>
   <polyline points="28.3616,102.8269  21.8269,96.6384  15.6384,103.1731  22.1731,109.3616  28.3616,102.8269 " style="fill:rgb(255,255,255)"/>
   <polyline points="80.0689,108.6488  88.6488,105.9311  85.9311,97.3512  77.3512,100.0689  80.0689,108.6488 " style="fill:rgb(255,255,255)"/>
   <polyline points="252.608,109.3519  259.3519,103.392  253.392,96.6481  246.6481,102.608  252.608,109.3519 " style="fill:rgb(255,255,255)"/>
   <polyline points="291.9081,109.3633  298.3633,103.0919  292.0919,96.6367  285.6367,102.9081  291.9081,109.3633 " style="fill:rgb(255,255,255)"/>
   <polyline points="57.5239,100.524  48.524,100.4761  48.4761,109.476  57.476,109.5239  57.5239,100.524 " style="fill:rgb(255,255,255)"/>
   <polyline points="99.5197,111.3458  106.3458,105.4803  100.4803,98.6542  93.6542,104.5197  99.5197,111.3458 " style="fill:rgb(255,255,255)"/>
   <polyline points="189.2519,111.3198  196.3198,105.7481  190.7481,98.6802  183.6802,104.2519  189.2519,111.3198 " style="fill:rgb(255,255,255)"/>
   <polyline points="208.1099,111.3014  215.3014,105.8901  209.8901,98.6986  202.6986,104.1099  208.1099,111.3014 " style="fill:rgb(255,255,255)"/>
   <polyline points="265.8019,111.3609  272.3609,105.1981  266.1981,98.6391  259.6391,104.8019  265.8019,111.3609 " style="fill:rgb(255,255,255)"/>
   <polyline points="37.3524,106.6169  30.6169,100.6476  24.6476,107.3831  31.3831,113.3524  37.3524,106.6169 " style="fill:rgb(255,255,255)"/>
   <polyline points="63.8925,113.3631  70.3631,107.1075  64.1075,100.6369  57.6369,106.8925  63.8925,113.3631 " style="fill:rgb(254,254,254)"/>
   <polyline points="162.6769,112.9248  170.9248,109.3231  167.3231,101.0752  159.0752,104.6769  162.6769,112.9248 " style="fill:rgb(255,255,255)"/>
   <polyline points="222.3838,113.3341  229.3341,107.6162  223.6162,100.6659  216.6659,106.3838  222.3838,113.3341 " style="fill:rgb(255,255,255)"/>
   <polyline points="238.6067,113.3518  245.3518,107.3933  239.3933,100.6482  232.6482,106.6067  238.6067,113.3518 " style="fill:rgb(255,255,255)"/>
   <polyline points="14.9341,115.3636  21.3636,109.0659  15.0659,102.6364  8.6364,108.9341  14.9341,115.3636 " style="fill:rgb(254,254,254)"/>
   <polyline points="109.9987,115.364  116.364,109.0013  110.0013,102.636  103.636,108.9987  109.9987,115.364 " style="fill:rgb(255,255,255)"/>
   <polyline points="124.5562,115.3485  131.3485,109.4438  125.4438,102.6515  118.6515,108.5562  124.5562,115.3485 " style="fill:rgb(255,255,255)"/>
   <polyline points="138.4886,115.3434  145.3434,109.5114  139.5114,102.6566  132.6566,108.4886  138.4886,115.3434 " style="fill:rgb(255,255,255)"/>
   <polyline points="149.8545,115.26  157.26,110.1455  152.1455,102.74  144.74,107.8545  149.8545,115.26 " style="fill:rgb(255,255,255)"/>
   <polyline points="179.3635,115.3321  186.3321,109.6365  180.6365,102.6679  173.6679,108.3635  179.3635,115.3321 " style="fill:rgb(255,255,255)"/>
   <polyline points="281.9484,115.3638  288.3638,109.0516  282.0516,102.6362  275.6362,108.9484  281.9484,115.3638 " style="fill:rgb(255,255,255)"/>
   <polyline points="40.9041,117.3632  47.3632,111.0959  41.0959,104.6368  34.6368,110.9041  40.9041,117.3632 " style="fill:rgb(255,255,255)"/>
   <polyline points="73.2736,117.3224  80.3224,111.7264  74.7264,104.6776  67.6776,110.2736  73.2736,117.3224 " style="fill:rgb(254,254,254)"/>
   <polyline points="89.7613,117.3595  96.3595,111.2387  90.2387,104.6405  83.6405,110.7613  89.7613,117.3595 " style="fill:rgb(254,254,254)"/>
   <polyline points="200.4114,117.3367  207.3367,111.5886  201.5886,104.6633  194.6633,110.4114  200.4114,117.3367 " style="fill:rgb(255,255,255)"/>
   <polyline points="258.9078,117.3633  265.3633,111.0922  259.0922,104.6367  252.6367,110.9078  258.9078,117.3633 " style="fill:rgb(255,255,255)"/>
   <polyline points="214.607,119.3518  221.3518,113.393  215.393,106.6482  208.6482,112.607  214.607,119.3518 " style="fill:rgb(255,255,255)"/>
   <polyline points="231.7919,119.3606  238.3606,113.2081  232.2081,106.6394  225.6394,112.7919  231.7919,119.3606 " style="fill:rgb(255,255,255)"/>
   <polyline points="246.8996,119.3632  253.3632,113.1004  247.1004,106.6368  240.6368,112.8996  246.8996,119.3632 " style="fill:rgb(255,255,255)"/>
   <polyline points="271.973,119.3639  278.3639,113.027  272.027,106.6361  265.6361,112.973  271.973,119.3639 " style="fill:rgb(255,255,255)"/>
   <polyline points="31.3546,114.6552  24.6552,108.6454  18.6454,115.3448  25.3448,121.3546  31.3546,114.6552 " style="fill:rgb(255,255,255)"/>
   <polyline points="59.3958,111.6258  50.6258,109.6042  48.6042,118.3742  57.3742,120.3958  59.3958,111.6258 " style="fill:rgb(255,255,255)"/>
   <polyline points="171.8618,121.3625  178.3625,115.1382  172.1382,108.6375  165.6375,114.8618  171.8618,121.3625 " style="fill:rgb(255,255,255)"/>
   <polyline points="288.9965,121.364  295.364,115.0035  289.0035,108.636  282.636,114.9965  288.9965,121.364 " style="fill:rgb(255,255,255)"/>
   <polyline points="13.364,116.9991  6.9991,110.636  0.63604,117.0009  7.0009,123.364  13.364,116.9991 " style="fill:rgb(255,255,255)"/>
   <polyline points="81.3182,123.3273  88.3273,117.6818  82.6818,110.6727  75.6727,116.3182  81.3182,123.3273 " style="fill:rgb(255,255,255)"/>
   <polyline points="97.9797,123.3639  104.3639,117.0203  98.0203,110.6361  91.6361,116.9797  97.9797,123.3639 " style="fill:rgb(255,255,255)"/>
   <polyline points="114.9999,123.364  121.364,117.0001  115.0001,110.636  108.636,116.9999  114.9999,123.364 " style="fill:rgb(255,255,255)"/>
   <polyline points="129.9999,123.364  136.364,117.0001  130.0001,110.636  123.636,116.9999  129.9999,123.364 " style="fill:rgb(255,255,255)"/>
   <polyline points="144.9969,123.364  151.364,117.0031  145.0031,110.636  138.636,116.9969  144.9969,123.364 " style="fill:rgb(255,255,255)"/>
   <polyline points="157.7843,123.3603  164.3603,117.2157  158.2157,110.6397  151.6397,116.7843  157.7843,123.3603 " style="fill:rgb(255,255,255)"/>
   <polyline points="184.7653,123.3596  191.3596,117.2347  185.2347,110.6404  178.6404,116.7653  184.7653,123.3596 " style="fill:rgb(255,255,255)"/>
   <polyline points="64.2266,125.3168  71.3168,119.7734  65.7734,112.6832  58.6832,118.2266  64.2266,125.3168 " style="fill:rgb(254,254,254)"/>
   <polyline points="205.7869,125.3604  212.3604,119.2131  206.2131,112.6396  199.6396,118.7869  205.7869,125.3604 " style="fill:rgb(255,255,255)"/>
   <polyline points="224.9393,125.3637  231.3637,119.0607  225.0607,112.6363  218.6363,118.9393  224.9393,125.3637 " style="fill:rgb(255,255,255)"/>
   <polyline points="239.9894,125.364  246.364,119.0106  240.0106,112.636  233.636,118.9894  239.9894,125.364 " style="fill:rgb(255,255,255)"/>
   <polyline points="264.9999,125.364  271.364,119.0001  265.0001,112.636  258.636,118.9999  264.9999,125.364 " style="fill:rgb(255,255,255)"/>
   <polyline points="16.9934,127.364  23.364,121.0066  17.0066,114.636  10.636,120.9934  16.9934,127.364 " style="fill:rgb(255,255,255)"/>
   <polyline points="39.8861,118.5806  31.5806,115.1139  28.1139,123.4194  36.4194,126.8861  39.8861,118.5806 " style="fill:rgb(254,254,254)"/>
   <polyline points="193.7887,127.3605  200.3605,121.2113  194.2113,114.6395  187.6395,120.7887  193.7887,127.3605 " style="fill:rgb(255,255,255)"/>
   <polyline points="252.9965,127.364  259.364,121.0035  253.0035,114.636  246.636,120.9965  252.9965,127.364 " style="fill:rgb(255,255,255)"/>
   <polyline points="277.9924,127.364  284.364,121.0076  278.0076,114.636  271.636,120.9924  277.9924,127.364 " style="fill:rgb(255,255,255)"/>
   <polyline points="41.7835,128.4913  50.4913,126.2165  48.2165,117.5087  39.5087,119.7835  41.7835,128.4913 " style="fill:rgb(254,254,254)"/>
   <polyline points="74.4734,129.3421  81.3421,123.5266  75.5266,116.6579  68.6579,122.4734  74.4734,129.3421 " style="fill:rgb(255,255,255)"/>
   <polyline points="90.8537,129.3623  97.3623,123.1463  91.1463,116.6377  84.6377,122.8537  90.8537,129.3623 " style="fill:rgb(255,255,255)"/>
   <polyline points="105.9981,129.364  112.364,123.0019  106.0019,116.636  99.636,122.9981  105.9981,129.364 " style="fill:rgb(255,255,255)"/>
   <polyline points="136.8266,129.3616  143.3616,123.1734  137.1734,116.6384  130.6384,122.8266  136.8266,129.3616 " style="fill:rgb(255,255,255)"/>
   <polyline points="172.2198,121.6533  164.6533,116.7802  159.7802,124.3467  167.3467,129.2198  172.2198,121.6533 " style="fill:rgb(255,255,255)"/>
   <polyline points="177.9962,129.364  184.364,123.0038  178.0038,116.636  171.636,122.9962  177.9962,129.364 " style="fill:rgb(255,255,255)"/>
   <polyline points="127.3606,124.794  120.794,118.6394  114.6394,125.206  121.206,131.3606  127.3606,124.794 " style="fill:rgb(254,254,254)"/>
   <polyline points="149.8641,131.3625  156.3625,125.1359  150.1359,118.6375  143.6375,124.8641  149.8641,131.3625 " style="fill:rgb(254,254,254)"/>
   <polyline points="212.9938,131.364  219.364,125.0062  213.0062,118.636  206.636,124.9938  212.9938,131.364 " style="fill:rgb(255,255,255)"/>
   <polyline points="291.9728,131.3639  298.3639,125.0272  292.0272,118.6361  285.6361,124.9728  291.9728,131.3639 " style="fill:rgb(255,255,255)"/>
   <polyline points="52.8,131.7812  61.7812,131.2  61.2,122.2188  52.2188,122.8  52.8,131.7812 " style="fill:rgb(255,255,255)"/>
   <polyline points="229.9338,133.3636  236.3636,127.0662  230.0662,120.6364  223.6364,126.9338  229.9338,133.3636 " style="fill:rgb(255,255,255)"/>
   <polyline points="244.896,133.3631  251.3631,127.104  245.104,120.6369  238.6369,126.896  244.896,133.3631 " style="fill:rgb(255,255,255)"/>
   <polyline points="259.9004,133.3632  266.3632,127.0996  260.0996,120.6368  253.6368,126.9004  259.9004,133.3632 " style="fill:rgb(255,255,255)"/>
   <polyline points="15.3639,128.974  8.974,122.6361  2.6361,129.026  9.026,135.3639  15.3639,128.974 " style="fill:rgb(254,254,254)"/>
   <polyline points="30.3375,128.4207  23.4207,122.6625  17.6625,129.5793  24.5793,135.3375  30.3375,128.4207 " style="fill:rgb(255,255,255)"/>
   <polyline points="185.8921,135.363  192.363,129.1079  186.1079,122.637  179.637,128.8921  185.8921,135.363 " style="fill:rgb(255,255,255)"/>
   <polyline points="198.9856,135.3639  205.3639,129.0144  199.0144,122.6361  192.6361,128.9856  198.9856,135.3639 " style="fill:rgb(255,255,255)"/>
   <polyline points="271.8783,135.3628  278.3628,129.1217  272.1217,122.6372  265.6372,128.8783  271.8783,135.3628 " style="fill:rgb(255,255,255)"/>
   <polyline points="79.8373,137.2568  87.2568,132.1627  82.1627,124.7432  74.7432,129.8373  79.8373,137.2568 " style="fill:rgb(254,254,254)"/>
   <polyline points="95.8358,137.3618  102.3618,131.1642  96.1642,124.6382  89.6382,130.8358  95.8358,137.3618 " style="fill:rgb(254,254,254)"/>
   <polyline points="110.9387,137.3637  117.3637,131.0613  111.0613,124.6363  104.6363,130.9387  110.9387,137.3637 " style="fill:rgb(255,255,255)"/>
   <polyline points="129.5976,137.3512  136.3512,131.4024  130.4024,124.6488  123.6488,130.5976  129.5976,137.3512 " style="fill:rgb(255,255,255)"/>
   <polyline points="157.455,137.3406  164.3406,131.545  158.545,124.6594  151.6594,130.455  157.455,137.3406 " style="fill:rgb(255,255,255)"/>
   <polyline points="219.8279,137.3616  226.3616,131.1721  220.1721,124.6384  213.6384,130.8279  219.8279,137.3616 " style="fill:rgb(255,255,255)"/>
   <polyline points="282.8779,137.3628  289.3628,131.1221  283.1221,124.6372  276.6372,130.8779  282.8779,137.3628 " style="fill:rgb(255,255,255)"/>
   <polyline points="39.364,132.9884  32.9884,126.636  26.636,133.0116  33.0116,139.364  39.364,132.9884 " style="fill:rgb(254,254,254)"/>
   <polyline points="65.6093,138.8979  73.8979,135.3907  70.3907,127.1021  62.1021,130.6093  65.6093,138.8979 " style="fill:rgb(255,255,255)"/>
   <polyline points="142.5197,139.1894  150.1894,134.4803  145.4803,126.8106  137.8106,131.5197  142.5197,139.1894 " style="fill:rgb(255,255,255)"/>
   <polyline points="170.3469,139.1455  178.1455,134.6531  173.6531,126.8545  165.8545,131.3469  170.3469,139.1455 " style="fill:rgb(255,255,255)"/>
   <polyline points="207.8902,139.363  214.363,133.1098  208.1098,126.637  201.637,132.8902  207.8902,139.363 " style="fill:rgb(255,255,255)"/>
   <polyline points="51.1548,133.3819  43.3819,128.8452  38.8452,136.6181  46.6181,141.1548  51.1548,133.3819 " style="fill:rgb(255,255,255)"/>
   <polyline points="234.4277,141.3382  241.3382,135.5723  235.5723,128.6618  228.6618,134.4277  234.4277,141.3382 " style="fill:rgb(255,255,255)"/>
   <polyline points="250.5197,141.3458  257.3458,135.4803  251.4803,128.6542  244.6542,134.5197  250.5197,141.3458 " style="fill:rgb(255,255,255)"/>
   <polyline points="264.6443,141.354  271.354,135.3557  265.3557,128.646  258.646,134.6443  264.6443,141.354 " style="fill:rgb(255,255,255)"/>
   <polyline points="14.8889,143.363  21.363,137.1111  15.1111,130.637  8.637,136.8889  14.8889,143.363 " style="fill:rgb(254,254,254)"/>
   <polyline points="60.9984,133.0609  52.0609,132.0016  51.0016,140.9391  59.9391,141.9984  60.9984,133.0609 " style="fill:rgb(254,254,254)"/>
   <polyline points="102.9617,143.3638  109.3638,137.0383  103.0383,130.6362  96.6362,136.9617  102.9617,143.3638 " style="fill:rgb(255,255,255)"/>
   <polyline points="117.8578,143.3624  124.3624,137.1422  118.1422,130.6376  111.6376,136.8578  117.8578,143.3624 " style="fill:rgb(255,255,255)"/>
   <polyline points="190.9978,143.364  197.364,137.0022  191.0022,130.636  184.636,136.9978  190.9978,143.364 " style="fill:rgb(255,255,255)"/>
   <polyline points="289.805,143.361  296.361,137.195  290.195,130.639  283.639,136.805  289.805,143.361 " style="fill:rgb(255,255,255)"/>
   <polyline points="87,145.364  93.364,139  87,132.636  80.636,139  87,145.364 " style="fill:rgb(255,255,255)"/>
   <polyline points="135.707,145.3572  142.3572,139.293  136.293,132.6428  129.6428,138.707  135.707,145.3572 " style="fill:rgb(255,255,255)"/>
   <polyline points="162.6062,145.3518  169.3518,139.3938  163.3938,132.6482  156.6482,138.6062  162.6062,145.3518 " style="fill:rgb(255,255,255)"/>
   <polyline points="224.9952,145.2841  232.2841,140.0048  227.0048,132.7159  219.7159,137.9952  224.9952,145.2841 " style="fill:rgb(255,255,255)"/>
   <polyline points="274.5964,145.3511  281.3511,139.4036  275.4036,132.6489  268.6489,138.5964  274.5964,145.3511 " style="fill:rgb(255,255,255)"/>
   <polyline points="33.3598,140.7702  26.7702,134.6402  20.6402,141.2298  27.2298,147.3598  33.3598,140.7702 " style="fill:rgb(255,255,255)"/>
   <polyline points="71.64,146.9102  79.9102,143.36  76.36,135.0898  68.0898,138.64  71.64,146.9102 " style="fill:rgb(255,255,255)"/>
   <polyline points="149.9847,147.3639  156.3639,141.0153  150.0153,134.6361  143.6361,140.9847  149.9847,147.3639 " style="fill:rgb(255,255,255)"/>
   <polyline points="178.9582,147.3638  185.3638,141.0418  179.0418,134.6362  172.6362,140.9582  178.9582,147.3638 " style="fill:rgb(255,255,255)"/>
   <polyline points="201.4051,147.3361  208.3361,141.5949  202.5949,134.6639  195.6639,140.4051  201.4051,147.3361 " style="fill:rgb(255,255,255)"/>
   <polyline points="212.8448,147.2582  220.2582,142.1552  215.1552,134.7418  207.7418,139.8448  212.8448,147.2582 " style="fill:rgb(255,255,255)"/>
   <polyline points="241.9492,147.2766  249.2766,142.0508  244.0508,134.7234  236.7234,139.9492  241.9492,147.2766 " style="fill:rgb(255,255,255)"/>
   <polyline points="13.3639,142.9849  6.9849,136.6361  0.63606,143.0151  7.0151,149.3639  13.3639,142.9849 " style="fill:rgb(255,255,255)"/>
   <polyline points="109.9365,149.3636  116.3636,143.0635  110.0635,136.6364  103.6364,142.9365  109.9365,149.3636 " style="fill:rgb(255,255,255)"/>
   <polyline points="124.8261,149.3616  131.3616,143.1739  125.1739,136.6384  118.6384,142.8261  124.8261,149.3616 " style="fill:rgb(255,255,255)"/>
   <polyline points="255.0516,149.2929  262.2929,143.9484  256.9484,136.7071  249.7071,142.0516  255.0516,149.2929 " style="fill:rgb(255,255,255)"/>
   <polyline points="42.6299,142.0328  34.0328,139.3701  31.3701,147.9672  39.9672,150.6299  42.6299,142.0328 " style="fill:rgb(254,254,254)"/>
   <polyline points="63.7237,151.2347  71.2347,146.2763  66.2763,138.7653  58.7653,143.7237  63.7237,151.2347 " style="fill:rgb(255,255,255)"/>
   <polyline points="93.892,151.363  100.363,145.108  94.108,138.637  87.637,144.892  93.892,151.363 " style="fill:rgb(255,255,255)"/>
   <polyline points="282.5127,151.3453  289.3453,145.4873  283.4873,138.6547  276.6547,144.5127  282.5127,151.3453 " style="fill:rgb(255,255,255)"/>
   <polyline points="48.8794,153.3628  55.3628,147.1206  49.1206,140.6372  42.6372,146.8794  48.8794,153.3628 " style="fill:rgb(255,255,255)"/>
   <polyline points="174.3639,146.981  167.981,140.6361  161.6361,147.019  168.019,153.3639  174.3639,146.981 " style="fill:rgb(255,255,255)"/>
   <polyline points="186.852,153.3622  193.3622,147.148  187.148,140.6378  180.6378,146.852  186.852,153.3622 " style="fill:rgb(255,255,255)"/>
   <polyline points="230.036,153.0533  238.0533,148.964  233.964,140.9467  225.9467,145.036  230.036,153.0533 " style="fill:rgb(255,255,255)"/>
   <polyline points="265.0416,153.2914  272.2914,147.9584  266.9584,140.7086  259.7086,146.0416  265.0416,153.2914 " style="fill:rgb(255,255,255)"/>
   <polyline points="16.9331,155.3636  23.3636,149.0669  17.0669,142.6364  10.6364,148.9331  16.9331,155.3636 " style="fill:rgb(255,255,255)"/>
   <polyline points="81.9539,155.3638  88.3638,149.0461  82.0461,142.6362  75.6362,148.9539  81.9539,155.3638 " style="fill:rgb(254,254,254)"/>
   <polyline points="137.8262,155.2548  145.2548,150.1738  140.1738,142.7452  132.7452,147.8262  137.8262,155.2548 " style="fill:rgb(255,255,255)"/>
   <polyline points="155.7976,155.3607  162.3607,149.2024  156.2024,142.6393  149.6393,148.7976  155.7976,155.3607 " style="fill:rgb(255,255,255)"/>
   <polyline points="292.5862,155.3505  299.3505,149.4138  293.4138,142.6495  286.6495,148.5862  292.5862,155.3505 " style="fill:rgb(255,255,255)"/>
   <polyline points="100.9996,157.364  107.364,151.0004  101.0004,144.636  94.636,150.9996  100.9996,157.364 " style="fill:rgb(255,255,255)"/>
   <polyline points="115.4694,157.3418  122.3418,151.5306  116.5306,144.6582  109.6582,150.4694  115.4694,157.3418 " style="fill:rgb(255,255,255)"/>
   <polyline points="203.0491,156.6385  211.6385,153.9509  208.9509,145.3615  200.3615,148.0491  203.0491,156.6385 " style="fill:rgb(255,255,255)"/>
   <polyline points="213.0507,156.6393  221.6393,153.9493  218.9493,145.3607  210.3607,148.0507  213.0507,156.6393 " style="fill:rgb(255,255,255)"/>
   <polyline points="244.0898,157.0705  252.0705,152.9102  247.9102,144.9295  239.9295,149.0898  244.0898,157.0705 " style="fill:rgb(255,255,255)"/>
   <polyline points="32.9478,150.7364  24.7364,147.0522  21.0522,155.2636  29.2636,158.9478  32.9478,150.7364 " style="fill:rgb(255,255,255)"/>
   <polyline points="56.1471,159.3065  63.3065,153.8529  57.8529,146.6935  50.6935,152.1471  56.1471,159.3065 " style="fill:rgb(255,255,255)"/>
   <polyline points="129.4462,159.3398  136.3398,153.5538  130.5538,146.6602  123.6602,152.4462  129.4462,159.3398 " style="fill:rgb(255,255,255)"/>
   <polyline points="179.946,159.3637  186.3637,153.054  180.054,146.6363  173.6363,152.946  179.946,159.3637 " style="fill:rgb(255,255,255)"/>
   <polyline points="194.1416,158.6859  202.6859,155.8584  199.8584,147.3141  191.3141,150.1416  194.1416,158.6859 " style="fill:rgb(255,255,255)"/>
   <polyline points="273.9942,159.284  281.284,154.0058  276.0058,146.716  268.716,151.9942  273.9942,159.284 " style="fill:rgb(255,255,255)"/>
   <polyline points="15.3639,154.9716  8.9716,148.6361  2.6361,155.0284  9.0284,161.3639  15.3639,154.9716 " style="fill:rgb(254,254,254)"/>
   <polyline points="42.9891,151.0492  34.0492,150.0109  33.0109,158.9508  41.9508,159.9891  42.9891,151.0492 " style="fill:rgb(255,255,255)"/>
   <polyline points="65.7057,160.445  74.445,158.2943  72.2943,149.555  63.555,151.7057  65.7057,160.445 " style="fill:rgb(254,254,254)"/>
   <polyline points="257.2882,161.1294  265.1294,156.7118  260.7118,148.8706  252.8706,153.2882  257.2882,161.1294 " style="fill:rgb(255,255,255)"/>
   <polyline points="86.9555,163.3638  93.3638,157.0445  87.0445,150.6362  80.6362,156.9555  86.9555,163.3638 " style="fill:rgb(255,255,255)"/>
   <polyline points="143.2493,162.7388  151.7388,159.7507  148.7507,151.2612  140.2612,154.2493  143.2493,162.7388 " style="fill:rgb(255,255,255)"/>
   <polyline points="231.0097,162.6177  239.6177,159.9903  236.9903,151.3823  228.3823,154.0097  231.0097,162.6177 " style="fill:rgb(255,255,255)"/>
   <polyline points="285.19,163.3122  292.3122,157.81  286.81,150.6878  279.6878,156.19  285.19,163.3122 " style="fill:rgb(255,255,255)"/>
   <polyline points="106.6989,165.3568  113.3568,159.3011  107.3011,152.6432  100.6432,158.6989  106.6989,165.3568 " style="fill:rgb(255,255,255)"/>
   <polyline points="121.0947,165.2992  128.2992,159.9053  122.9053,152.7008  115.7008,158.0947  121.0947,165.2992 " style="fill:rgb(255,255,255)"/>
   <polyline points="157.3329,165.1417  165.1417,160.6671  160.6671,152.8583  152.8583,157.3329  157.3329,165.1417 " style="fill:rgb(255,255,255)"/>
   <polyline points="219.2885,164.1696  228.1696,162.7115  226.7115,153.8304  217.8304,155.2885  219.2885,164.1696 " style="fill:rgb(255,255,255)"/>
   <polyline points="17.9158,167.2709  25.2709,162.0842  20.0842,154.7291  12.7291,159.9158  17.9158,167.2709 " style="fill:rgb(255,255,255)"/>
   <polyline points="54.3312,160.3553  47.3553,154.6688  41.6688,161.6447  48.6447,167.3312  54.3312,160.3553 " style="fill:rgb(255,255,255)"/>
   <polyline points="95.7884,167.3604  102.3604,161.2116  96.2116,154.6396  89.6396,160.7884  95.7884,167.3604 " style="fill:rgb(254,254,254)"/>
   <polyline points="133.9865,167.2827  141.2827,162.0135  136.0135,154.7173  128.7173,159.9865  133.9865,167.2827 " style="fill:rgb(255,255,255)"/>
   <polyline points="165.9281,165.8907  174.8907,165.0719  174.0719,156.1093  165.1093,156.9281  165.9281,165.8907 " style="fill:rgb(255,255,255)"/>
   <polyline points="244.3098,166.7674  252.7674,163.6902  249.6902,155.2326  241.2326,158.3098  244.3098,166.7674 " style="fill:rgb(255,255,255)"/>
   <polyline points="265.2524,167.1193  273.1193,162.7476  268.7476,154.8807  260.8807,159.2524  265.2524,167.1193 " style="fill:rgb(255,255,255)"/>
   <polyline points="75.983,169.2822  83.2822,164.017  78.017,156.7178  70.7178,161.983  75.983,169.2822 " style="fill:rgb(255,255,255)"/>
   <polyline points="190.6058,158.6084  181.6084,158.3942  181.3942,167.3916  190.3916,167.6058  190.6058,158.6084 " style="fill:rgb(255,255,255)"/>
   <polyline points="206.0621,159.1431  197.1431,157.9379  195.9379,166.8569  204.8569,168.0621  206.0621,159.1431 " style="fill:rgb(255,255,255)"/>
   <polyline points="216.6103,158.613  207.613,158.3897  207.3897,167.387  216.387,167.6103  216.6103,158.613 " style="fill:rgb(255,255,255)"/>
   <polyline points="292.2553,169.3202  299.3202,163.7447  293.7447,156.6798  286.6798,162.2553  292.2553,169.3202 " style="fill:rgb(255,255,255)"/>
   <polyline points="37.364,164.9924  30.9924,158.636  24.636,165.0076  31.0076,171.364  37.364,164.9924 " style="fill:rgb(255,255,255)"/>
   <polyline points="55.7089,169.6996  64.6996,169.2911  64.2911,160.3004  55.3004,160.7089  55.7089,169.6996 " style="fill:rgb(255,255,255)"/>
   <polyline points="277.5987,171.2078  285.2078,166.4013  280.4013,158.7922  272.7922,163.5987  277.5987,171.2078 " style="fill:rgb(255,255,255)"/>
   <polyline points="13.363,166.891  6.891,160.637  0.63697,167.109  7.109,173.363  13.363,166.891 " style="fill:rgb(255,255,255)"/>
   <polyline points="111.4874,173.3433  118.3433,167.5126  112.5126,160.6567  105.6567,166.4874  111.4874,173.3433 " style="fill:rgb(255,255,255)"/>
   <polyline points="143.0333,172.6301  151.6301,169.9667  148.9667,161.3699  140.3699,164.0333  143.0333,172.6301 " style="fill:rgb(255,255,255)"/>
   <polyline points="230.2513,172.1427  239.1427,170.7487  237.7487,161.8573  228.8573,163.2513  230.2513,172.1427 " style="fill:rgb(255,255,255)"/>
   <polyline points="255.4523,172.8317  263.8317,169.5477  260.5477,161.1683  252.1683,164.4523  255.4523,172.8317 " style="fill:rgb(255,255,255)"/>
   <polyline points="84.8666,175.3626  91.3626,169.1334  85.1334,162.6374  78.6374,168.8666  84.8666,175.3626 " style="fill:rgb(255,255,255)"/>
   <polyline points="124.5788,175.2032  132.2032,170.4212  127.4212,162.7968  119.7968,167.5788  124.5788,175.2032 " style="fill:rgb(255,255,255)"/>
   <polyline points="217.5219,173.5218  226.5218,173.4781  226.4781,164.4782  217.4782,164.5219  217.5219,173.5218 " style="fill:rgb(255,255,255)"/>
   <polyline points="29.3614,170.8195  22.8195,164.6386  16.6386,171.1805  23.1805,177.3614  29.3614,170.8195 " style="fill:rgb(255,255,255)"/>
   <polyline points="45.6965,168.1627  37.1627,165.3035  34.3035,173.8373  42.8373,176.6965  45.6965,168.1627 " style="fill:rgb(254,254,254)"/>
   <polyline points="99.365,177.3322  106.3322,171.635  100.635,164.6678  93.6678,170.365  99.365,177.3322 " style="fill:rgb(255,255,255)"/>
   <polyline points="155.9859,177.0368  164.0368,173.0141  160.0141,164.9632  151.9632,168.9859  155.9859,177.0368 " style="fill:rgb(255,255,255)"/>
   <polyline points="178.1388,167.246  169.246,165.8612  167.8612,174.754  176.754,176.1388  178.1388,167.246 " style="fill:rgb(255,255,255)"/>
   <polyline points="243.6727,176.4249  252.4249,174.3273  250.3273,165.5751  241.5751,167.6727  243.6727,176.4249 " style="fill:rgb(255,255,255)"/>
   <polyline points="268.8844,177.002  277.002,173.1156  273.1156,164.998  264.998,168.8844  268.8844,177.002 " style="fill:rgb(255,255,255)"/>
   <polyline points="285.7549,177.241  293.241,172.2451  288.2451,164.759  280.759,169.7549  285.7549,177.241 " style="fill:rgb(255,255,255)"/>
   <polyline points="48.5461,178.8718  56.8718,175.4539  53.4539,167.1282  45.1282,170.5461  48.5461,178.8718 " style="fill:rgb(254,254,254)"/>
   <polyline points="66.0776,178.6533  74.6533,175.9224  71.9224,167.3467  63.3467,170.0776  66.0776,178.6533 " style="fill:rgb(254,254,254)"/>
   <polyline points="198.9993,170.8768  190.8768,167.0007  187.0007,175.1232  195.1232,178.9993  198.9993,170.8768 " style="fill:rgb(255,255,255)"/>
   <polyline points="214.319,169.506  205.506,167.681  203.681,176.494  212.494,178.319  214.319,169.506 " style="fill:rgb(255,255,255)"/>
   <polyline points="133.116,181.0787  141.0787,176.884  136.884,168.9213  128.9213,173.116  133.116,181.0787 " style="fill:rgb(255,255,255)"/>
   <polyline points="17.3453,176.5124  10.5124,170.6547  4.6547,177.4876  11.4876,183.3453  17.3453,176.5124 " style="fill:rgb(254,254,254)"/>
   <polyline points="90.7118,183.3574  97.3574,177.2882  91.2882,170.6426  84.6426,176.7118  90.7118,183.3574 " style="fill:rgb(255,255,255)"/>
   <polyline points="107.2187,183.3158  114.3158,177.7813  108.7813,170.6842  101.6842,176.2187  107.2187,183.3158 " style="fill:rgb(255,255,255)"/>
   <polyline points="144.7707,181.7553  153.7553,181.2293  153.2293,172.2447  144.2447,172.7707  144.7707,181.7553 " style="fill:rgb(255,255,255)"/>
   <polyline points="188.3209,176.2607  181.2607,170.6791  175.6791,177.7393  182.7393,183.3209  188.3209,176.2607 " style="fill:rgb(255,255,255)"/>
   <polyline points="227.7079,181.6987  236.6987,181.2921  236.2921,172.3013  227.3013,172.7079  227.7079,181.6987 " style="fill:rgb(255,255,255)"/>
   <polyline points="255.9202,182.5691  264.5691,180.0798  262.0798,171.4309  253.4309,173.9202  255.9202,182.5691 " style="fill:rgb(255,255,255)"/>
   <polyline points="36.9908,176.853  28.853,173.0092  25.0092,181.147  33.147,184.9908  36.9908,176.853 " style="fill:rgb(255,255,255)"/>
   <polyline points="223.9402,174.9882  214.9882,174.0598  214.0598,183.0118  223.0118,183.9402  223.9402,174.9882 " style="fill:rgb(255,255,255)"/>
   <polyline points="273.7019,184.9345  281.9345,181.2981  278.2981,173.0655  270.0655,176.7019  273.7019,184.9345 " style="fill:rgb(255,255,255)"/>
   <polyline points="290.7789,185.2457  298.2457,180.2211  293.2211,172.7543  285.7543,177.7789  290.7789,185.2457 " style="fill:rgb(255,255,255)"/>
   <polyline points="56.6929,185.685  65.685,185.3071  65.3071,176.315  56.315,176.6929  56.6929,185.685 " style="fill:rgb(255,255,255)"/>
   <polyline points="74.0814,187.0679  82.0679,182.9186  77.9186,174.9321  69.9321,179.0814  74.0814,187.0679 " style="fill:rgb(255,255,255)"/>
   <polyline points="117.5129,186.8579  125.8579,183.4871  122.4871,175.1421  114.1421,178.5129  117.5129,186.8579 " style="fill:rgb(255,255,255)"/>
   <polyline points="170.2364,179.732  162.732,174.7636  157.7636,182.268  165.268,187.2364  170.2364,179.732 " style="fill:rgb(255,255,255)"/>
   <polyline points="206.8654,178.5308  198.5308,175.1346  195.1346,183.4692  203.4692,186.8654  206.8654,178.5308 " style="fill:rgb(255,255,255)"/>
   <polyline points="241.122,186.0459  250.0459,184.878  248.878,175.9541  239.9541,177.122  241.122,186.0459 " style="fill:rgb(255,255,255)"/>
   <polyline points="39.2109,188.113  48.113,186.7891  46.7891,177.887  37.887,179.2109  39.2109,188.113 " style="fill:rgb(255,255,255)"/>
   <polyline points="99.1551,189.3076  106.3076,183.8449  100.8449,176.6924  93.6924,182.1551  99.1551,189.3076 " style="fill:rgb(255,255,255)"/>
   <polyline points="195.2946,182.0632  188.0632,176.7054  182.7054,183.9368  189.9368,189.2946  195.2946,182.0632 " style="fill:rgb(255,255,255)"/>
   <polyline points="16.654,191.3546  23.3546,185.346  17.346,178.6454  10.6454,184.654  16.654,191.3546 " style="fill:rgb(255,255,255)"/>
   <polyline points="132.7379,190.4643  141.4643,188.2621  139.2621,179.5357  130.5357,181.7379  132.7379,190.4643 " style="fill:rgb(255,255,255)"/>
   <polyline points="180.3633,184.9064  173.9064,178.6367  167.6367,185.0936  174.0936,191.3633  180.3633,184.9064 " style="fill:rgb(255,255,255)"/>
   <polyline points="261.7171,190.4518  270.4518,188.2829  268.2829,179.5482  259.5482,181.7171  261.7171,190.4518 " style="fill:rgb(255,255,255)"/>
   <polyline points="82.4249,192.8197  90.8197,189.5751  87.5751,181.1803  79.1803,184.4249  82.4249,192.8197 " style="fill:rgb(255,255,255)"/>
   <polyline points="109.3121,193.136  117.136,188.6879  112.6879,180.864  104.864,185.3121  109.3121,193.136 " style="fill:rgb(255,255,255)"/>
   <polyline points="151.7554,182.7708  142.7708,182.2446  142.2446,191.2292  151.2292,191.7554  151.7554,182.7708 " style="fill:rgb(255,255,255)"/>
   <polyline points="215.3617,183.5718  206.5718,181.6383  204.6383,190.4282  213.4282,192.3617  215.3617,183.5718 " style="fill:rgb(255,255,255)"/>
   <polyline points="232.6273,182.631  223.631,182.3727  223.3727,191.369  232.369,191.6273  232.6273,182.631 " style="fill:rgb(255,255,255)"/>
   <polyline points="278.3958,192.8067  286.8067,189.6042  283.6042,181.1933  275.1933,184.3958  278.3958,192.8067 " style="fill:rgb(255,255,255)"/>
   <polyline points="13.3331,188.3735  6.3735,182.6669  0.66695,189.6265  7.6265,195.3331  13.3331,188.3735 " style="fill:rgb(255,255,255)"/>
   <polyline points="34.7349,186.2412  26.2412,183.2651  23.2651,191.7588  31.7588,194.7349  34.7349,186.2412 " style="fill:rgb(255,255,255)"/>
   <polyline points="122.335,194.7791  130.7791,191.665  127.665,183.2209  119.2209,186.335  122.335,194.7791 " style="fill:rgb(255,255,255)"/>
   <polyline points="165.1159,187.2407  157.2407,182.8841  152.8841,190.7593  160.7593,195.1159  165.1159,187.2407 " style="fill:rgb(255,255,255)"/>
   <polyline points="251.0986,194.0279  260.0279,192.9014  258.9014,183.9721  249.9721,185.0986  251.0986,194.0279 " style="fill:rgb(255,255,255)"/>
   <polyline points="57.9532,187.0043  49.0043,186.0468  48.0468,194.9957  56.9957,195.9532  57.9532,187.0043 " style="fill:rgb(254,254,254)"/>
   <polyline points="59.6248,195.6214  68.6214,195.3752  68.3752,186.3786  59.3786,186.6248  59.6248,195.6214 " style="fill:rgb(254,254,254)"/>
   <polyline points="187.3636,190.9337  180.9337,184.6364  174.6364,191.0663  181.0663,197.3636  187.3636,190.9337 " style="fill:rgb(255,255,255)"/>
   <polyline points="202.0059,188.8956  193.8956,184.9941  189.9941,193.1044  198.1044,197.0059  202.0059,188.8956 " style="fill:rgb(255,255,255)"/>
   <polyline points="233.5961,195.5941  242.5941,195.4039  242.4039,186.4059  233.4059,186.5961  233.5961,195.5941 " style="fill:rgb(255,255,255)"/>
   <polyline points="290.9936,197.0394  299.0394,193.0064  295.0064,184.9606  286.9606,188.9936  290.9936,197.0394 " style="fill:rgb(255,255,255)"/>
   <polyline points="34.6341,197.6302  43.6302,197.3659  43.3659,188.3698  34.3698,188.6341  34.6341,197.6302 " style="fill:rgb(255,255,255)"/>
   <polyline points="69.9256,197.8887  78.8887,197.0744  78.0744,188.1113  69.1113,188.9256  69.9256,197.8887 " style="fill:rgb(255,255,255)"/>
   <polyline points="92.5794,198.8856  100.8856,195.4206  97.4206,187.1144  89.1144,190.5794  92.5794,198.8856 " style="fill:rgb(255,255,255)"/>
   <polyline points="175.3596,192.7646  168.7646,186.6404  162.6404,193.2354  169.2354,199.3596  175.3596,192.7646 " style="fill:rgb(255,255,255)"/>
   <polyline points="268.3246,198.1953  277.1953,196.6754  275.6754,187.8047  266.8047,189.3246  268.3246,198.1953 " style="fill:rgb(254,254,254)"/>
   <polyline points="114.4478,200.8298  122.8298,197.5522  119.5522,189.1702  111.1702,192.4478  114.4478,200.8298 " style="fill:rgb(255,255,255)"/>
   <polyline points="132.8901,199.8589  141.8589,199.1099  141.1099,190.1411  132.1411,190.8901  132.8901,199.8589 " style="fill:rgb(255,255,255)"/>
   <polyline points="223.0287,191.0997  214.0997,189.9713  212.9713,198.9003  221.9003,200.0287  223.0287,191.0997 " style="fill:rgb(254,254,254)"/>
   <polyline points="12.5662,203.3492  19.3492,197.4338  13.4338,190.6508  6.6508,196.5662  12.5662,203.3492 " style="fill:rgb(254,254,254)"/>
   <polyline points="81.551,202.3483  90.3483,200.449  88.449,191.6517  79.6517,193.551  81.551,202.3483 " style="fill:rgb(255,255,255)"/>
   <polyline points="152.3788,193.5987  143.5987,191.6212  141.6212,200.4013  150.4013,202.3788  152.3788,193.5987 " style="fill:rgb(255,255,255)"/>
   <polyline points="211.0928,195.1621  203.1621,190.9072  198.9072,198.8379  206.8379,203.0928  211.0928,195.1621 " style="fill:rgb(254,254,254)"/>
   <polyline points="259.613,202.3878  268.3878,200.387  266.387,191.6122  257.6122,193.613  259.613,202.3878 " style="fill:rgb(254,254,254)"/>
   <polyline points="280.9476,203.0239  289.0239,199.0524  285.0524,190.9761  276.9761,194.9476  280.9476,203.0239 " style="fill:rgb(254,254,254)"/>
   <polyline points="20.7501,203.7369  29.7369,203.2499  29.2499,194.2631  20.2631,194.7501  20.7501,203.7369 " style="fill:rgb(255,255,255)"/>
   <polyline points="103.5004,204.8525  111.8525,201.4996  108.4996,193.1475  100.1475,196.5004  103.5004,204.8525 " style="fill:rgb(255,255,255)"/>
   <polyline points="124.4703,204.2954  133.2954,202.5297  131.5297,193.7046  122.7046,195.4703  124.4703,204.2954 " style="fill:rgb(255,255,255)"/>
   <polyline points="182.3639,198.9689  175.9689,192.6361  169.6361,199.0311  176.0311,205.3639  182.3639,198.9689 " style="fill:rgb(255,255,255)"/>
   <polyline points="195.3638,198.9554  188.9554,192.6362  182.6362,199.0446  189.0446,205.3638  195.3638,198.9554 " style="fill:rgb(255,255,255)"/>
   <polyline points="232.9279,194.9731  223.9731,194.0721  223.0721,203.0269  232.0269,203.9279  232.9279,194.9731 " style="fill:rgb(254,254,254)"/>
   <polyline points="243.7968,204.499  252.499,202.2032  250.2032,193.501  241.501,195.7968  243.7968,204.499 " style="fill:rgb(254,254,254)"/>
   <polyline points="44.5685,205.5675  53.5675,205.4315  53.4315,196.4325  44.4325,196.5685  44.5685,205.5675 " style="fill:rgb(255,255,255)"/>
   <polyline points="55.5932,205.5913  64.5913,205.4068  64.4068,196.4087  55.4087,196.5932  55.5932,205.5913 " style="fill:rgb(255,255,255)"/>
   <polyline points="163.1875,199.5116  155.5116,194.8125  150.8125,202.4884  158.4884,207.1875  163.1875,199.5116 " style="fill:rgb(255,255,255)"/>
   <polyline points="40.775,200.3262  32.3262,197.225  29.225,205.6738  37.6738,208.775  40.775,200.3262 " style="fill:rgb(255,255,255)"/>
   <polyline points="66.9137,207.8787  75.8787,207.0863  75.0863,198.1213  66.1213,198.9137  66.9137,207.8787 " style="fill:rgb(255,255,255)"/>
   <polyline points="93.0048,208.615  101.615,205.9952  98.9952,197.385  90.385,200.0048  93.0048,208.615 " style="fill:rgb(255,255,255)"/>
   <polyline points="291.8699,209.3626  298.3626,203.1301  292.1301,196.6374  285.6374,202.8699  291.8699,209.3626 " style="fill:rgb(254,254,254)"/>
   <polyline points="13.363,204.8889  6.8889,198.637  0.63701,205.1111  7.1111,211.363  13.363,204.8889 " style="fill:rgb(254,254,254)"/>
   <polyline points="114.6859,210.4329  123.4329,208.3141  121.3141,199.5671  112.5671,201.6859  114.6859,210.4329 " style="fill:rgb(255,255,255)"/>
   <polyline points="142.818,200.8422  133.8422,200.182  133.182,209.1578  142.1578,209.818  142.818,200.8422 " style="fill:rgb(255,255,255)"/>
   <polyline points="173.3461,204.5239  166.5239,198.6539  160.6539,205.4761  167.4761,211.3461  173.3461,204.5239 " style="fill:rgb(255,255,255)"/>
   <polyline points="203.364,204.9917  196.9917,198.636  190.636,205.0083  197.0083,211.364  203.364,204.9917 " style="fill:rgb(254,254,254)"/>
   <polyline points="218.3614,204.8199  211.8199,198.6386  205.6386,205.1801  212.1801,211.3614  218.3614,204.8199 " style="fill:rgb(254,254,254)"/>
   <polyline points="242.8044,202.3905  234.3905,199.1956  231.1956,207.6095  239.6095,210.8044  242.8044,202.3905 " style="fill:rgb(254,254,254)"/>
   <polyline points="270.8738,211.3627  277.3627,205.1262  271.1262,198.6373  264.6373,204.8738  270.8738,211.3627 " style="fill:rgb(254,254,254)"/>
   <polyline points="77.2252,212.1236  86.1236,210.7748  84.7748,201.8764  75.8764,203.2252  77.2252,212.1236 " style="fill:rgb(255,255,255)"/>
   <polyline points="187.3637,206.9416  180.9416,200.6363  174.6363,207.0584  181.0584,213.3637  187.3637,206.9416 " style="fill:rgb(255,255,255)"/>
   <polyline points="262.2793,205.9656  254.9656,200.7207  249.7207,208.0344  257.0344,213.2793  262.2793,205.9656 " style="fill:rgb(254,254,254)"/>
   <polyline points="15.9116,215.2702  23.2702,210.0884  18.0884,202.7298  10.7298,207.9116  15.9116,215.2702 " style="fill:rgb(255,255,255)"/>
   <polyline points="104.7081,214.4464  113.4464,212.2919  111.2919,203.5536  102.5536,205.7081  104.7081,214.4464 " style="fill:rgb(255,255,255)"/>
   <polyline points="123.8252,213.8032  132.8032,213.1748  132.1748,204.1968  123.1968,204.8252  123.8252,213.8032 " style="fill:rgb(255,255,255)"/>
   <polyline points="154.8491,206.4924  146.4924,203.1509  143.1509,211.5076  151.5076,214.8491  154.8491,206.4924 " style="fill:rgb(255,255,255)"/>
   <polyline points="227.3409,208.4583  220.4583,202.6591  214.6591,209.5417  221.5417,215.3409  227.3409,208.4583 " style="fill:rgb(254,254,254)"/>
   <polyline points="282.9971,215.364  289.364,209.0029  283.0029,202.636  276.636,208.9971  282.9971,215.364 " style="fill:rgb(254,254,254)"/>
   <polyline points="40.8907,215.8594  49.8594,215.1093  49.1093,206.1406  40.1406,206.8907  40.8907,215.8594 " style="fill:rgb(255,255,255)"/>
   <polyline points="51.6726,215.6662  60.6662,215.3274  60.3274,206.3338  51.3338,206.6726  51.6726,215.6662 " style="fill:rgb(255,255,255)"/>
   <polyline points="211.364,210.999  204.999,204.636  198.636,211.001  205.001,217.364  211.364,210.999 " style="fill:rgb(254,254,254)"/>
   <polyline points="24.7228,217.7122  33.7122,217.2772  33.2772,208.2878  24.2878,208.7228  24.7228,217.7122 " style="fill:rgb(255,255,255)"/>
   <polyline points="61.7624,217.7479  70.7479,217.2376  70.2376,208.2521  61.2521,208.7624  61.7624,217.7479 " style="fill:rgb(255,255,255)"/>
   <polyline points="91.4113,218.2556  100.2556,216.5887  98.5887,207.7444  89.7444,209.4113  91.4113,218.2556 " style="fill:rgb(255,255,255)"/>
   <polyline points="165.2292,211.6974  157.6974,206.7708  152.7708,214.3026  160.3026,219.2292  165.2292,211.6974 " style="fill:rgb(255,255,255)"/>
   <polyline points="178.3482,212.5523  171.5523,206.6518  165.6518,213.4477  172.4477,219.3482  178.3482,212.5523 " style="fill:rgb(255,255,255)"/>
   <polyline points="194.3634,212.9141  187.9141,206.6366  181.6366,213.0859  188.0859,219.3634  194.3634,212.9141 " style="fill:rgb(255,255,255)"/>
   <polyline points="236.5643,209.9115  227.9115,207.4357  225.4357,216.0885  234.0885,218.5643  236.5643,209.9115 " style="fill:rgb(254,254,254)"/>
   <polyline points="263.5005,219.1848  271.1848,214.4995  266.4995,206.8152  258.8152,211.5005  263.5005,219.1848 " style="fill:rgb(254,254,254)"/>
   <polyline points="115.0209,219.9666  123.9666,218.9791  122.9791,210.0334  114.0334,211.0209  115.0209,219.9666 " style="fill:rgb(255,255,255)"/>
   <polyline points="143.1612,211.2769  134.2769,209.8388  132.8388,218.7231  141.7231,220.1612  143.1612,211.2769 " style="fill:rgb(255,255,255)"/>
   <polyline points="240.2563,220.1463  249.1463,218.7437  247.7437,209.8537  238.8537,211.2563  240.2563,220.1463 " style="fill:rgb(254,254,254)"/>
   <polyline points="72.9148,221.8796  81.8796,221.0852  81.0852,212.1204  72.1204,212.9148  72.9148,221.8796 " style="fill:rgb(255,255,255)"/>
   <polyline points="219.7996,214.38  211.38,211.2004  208.2004,219.62  216.62,222.7996  219.7996,214.38 " style="fill:rgb(254,254,254)"/>
   <polyline points="289.3551,223.3312  296.3312,217.6449  290.6449,210.6688  283.6688,216.3551  289.3551,223.3312 " style="fill:rgb(254,254,254)"/>
   <polyline points="12.9194,216.6632  4.6632,213.0806  1.0806,221.3368  9.3368,224.9194  12.9194,216.6632 " style="fill:rgb(254,254,254)"/>
   <polyline points="16.8718,224.9976  24.9976,221.1282  21.1282,213.0024  13.0024,216.8718  16.8718,224.9976 " style="fill:rgb(255,255,255)"/>
   <polyline points="103.0983,224.0276  112.0276,222.9017  110.9017,213.9724  101.9724,215.0983  103.0983,224.0276 " style="fill:rgb(255,255,255)"/>
   <polyline points="153.8542,216.5044  145.5044,213.1458  142.1458,221.4956  150.4956,224.8542  153.8542,216.5044 " style="fill:rgb(255,255,255)"/>
   <polyline points="250.252,224.1432  259.1432,222.748  257.748,213.8568  248.8568,215.252  250.252,224.1432 " style="fill:rgb(254,254,254)"/>
   <polyline points="271.4484,224.8301  279.8301,221.5516  276.5516,213.1699  268.1699,216.4484  271.4484,224.8301 " style="fill:rgb(254,254,254)"/>
</svg>