<?xml version="1.0" encoding="utf-8"?>
<svg xmlns="http://www.w3.org/2000/svg" xmlns:xlink="http://www.w3.org/1999/xlink" height="225" preserveAspectRatio="xMinYMin meet" style="background: grey" version="1.1" viewBox="-4 -4 225 300" width="300">
   <polyline points="17.8125,9.1641  17.1641,0.18752  8.1875,0.83586  8.8359,9.8125  17.8125,9.1641 " style="fill:rgb(255,255,255)"/>
   <polyline points="40.2013,9.7801  40.7801,0.79871  31.7987,0.21992  31.2199,9.2013  40.2013,9.7801 " style="fill:rgb(255,255,255)"/>
   <polyline points="57.9013,9.0593  57.0593,0.098745  48.0987,0.94073  48.9407,9.9013  57.9013,9.0593 " style="fill:rgb(255,255,255)"/>
   <polyline points="68.5051,9.4949  68.4949,0.49495  59.4949,0.50506  59.5051,9.5051  68.5051,9.4949 " style="fill:rgb(255,255,255)"/>
   <polyline points="79.5018,9.4982  79.4982,0.49824  70.4982,0.50176  70.5018,9.5018  79.5018,9.4982 " style="fill:rgb(255,255,255)"/>
   <polyline points="90.7631,9.2206  90.2206,0.23694  81.2369,0.77942  81.7794,9.7631  90.7631,9.2206 " style="fill:rgb(255,255,255)"/>
   <polyline points="109.2093,9.773  109.773,0.79066  100.7907,0.22701  100.227,9.2093  109.2093,9.773 " style="fill:rgb(255,255,255)"/>
   <polyline points="120.3558,9.6397  120.6397,0.64418  111.6442,0.3603  111.3603,9.3558  120.3558,9.6397 " style="fill:rgb(255,255,255)"/>
   <polyline points="131.6056,9.3919  131.3919,0.39443  122.3944,0.6081  122.6081,9.6056  131.6056,9.3919 " style="fill:rgb(255,255,255)"/>
   <polyline points="144.3563,9.6392  144.6392,0.64368  135.6437,0.36077  135.3608,9.3563  144.3563,9.6392 " style="fill:rgb(255,255,255)"/>
   <polyline points="155.6056,9.3919  155.3919,0.39443  146.3944,0.6081  146.6081,9.6056  155.6056,9.3919 " style="fill:rgb(255,255,255)"/>
   <polyline points="168.3563,9.6392  168.6392,0.64368  159.6437,0.36077  159.3608,9.3563  168.3563,9.6392 " style="fill:rgb(255,255,255)"/>
   <polyline points="179.6056,9.3919  179.3919,0.39444  170.3944,0.6081  170.6081,9.6056  179.6056,9.3919 " style="fill:rgb(255,255,255)"/>
   <polyline points="192.3545,9.641  192.641,0.64553  183.6455,0.35903  183.359,9.3545  192.3545,9.641 " style="fill:rgb(255,255,255)"/>
   <polyline points="203.5665,9.4325  203.4325,0.43353  194.4335,0.56747  194.5675,9.5665  203.5665,9.4325 " style="fill:rgb(255,255,255)"/>
   <polyline points="214.5198,9.4801  214.4801,0.48016  205.4802,0.51992  205.5199,9.5198  214.5198,9.4801 " style="fill:rgb(255,255,255)"/>
   <polyline points="225.4921,9.5078  225.5078,0.50785  216.5079,0.49216  216.4922,9.4921  225.4921,9.5078 " style="fill:rgb(255,255,255)"/>
   <polyline points="236.4932,9.5068  236.5068,0.50683  227.5068,0.49318  227.4932,9.4932  236.4932,9.5068 " style="fill:rgb(255,255,255)"/>
   <polyline points="247.5229,9.477  247.477,0.47712  238.4771,0.52299  238.523,9.5229  247.5229,9.477 " style="fill:rgb(255,255,255)"/>
   <polyline points="258.4674,9.5323  258.5323,0.53256  249.5326,0.46768  249.4677,9.4674  258.4674,9.5323 " style="fill:rgb(255,255,255)"/>
   <polyline points="269.5466,9.4529  269.4529,0.45341  260.4534,0.54708  260.5471,9.5466  269.5466,9.4529 " style="fill:rgb(255,255,255)"/>
   <polyline points="280.4495,9.55  280.55,0.55055  271.5505,0.45001  271.45,9.4495  280.4495,9.55 " style="fill:rgb(255,255,255)"/>
   <polyline points="291.6726,9.3205  291.3205,0.3274  282.3274,0.67949  282.6795,9.6726  291.6726,9.3205 " style="fill:rgb(255,255,255)"/>
   <polyline points="22.1138,12.6718  30.6718,9.8862  27.8862,1.3282  19.3282,4.1138  22.1138,12.6718 " style="fill:rgb(255,255,255)"/>
   <polyline points="96.0612,19.2749  101.2749,11.9388  93.9388,6.7251  88.7251,14.0612  96.0612,19.2749 " style="fill:rgb(254,254,254)"/>
   <polyline points="9.525,10.5252  0.52515,10.475  0.47499,19.4748  9.4748,19.525  9.525,10.5252 " style="fill:rgb(255,255,255)"/>
   <polyline points="38.7337,19.2534  38.2534,10.2663  29.2663,10.7466  29.7466,19.7337  38.7337,19.2534 " style="fill:rgb(254,254,254)"/>
   <polyline points="49.6503,19.3445  49.3445,10.3497  40.3497,10.6555  40.6555,19.6503  49.6503,19.3445 " style="fill:rgb(254,254,254)"/>
   <polyline points="60.5357,19.464  60.464,10.4643  51.4643,10.536  51.536,19.5357  60.5357,19.464 " style="fill:rgb(255,255,255)"/>
   <polyline points="71.5001,19.4999  71.4999,10.4999  62.4999,10.5001  62.5001,19.5001  71.5001,19.4999 " style="fill:rgb(255,255,255)"/>
   <polyline points="82.5001,19.4999  82.4999,10.4999  73.4999,10.5001  73.5001,19.5001  82.5001,19.4999 " style="fill:rgb(255,255,255)"/>
   <polyline points="111.3879,19.6094  111.6094,10.6121  102.6121,10.3906  102.3906,19.3879  111.3879,19.6094 " style="fill:rgb(254,254,254)"/>
   <polyline points="122.5021,19.4979  122.4979,10.4979  113.4979,10.5021  113.5021,19.5021  122.5021,19.4979 " style="fill:rgb(254,254,254)"/>
   <polyline points="133.4994,19.5006  133.5006,10.5006  124.5006,10.4994  124.4994,19.4994  133.4994,19.5006 " style="fill:rgb(254,254,254)"/>
   <polyline points="144.4991,19.5009  144.5009,10.5009  135.5009,10.4991  135.4991,19.4991  144.4991,19.5009 " style="fill:rgb(254,254,254)"/>
   <polyline points="155.5019,19.4981  155.4981,10.4981  146.4981,10.5019  146.5019,19.5019  155.5019,19.4981 " style="fill:rgb(254,254,254)"/>
   <polyline points="166.4958,19.5042  166.5042,10.5042  157.5042,10.4958  157.4958,19.4958  166.4958,19.5042 " style="fill:rgb(254,254,254)"/>
   <polyline points="177.5042,19.4958  177.4958,10.4958  168.4958,10.5042  168.5042,19.5042  177.5042,19.4958 " style="fill:rgb(254,254,254)"/>
   <polyline points="188.4918,19.5082  188.5082,10.5082  179.5082,10.4918  179.4918,19.4918  188.4918,19.5082 " style="fill:rgb(254,254,254)"/>
   <polyline points="199.1551,19.8202  199.8202,10.8449  190.8449,10.1798  190.1798,19.1551  199.1551,19.8202 " style="fill:rgb(254,254,254)"/>
   <polyline points="213.0004,18.9365  211.9365,9.9996  202.9996,11.0635  204.0635,20.0004  213.0004,18.9365 " style="fill:rgb(254,254,254)"/>
   <polyline points="224.3308,18.476  222.476,9.6692  213.6692,11.524  215.524,20.3308  224.3308,18.476 " style="fill:rgb(254,254,254)"/>
   <polyline points="236.9658,19.9772  237.9772,11.0342  229.0342,10.0228  228.0228,18.9658  236.9658,19.9772 " style="fill:rgb(254,254,254)"/>
   <polyline points="248.781,19.2003  248.2003,10.219  239.219,10.7997  239.7997,19.781  248.781,19.2003 " style="fill:rgb(254,254,254)"/>
   <polyline points="260.9658,19.9772  261.9772,11.0342  253.0342,10.0228  252.0228,18.9658  260.9658,19.9772 " style="fill:rgb(254,254,254)"/>
   <polyline points="272.781,19.2003  272.2003,10.219  263.219,10.7997  263.7997,19.781  272.781,19.2003 " style="fill:rgb(254,254,254)"/>
   <polyline points="284.721,17.7875  281.7875,9.279  273.279,12.2125  276.2125,20.721  284.721,17.7875 " style="fill:rgb(254,254,254)"/>
   <polyline points="297.0671,16.921  292.921,8.9329  284.9329,13.079  289.079,21.0671  297.0671,16.921 " style="fill:rgb(254,254,254)"/>
   <polyline points="23.2842,15.9958  15.9958,10.7158  10.7158,18.0042  18.0042,23.2842  23.2842,15.9958 " style="fill:rgb(255,255,255)"/>
   <polyline points="91.46,27.5396  91.5396,18.54  82.54,18.4604  82.4604,27.46  91.46,27.5396 " style="fill:rgb(254,254,254)"/>
   <polyline points="15.0671,26.9209  10.9209,18.9329  2.9329,23.0791  7.0791,31.0671  15.0671,26.9209 " style="fill:rgb(255,255,255)"/>
   <polyline points="23.0476,31.0571  31.0571,26.9524  26.9524,18.9429  18.9429,23.0476  23.0476,31.0571 " style="fill:rgb(255,255,255)"/>
   <polyline points="42.3739,28.409  40.409,19.6261  31.6261,21.591  33.591,30.3739  42.3739,28.409 " style="fill:rgb(254,254,254)"/>
   <polyline points="55.1326,29.8396  55.8396,20.8674  46.8674,20.1604  46.1604,29.1326  55.1326,29.8396 " style="fill:rgb(255,255,255)"/>
   <polyline points="66.5144,29.4855  66.4855,20.4856  57.4856,20.5145  57.5145,29.5144  66.5144,29.4855 " style="fill:rgb(255,255,255)"/>
   <polyline points="77.4999,29.5001  77.5001,20.5001  68.5001,20.4999  68.4999,29.4999  77.4999,29.5001 " style="fill:rgb(255,255,255)"/>
   <polyline points="103.9958,29.9531  104.9531,21.0042  96.0042,20.0469  95.0469,28.9958  103.9958,29.9531 " style="fill:rgb(254,254,254)"/>
   <polyline points="115.4997,29.5003  115.5003,20.5003  106.5003,20.4997  106.4997,29.4997  115.4997,29.5003 " style="fill:rgb(254,254,254)"/>
   <polyline points="126.5,29.5  126.5,20.5  117.5,20.5  117.5,29.5  126.5,29.5 " style="fill:rgb(254,254,254)"/>
   <polyline points="137.5,29.5  137.5,20.5  128.5,20.5  128.5,29.5  137.5,29.5 " style="fill:rgb(254,254,254)"/>
   <polyline points="148.5,29.5  148.5,20.5  139.5,20.5  139.5,29.5  148.5,29.5 " style="fill:rgb(254,254,254)"/>
   <polyline points="159.5,29.5  159.5,20.5  150.5,20.5  150.5,29.5  159.5,29.5 " style="fill:rgb(254,254,254)"/>
   <polyline points="170.5,29.5  170.5,20.5  161.5,20.5  161.5,29.5  170.5,29.5 " style="fill:rgb(254,254,254)"/>
   <polyline points="181.5,29.5  181.5,20.5  172.5,20.5  172.5,29.5  181.5,29.5 " style="fill:rgb(254,254,254)"/>
   <polyline points="192.4993,29.5007  192.5007,20.5007  183.5007,20.4993  183.4993,29.4993  192.4993,29.5007 " style="fill:rgb(254,254,254)"/>
   <polyline points="202.9634,29.9791  203.9791,21.0366  195.0366,20.0209  194.0209,28.9634  202.9634,29.9791 " style="fill:rgb(254,254,254)"/>
   <polyline points="214.5851,29.4133  214.4133,20.4149  205.4149,20.5867  205.5867,29.5851  214.5851,29.4133 " style="fill:rgb(254,254,254)"/>
   <polyline points="225.416,29.5825  225.5825,20.584  216.584,20.4175  216.4175,29.416  225.416,29.5825 " style="fill:rgb(254,254,254)"/>
   <polyline points="236.4718,29.528  236.528,20.5282  227.5282,20.472  227.472,29.4718  236.4718,29.528 " style="fill:rgb(254,254,254)"/>
   <polyline points="247.7582,29.2261  247.2261,20.2418  238.2418,20.7739  238.7739,29.7582  247.7582,29.2261 " style="fill:rgb(254,254,254)"/>
   <polyline points="258.3475,29.6475  258.6475,20.6525  249.6525,20.3525  249.3525,29.3475  258.3475,29.6475 " style="fill:rgb(254,254,254)"/>
   <polyline points="270.1193,28.7805  268.7805,19.8807  259.8807,21.2195  261.2195,30.1193  270.1193,28.7805 " style="fill:rgb(254,254,254)"/>
   <polyline points="287.6502,29.3446  287.3446,20.3498  278.3498,20.6554  278.6554,29.6502  287.6502,29.3446 " style="fill:rgb(254,254,254)"/>
   <polyline points="299.3987,28.3695  297.3695,19.6013  288.6013,21.6305  290.6305,30.3987  299.3987,28.3695 " style="fill:rgb(254,254,254)"/>
   <polyline points="21.9738,36.97  20.97,28.0262  12.0262,29.03  13.03,37.9738  21.9738,36.97 " style="fill:rgb(254,254,254)"/>
   <polyline points="86.0783,37.8854  86.8854,28.9217  77.9217,28.1146  77.1146,37.0783  86.0783,37.8854 " style="fill:rgb(255,255,255)"/>
   <polyline points="33.3371,39.6572  33.6572,30.6629  24.6629,30.3428  24.3428,39.3371  33.3371,39.6572 " style="fill:rgb(254,254,254)"/>
   <polyline points="44.1157,41.002  48.002,32.8843  39.8843,28.998  35.998,37.1157  44.1157,41.002 " style="fill:rgb(254,254,254)"/>
   <polyline points="58.7485,30.7631  49.7631,30.2515  49.2515,39.2369  58.2369,39.7485  58.7485,30.7631 " style="fill:rgb(255,255,255)"/>
   <polyline points="69.8981,39.0631  69.0631,30.1019  60.1019,30.9369  60.9369,39.8981  69.8981,39.0631 " style="fill:rgb(255,255,255)"/>
   <polyline points="88.1477,40.0655  97.0655,38.8523  95.8523,29.9345  86.9345,31.1477  88.1477,40.0655 " style="fill:rgb(255,255,255)"/>
   <polyline points="107.3056,39.6864  107.6864,30.6944  98.6944,30.3136  98.3136,39.3056  107.3056,39.6864 " style="fill:rgb(255,255,255)"/>
   <polyline points="118.4997,39.5003  118.5003,30.5003  109.5003,30.4997  109.4997,39.4997  118.4997,39.5003 " style="fill:rgb(255,255,255)"/>
   <polyline points="129.5,39.5  129.5,30.5  120.5,30.5  120.5,39.5  129.5,39.5 " style="fill:rgb(255,255,255)"/>
   <polyline points="140.5,39.5  140.5,30.5  131.5,30.5  131.5,39.5  140.5,39.5 " style="fill:rgb(255,255,255)"/>
   <polyline points="151.5,39.5  151.5,30.5  142.5,30.5  142.5,39.5  151.5,39.5 " style="fill:rgb(255,255,255)"/>
   <polyline points="162.5,39.5  162.5,30.5  153.5,30.5  153.5,39.5  162.5,39.5 " style="fill:rgb(255,255,255)"/>
   <polyline points="173.5,39.5  173.5,30.5  164.5,30.5  164.5,39.5  173.5,39.5 " style="fill:rgb(255,255,255)"/>
   <polyline points="184.5,39.5  184.5,30.5  175.5,30.5  175.5,39.5  184.5,39.5 " style="fill:rgb(255,255,255)"/>
   <polyline points="195.4998,39.5002  195.5002,30.5002  186.5002,30.4998  186.4998,39.4998  195.4998,39.5002 " style="fill:rgb(255,255,255)"/>
   <polyline points="206.4982,39.5018  206.5018,30.5018  197.5018,30.4982  197.4982,39.4982  206.4982,39.5018 " style="fill:rgb(255,255,255)"/>
   <polyline points="217.5014,39.4986  217.4986,30.4986  208.4986,30.5014  208.5014,39.5014  217.5014,39.4986 " style="fill:rgb(255,255,255)"/>
   <polyline points="228.4986,39.5014  228.5014,30.5014  219.5014,30.4986  219.4986,39.4986  228.4986,39.5014 " style="fill:rgb(255,255,255)"/>
   <polyline points="239.5009,39.4991  239.4991,30.4991  230.4991,30.5009  230.5009,39.5009  239.5009,39.4991 " style="fill:rgb(255,255,255)"/>
   <polyline points="250.4993,39.5007  250.5007,30.5007  241.5007,30.4993  241.4993,39.4993  250.4993,39.5007 " style="fill:rgb(255,255,255)"/>
   <polyline points="261.5002,39.4998  261.4998,30.4998  252.4998,30.5002  252.5002,39.5002  261.5002,39.4998 " style="fill:rgb(255,255,255)"/>
   <polyline points="272.5002,39.4998  272.4998,30.4998  263.4998,30.5002  263.5002,39.5002  272.5002,39.4998 " style="fill:rgb(255,255,255)"/>
   <polyline points="283.4995,39.5005  283.5005,30.5005  274.5005,30.4995  274.4995,39.4995  283.4995,39.5005 " style="fill:rgb(255,255,255)"/>
   <polyline points="294.503,39.497  294.497,30.497  285.497,30.503  285.503,39.503  294.503,39.497 " style="fill:rgb(255,255,255)"/>
   <polyline points="9.6074,32.6101  0.61008,32.3926  0.39255,41.3899  9.3899,41.6074  9.6074,32.6101 " style="fill:rgb(254,254,254)"/>
   <polyline points="10.9426,47.9028  19.9028,47.0574  19.0574,38.0972  10.0972,38.9426  10.9426,47.9028 " style="fill:rgb(254,254,254)"/>
   <polyline points="80.0042,45.1093  76.1093,36.9958  67.9958,40.8907  71.8907,49.0042  80.0042,45.1093 " style="fill:rgb(255,255,255)"/>
   <polyline points="29.9701,41.0253  21.0253,40.0299  20.0299,48.9747  28.9747,49.9701  29.9701,41.0253 " style="fill:rgb(255,255,255)"/>
   <polyline points="40.9597,48.9877  39.9877,40.0403  31.0403,41.0123  32.0123,49.9597  40.9597,48.9877 " style="fill:rgb(254,254,254)"/>
   <polyline points="53.2255,46.3202  48.3202,38.7745  40.7745,43.6798  45.6798,51.2255  53.2255,46.3202 " style="fill:rgb(255,255,255)"/>
   <polyline points="54.1597,50.0746  63.0746,48.8403  61.8403,39.9254  52.9254,41.1597  54.1597,50.0746 " style="fill:rgb(255,255,255)"/>
   <polyline points="92.4426,41.7017  83.7017,39.5574  81.5574,48.2983  90.2983,50.4426  92.4426,41.7017 " style="fill:rgb(255,255,255)"/>
   <polyline points="105.9345,49.0188  105.0188,40.0655  96.0655,40.9812  96.9812,49.9345  105.9345,49.0188 " style="fill:rgb(255,255,255)"/>
   <polyline points="116.5005,49.4995  116.4995,40.4995  107.4995,40.5005  107.5005,49.5005  116.5005,49.4995 " style="fill:rgb(255,255,255)"/>
   <polyline points="127.5,49.5  127.5,40.5  118.5,40.5  118.5,49.5  127.5,49.5 " style="fill:rgb(255,255,255)"/>
   <polyline points="138.5,49.5  138.5,40.5  129.5,40.5  129.5,49.5  138.5,49.5 " style="fill:rgb(255,255,255)"/>
   <polyline points="149.5,49.5  149.5,40.5  140.5,40.5  140.5,49.5  149.5,49.5 " style="fill:rgb(255,255,255)"/>
   <polyline points="158.5,49.5  158.5,40.5  149.5,40.5  149.5,49.5  158.5,49.5 " style="fill:rgb(255,255,255)"/>
   <polyline points="167.5,49.5  167.5,40.5  158.5,40.5  158.5,49.5  167.5,49.5 " style="fill:rgb(255,255,255)"/>
   <polyline points="178.5,49.5  178.5,40.5  169.5,40.5  169.5,49.5  178.5,49.5 " style="fill:rgb(255,255,255)"/>
   <polyline points="189.5,49.5  189.5,40.5  180.5,40.5  180.5,49.5  189.5,49.5 " style="fill:rgb(255,255,255)"/>
   <polyline points="200.5,49.5  200.5,40.5  191.5,40.5  191.5,49.5  200.5,49.5 " style="fill:rgb(255,255,255)"/>
   <polyline points="211.5,49.5  211.5,40.5  202.5,40.5  202.5,49.5  211.5,49.5 " style="fill:rgb(255,255,255)"/>
   <polyline points="222.5,49.5  222.5,40.5  213.5,40.5  213.5,49.5  222.5,49.5 " style="fill:rgb(255,255,255)"/>
   <polyline points="233.5,49.5  233.5,40.5  224.5,40.5  224.5,49.5  233.5,49.5 " style="fill:rgb(255,255,255)"/>
   <polyline points="244.5,49.5  244.5,40.5  235.5,40.5  235.5,49.5  244.5,49.5 " style="fill:rgb(255,255,255)"/>
   <polyline points="255.5,49.5  255.5,40.5  246.5,40.5  246.5,49.5  255.5,49.5 " style="fill:rgb(255,255,255)"/>
   <polyline points="266.5,49.5  266.5,40.5  257.5,40.5  257.5,49.5  266.5,49.5 " style="fill:rgb(255,255,255)"/>
   <polyline points="277.5,49.5  277.5,40.5  268.5,40.5  268.5,49.5  277.5,49.5 " style="fill:rgb(255,255,255)"/>
   <polyline points="288.5,49.5  288.5,40.5  279.5,40.5  279.5,49.5  288.5,49.5 " style="fill:rgb(255,255,255)"/>
   <polyline points="299.5,49.5  299.5,40.5  290.5,40.5  290.5,49.5  299.5,49.5 " style="fill:rgb(255,255,255)"/>
   <polyline points="9.4923,53.5077  9.5077,44.5077  0.50774,44.4923  0.49227,53.4923  9.4923,53.5077 " style="fill:rgb(255,255,255)"/>
   <polyline points="67.7091,59.3243  73.3243,52.2909  66.2909,46.6757  60.6757,53.7091  67.7091,59.3243 " style="fill:rgb(255,255,255)"/>
   <polyline points="19.9835,51.0422  11.0422,50.0165  10.0165,58.9578  18.9578,59.9835  19.9835,51.0422 " style="fill:rgb(254,254,254)"/>
   <polyline points="30.6148,50.6178  21.6178,50.3852  21.3852,59.3822  30.3822,59.6148  30.6148,50.6178 " style="fill:rgb(255,255,255)"/>
   <polyline points="42.6613,57.9069  39.9069,49.3387  31.3387,52.0931  34.0931,60.6613  42.6613,57.9069 " style="fill:rgb(255,255,255)"/>
   <polyline points="59.1712,53.4455  51.4455,48.8288  46.8288,56.5545  54.5545,61.1712  59.1712,53.4455 " style="fill:rgb(255,255,255)"/>
   <polyline points="83.2728,53.9265  75.9265,48.7272  70.7272,56.0735  78.0735,61.2728  83.2728,53.9265 " style="fill:rgb(255,255,255)"/>
   <polyline points="89.5645,60.8795  97.8795,57.4355  94.4355,49.1205  86.1205,52.5645  89.5645,60.8795 " style="fill:rgb(255,255,255)"/>
   <polyline points="108.3523,59.643  108.643,50.6477  99.6477,50.357  99.357,59.3523  108.3523,59.643 " style="fill:rgb(255,255,255)"/>
   <polyline points="119.4982,59.5018  119.5018,50.5018  110.5018,50.4982  110.4982,59.4982  119.4982,59.5018 " style="fill:rgb(255,255,255)"/>
   <polyline points="130.5,59.5  130.5,50.5  121.5,50.5  121.5,59.5  130.5,59.5 " style="fill:rgb(255,255,255)"/>
   <polyline points="141.5,59.5  141.5,50.5  132.5,50.5  132.5,59.5  141.5,59.5 " style="fill:rgb(255,255,255)"/>
   <polyline points="152.5,59.5  152.5,50.5  143.5,50.5  143.5,59.5  152.5,59.5 " style="fill:rgb(255,255,255)"/>
   <polyline points="163.5,59.5  163.5,50.5  154.5,50.5  154.5,59.5  163.5,59.5 " style="fill:rgb(255,255,255)"/>
   <polyline points="174.5,59.5  174.5,50.5  165.5,50.5  165.5,59.5  174.5,59.5 " style="fill:rgb(255,255,255)"/>
   <polyline points="185.5,59.5  185.5,50.5  176.5,50.5  176.5,59.5  185.5,59.5 " style="fill:rgb(255,255,255)"/>
   <polyline points="196.5,59.5  196.5,50.5  187.5,50.5  187.5,59.5  196.5,59.5 " style="fill:rgb(255,255,255)"/>
   <polyline points="207.5,59.5  207.5,50.5  198.5,50.5  198.5,59.5  207.5,59.5 " style="fill:rgb(255,255,255)"/>
   <polyline points="218.5,59.5  218.5,50.5  209.5,50.5  209.5,59.5  218.5,59.5 " style="fill:rgb(255,255,255)"/>
   <polyline points="229.5,59.5  229.5,50.5  220.5,50.5  220.5,59.5  229.5,59.5 " style="fill:rgb(255,255,255)"/>
   <polyline points="240.5,59.5  240.5,50.5  231.5,50.5  231.5,59.5  240.5,59.5 " style="fill:rgb(255,255,255)"/>
   <polyline points="251.5,59.5  251.5,50.5  242.5,50.5  242.5,59.5  251.5,59.5 " style="fill:rgb(255,255,255)"/>
   <polyline points="262.5,59.5  262.5,50.5  253.5,50.5  253.5,59.5  262.5,59.5 " style="fill:rgb(255,255,255)"/>
   <polyline points="273.5,59.5  273.5,50.5  264.5,50.5  264.5,59.5  273.5,59.5 " style="fill:rgb(255,255,255)"/>
   <polyline points="284.5,59.5  284.5,50.5  275.5,50.5  275.5,59.5  284.5,59.5 " style="fill:rgb(255,255,255)"/>
   <polyline points="295.5,59.5  295.5,50.5  286.5,50.5  286.5,59.5  295.5,59.5 " style="fill:rgb(255,255,255)"/>
   <polyline points="0.82562,63.8036  9.8036,63.1744  9.1744,54.1964  0.1964,54.8256  0.82562,63.8036 " style="fill:rgb(255,255,255)"/>
   <polyline points="41.1652,68.0788  50.0788,66.8348  48.8348,57.9212  39.9212,59.1652  41.1652,68.0788 " style="fill:rgb(255,255,255)"/>
   <polyline points="57.6706,67.6644  66.6644,67.3294  66.3294,58.3356  57.3356,58.6706  57.6706,67.6644 " style="fill:rgb(254,254,254)"/>
   <polyline points="19.5083,60.5083  10.5083,60.4917  10.4917,69.4917  19.4917,69.5083  19.5083,60.5083 " style="fill:rgb(254,254,254)"/>
   <polyline points="30.5035,60.5035  21.5035,60.4965  21.4965,69.4965  30.4965,69.5035  30.5035,60.5035 " style="fill:rgb(255,255,255)"/>
   <polyline points="87.266,63.8876  79.8876,58.734  74.734,66.1124  82.1124,71.266  87.266,63.8876 " style="fill:rgb(255,255,255)"/>
   <polyline points="100.6364,60.6406  91.6406,60.3636  91.3636,69.3594  100.3594,69.6364  100.6364,60.6406 " style="fill:rgb(255,255,255)"/>
   <polyline points="112.4644,68.262  110.262,59.5356  101.5356,61.738  103.738,70.4644  112.4644,68.262 " style="fill:rgb(255,255,255)"/>
   <polyline points="121.5016,69.4984  121.4984,60.4984  112.4984,60.5016  112.5016,69.5016  121.5016,69.4984 " style="fill:rgb(255,255,255)"/>
   <polyline points="132.5,69.5  132.5,60.5  123.5,60.5  123.5,69.5  132.5,69.5 " style="fill:rgb(255,255,255)"/>
   <polyline points="143.5,69.5  143.5,60.5  134.5,60.5  134.5,69.5  143.5,69.5 " style="fill:rgb(255,255,255)"/>
   <polyline points="154.5,69.5  154.5,60.5  145.5,60.5  145.5,69.5  154.5,69.5 " style="fill:rgb(255,255,255)"/>
   <polyline points="165.5,69.5  165.5,60.5  156.5,60.5  156.5,69.5  165.5,69.5 " style="fill:rgb(255,255,255)"/>
   <polyline points="176.5,69.5  176.5,60.5  167.5,60.5  167.5,69.5  176.5,69.5 " style="fill:rgb(255,255,255)"/>
   <polyline points="187.5,69.5  187.5,60.5  178.5,60.5  178.5,69.5  187.5,69.5 " style="fill:rgb(255,255,255)"/>
   <polyline points="198.5,69.5  198.5,60.5  189.5,60.5  189.5,69.5  198.5,69.5 " style="fill:rgb(255,255,255)"/>
   <polyline points="209.5,69.5  209.5,60.5  200.5,60.5  200.5,69.5  209.5,69.5 " style="fill:rgb(255,255,255)"/>
   <polyline points="220.5,69.5  220.5,60.5  211.5,60.5  211.5,69.5  220.5,69.5 " style="fill:rgb(255,255,255)"/>
   <polyline points="231.5,69.5  231.5,60.5  222.5,60.5  222.5,69.5  231.5,69.5 " style="fill:rgb(255,255,255)"/>
   <polyline points="242.5,69.5  242.5,60.5  233.5,60.5  233.5,69.5  242.5,69.5 " style="fill:rgb(255,255,255)"/>
   <polyline points="253.5,69.5  253.5,60.5  244.5,60.5  244.5,69.5  253.5,69.5 " style="fill:rgb(255,255,255)"/>
   <polyline points="264.5,69.5  264.5,60.5  255.5,60.5  255.5,69.5  264.5,69.5 " style="fill:rgb(255,255,255)"/>
   <polyline points="275.5,69.5  275.5,60.5  266.5,60.5  266.5,69.5  275.5,69.5 " style="fill:rgb(255,255,255)"/>
   <polyline points="286.5,69.5  286.5,60.5  277.5,60.5  277.5,69.5  286.5,69.5 " style="fill:rgb(255,255,255)"/>
   <polyline points="297.5,69.5  297.5,60.5  288.5,60.5  288.5,69.5  297.5,69.5 " style="fill:rgb(255,255,255)"/>
   <polyline points="0.50363,73.5036  9.5036,73.4964  9.4964,64.4964  0.49638,64.5036  0.50363,73.5036 " style="fill:rgb(255,255,255)"/>
   <polyline points="40.5358,64.5361  31.5361,64.4642  31.4642,73.4639  40.4639,73.5358  40.5358,64.5361 " style="fill:rgb(255,255,255)"/>
   <polyline points="49.2264,76.1245  58.1245,74.7736  56.7736,65.8755  47.8755,67.2264  49.2264,76.1245 " style="fill:rgb(255,255,255)"/>
   <polyline points="76.5989,67.9747  67.9747,65.4011  65.4011,74.0253  74.0253,76.5989  76.5989,67.9747 " style="fill:rgb(255,255,255)"/>
   <polyline points="10.5015,79.5015  19.5015,79.4985  19.4985,70.4985  10.4985,70.5015  10.5015,79.5015 " style="fill:rgb(254,254,254)"/>
   <polyline points="21.5008,79.5008  30.5008,79.4992  30.4992,70.4992  21.4992,70.5008  21.5008,79.5008 " style="fill:rgb(255,255,255)"/>
   <polyline points="93.1671,76.5706  88.5706,68.8329  80.8329,73.4294  85.4294,81.1671  93.1671,76.5706 " style="fill:rgb(255,255,255)"/>
   <polyline points="103.7117,70.7221  94.7221,70.2883  94.2883,79.2779  103.2779,79.7117  103.7117,70.7221 " style="fill:rgb(255,255,255)"/>
   <polyline points="106.505,80.3183  115.3183,78.495  113.495,69.6817  104.6817,71.505  106.505,80.3183 " style="fill:rgb(255,255,255)"/>
   <polyline points="125.1356,78.7584  123.7584,69.8644  114.8644,71.2416  116.2416,80.1356  125.1356,78.7584 " style="fill:rgb(255,255,255)"/>
   <polyline points="135.3311,80.4225  137.4225,71.6689  128.6689,69.5775  126.5775,78.3311  135.3311,80.4225 " style="fill:rgb(255,255,255)"/>
   <polyline points="149.145,78.7455  147.7455,69.855  138.855,71.2545  140.2545,80.145  149.145,78.7455 " style="fill:rgb(255,255,255)"/>
   <polyline points="159.3311,80.4225  161.4225,71.6689  152.6689,69.5775  150.5775,78.3311  159.3311,80.4225 " style="fill:rgb(255,255,255)"/>
   <polyline points="173.1447,78.746  171.746,69.8553  162.8553,71.254  164.254,80.1447  173.1447,78.746 " style="fill:rgb(255,255,255)"/>
   <polyline points="182.9213,80.6538  185.6538,72.0787  177.0787,69.3462  174.3462,77.9213  182.9213,80.6538 " style="fill:rgb(255,255,255)"/>
   <polyline points="196.8199,79.1556  196.1556,70.1801  187.1801,70.8444  187.8444,79.8199  196.8199,79.1556 " style="fill:rgb(255,255,255)"/>
   <polyline points="207.5008,79.4992  207.4992,70.4992  198.4992,70.5008  198.5008,79.5008  207.5008,79.4992 " style="fill:rgb(255,255,255)"/>
   <polyline points="218.5,79.5  218.5,70.5  209.5,70.5  209.5,79.5  218.5,79.5 " style="fill:rgb(255,255,255)"/>
   <polyline points="229.5,79.5  229.5,70.5  220.5,70.5  220.5,79.5  229.5,79.5 " style="fill:rgb(255,255,255)"/>
   <polyline points="240.5,79.5  240.5,70.5  231.5,70.5  231.5,79.5  240.5,79.5 " style="fill:rgb(255,255,255)"/>
   <polyline points="251.5,79.5  251.5,70.5  242.5,70.5  242.5,79.5  251.5,79.5 " style="fill:rgb(255,255,255)"/>
   <polyline points="260.5,79.5  260.5,70.5  251.5,70.5  251.5,79.5  260.5,79.5 " style="fill:rgb(255,255,255)"/>
   <polyline points="271.5,79.5  271.5,70.5  262.5,70.5  262.5,79.5  271.5,79.5 " style="fill:rgb(255,255,255)"/>
   <polyline points="282.5,79.5  282.5,70.5  273.5,70.5  273.5,79.5  282.5,79.5 " style="fill:rgb(255,255,255)"/>
   <polyline points="293.5,79.5  293.5,70.5  284.5,70.5  284.5,79.5  293.5,79.5 " style="fill:rgb(255,255,255)"/>
   <polyline points="9.5212,74.5213  0.52132,74.4788  0.47878,83.4787  9.4787,83.5212  9.5212,74.5213 " style="fill:rgb(255,255,255)"/>
   <polyline points="31.8841,83.8538  40.8538,83.1159  40.1159,74.1462  31.1462,74.8841  31.8841,83.8538 " style="fill:rgb(255,255,255)"/>
   <polyline points="65.6167,84.8011  68.8011,76.3833  60.3833,73.1989  57.1989,81.6167  65.6167,84.8011 " style="fill:rgb(255,255,255)"/>
   <polyline points="52.887,78.5827  44.5827,75.113  41.113,83.4173  49.4173,86.887  52.887,78.5827 " style="fill:rgb(255,255,255)"/>
   <polyline points="79.3186,83.7585  73.7585,76.6814  66.6814,82.2415  72.2415,89.3186  79.3186,83.7585 " style="fill:rgb(255,255,255)"/>
   <polyline points="10.6493,89.6445  19.6445,89.3507  19.3507,80.3555  10.3555,80.6493  10.6493,89.6445 " style="fill:rgb(254,254,254)"/>
   <polyline points="21.5834,89.5819  30.5819,89.4166  30.4166,80.4181  21.4181,80.5834  21.5834,89.5819 " style="fill:rgb(255,255,255)"/>
   <polyline points="86.9682,89.9239  95.9239,89.0318  95.0318,80.0761  86.0761,80.9682  86.9682,89.9239 " style="fill:rgb(255,255,255)"/>
   <polyline points="116.0114,89.9405  116.9405,80.9886  107.9886,80.0595  107.0595,89.0114  116.0114,89.9405 " style="fill:rgb(255,255,255)"/>
   <polyline points="127.8198,89.1556  127.1556,80.1802  118.1802,80.8444  118.8444,89.8198  127.8198,89.1556 " style="fill:rgb(255,255,255)"/>
   <polyline points="137.0973,90.5594  139.5594,81.9027  130.9027,79.4406  128.4406,88.0973  137.0973,90.5594 " style="fill:rgb(255,255,255)"/>
   <polyline points="151.017,88.9153  149.9153,79.983  140.983,81.0847  142.0847,90.017  151.017,88.9153 " style="fill:rgb(255,255,255)"/>
   <polyline points="159.9031,90.6632  162.6632,82.0969  154.0969,79.3368  151.3368,87.9031  159.9031,90.6632 " style="fill:rgb(255,255,255)"/>
   <polyline points="174.1981,88.6715  172.6715,79.8019  163.8019,81.3285  165.3285,90.1981  174.1981,88.6715 " style="fill:rgb(255,255,255)"/>
   <polyline points="203.3372,90.2042  212.2042,88.6628  210.6628,79.7958  201.7958,81.3372  203.3372,90.2042 " style="fill:rgb(255,255,255)"/>
   <polyline points="221.5029,89.4971  221.4971,80.4971  212.4971,80.5029  212.5029,89.5029  221.5029,89.4971 " style="fill:rgb(255,255,255)"/>
   <polyline points="232.5,89.5  232.5,80.5  223.5,80.5  223.5,89.5  232.5,89.5 " style="fill:rgb(255,255,255)"/>
   <polyline points="243.5,89.5  243.5,80.5  234.5,80.5  234.5,89.5  243.5,89.5 " style="fill:rgb(255,255,255)"/>
   <polyline points="252.5,89.5  252.5,80.5  243.5,80.5  243.5,89.5  252.5,89.5 " style="fill:rgb(255,255,255)"/>
   <polyline points="261.5,89.5  261.5,80.5  252.5,80.5  252.5,89.5  261.5,89.5 " style="fill:rgb(255,255,255)"/>
   <polyline points="270.5,89.5  270.5,80.5  261.5,80.5  261.5,89.5  270.5,89.5 " style="fill:rgb(255,255,255)"/>
   <polyline points="279.5,89.5  279.5,80.5  270.5,80.5  270.5,89.5  279.5,89.5 " style="fill:rgb(255,255,255)"/>
   <polyline points="288.5,89.5  288.5,80.5  279.5,80.5  279.5,89.5  288.5,89.5 " style="fill:rgb(255,255,255)"/>
   <polyline points="297.5,89.5  297.5,80.5  288.5,80.5  288.5,89.5  297.5,89.5 " style="fill:rgb(255,255,255)"/>
   <polyline points="182.8287,93.0956  187.0956,85.1713  179.1713,80.9044  174.9044,88.8287  182.8287,93.0956 " style="fill:rgb(255,255,255)"/>
   <polyline points="193.4972,93.184  201.184,88.5028  196.5028,80.816  188.816,85.4972  193.4972,93.184 " style="fill:rgb(255,255,255)"/>
   <polyline points="40.5957,94.2508  42.2508,85.4043  33.4043,83.7492  31.7492,92.5957  40.5957,94.2508 " style="fill:rgb(255,255,255)"/>
   <polyline points="60.3256,85.5161  51.5161,83.6744  49.6744,92.4839  58.4839,94.3256  60.3256,85.5161 " style="fill:rgb(255,255,255)"/>
   <polyline points="103.748,94.7401  106.7401,86.252  98.252,83.2599  95.2599,91.748  103.748,94.7401 " style="fill:rgb(255,255,255)"/>
   <polyline points="60.7142,95.7045  69.7045,95.2858  69.2858,86.2955  60.2955,86.7142  60.7142,95.7045 " style="fill:rgb(255,255,255)"/>
   <polyline points="13.1008,91.1888  5.1888,86.8992  0.89921,94.8112  8.8112,99.1008  13.1008,91.1888 " style="fill:rgb(255,255,255)"/>
   <polyline points="83.3531,93.3722  77.3722,86.6469  70.6469,92.6278  76.6278,99.3531  83.3531,93.3722 " style="fill:rgb(255,255,255)"/>
   <polyline points="21.7317,100.4606  30.4606,98.2683  28.2683,89.5394  19.5394,91.7317  21.7317,100.4606 " style="fill:rgb(255,255,255)"/>
   <polyline points="128.0602,98.8593  126.8593,89.9398  117.9398,91.1407  119.1407,100.0602  128.0602,98.8593 " style="fill:rgb(255,255,255)"/>
   <polyline points="139.0505,100.5852  141.5852,91.9495  132.9495,89.4148  130.4148,98.0505  139.0505,100.5852 " style="fill:rgb(255,255,255)"/>
   <polyline points="152.6872,99.3046  152.3046,90.3128  143.3128,90.6954  143.6954,99.6872  152.6872,99.3046 " style="fill:rgb(255,255,255)"/>
   <polyline points="169.3595,94.7614  162.7614,88.6405  156.6405,95.2386  163.2386,101.3595  169.3595,94.7614 " style="fill:rgb(255,255,255)"/>
   <polyline points="177.8525,100.0654  179.0654,91.1475  170.1475,89.9346  168.9346,98.8525  177.8525,100.0654 " style="fill:rgb(255,255,255)"/>
   <polyline points="199.3534,100.2156  208.2156,98.6466  206.6466,89.7844  197.7844,91.3534  199.3534,100.2156 " style="fill:rgb(255,255,255)"/>
   <polyline points="209.1243,100.0476  218.0476,98.8757  216.8757,89.9524  207.9524,91.1243  209.1243,100.0476 " style="fill:rgb(255,255,255)"/>
   <polyline points="229.0882,98.8223  227.8223,89.9118  218.9118,91.1777  220.1777,100.0882  229.0882,98.8223 " style="fill:rgb(255,255,255)"/>
   <polyline points="239.5,99.5  239.5,90.5  230.5,90.5  230.5,99.5  239.5,99.5 " style="fill:rgb(255,255,255)"/>
   <polyline points="250.5,99.5  250.5,90.5  241.5,90.5  241.5,99.5  250.5,99.5 " style="fill:rgb(255,255,255)"/>
   <polyline points="259.5,99.5  259.5,90.5  250.5,90.5  250.5,99.5  259.5,99.5 " style="fill:rgb(255,255,255)"/>
   <polyline points="268.5,99.5  268.5,90.5  259.5,90.5  259.5,99.5  268.5,99.5 " style="fill:rgb(255,255,255)"/>
   <polyline points="277.5,99.5  277.5,90.5  268.5,90.5  268.5,99.5  277.5,99.5 " style="fill:rgb(255,255,255)"/>
   <polyline points="286.5,99.5  286.5,90.5  277.5,90.5  277.5,99.5  286.5,99.5 " style="fill:rgb(255,255,255)"/>
   <polyline points="295.5,99.5  295.5,90.5  286.5,90.5  286.5,99.5  295.5,99.5 " style="fill:rgb(255,255,255)"/>
   <polyline points="48.8679,102.0537  50.0537,93.1321  41.1321,91.9463  39.9463,100.8679  48.8679,102.0537 " style="fill:rgb(254,254,254)"/>
   <polyline points="87.367,103.3324  94.3324,97.633  88.633,90.6676  81.6676,96.367  87.367,103.3324 " style="fill:rgb(255,255,255)"/>
   <polyline points="108.2029,103.1049  116.1049,98.7971  111.7971,90.8951  103.8951,95.2029  108.2029,103.1049 " style="fill:rgb(255,255,255)"/>
   <polyline points="182.8082,102.5057  191.5057,100.1918  189.1918,91.4943  180.4943,93.8082  182.8082,102.5057 " style="fill:rgb(255,255,255)"/>
   <polyline points="39.6716,103.3216  39.3216,94.3284  30.3284,94.6784  30.6784,103.6716  39.6716,103.3216 " style="fill:rgb(254,254,254)"/>
   <polyline points="19.6548,96.6603  10.6603,96.3452  10.3452,105.3397  19.3397,105.6548  19.6548,96.6603 " style="fill:rgb(254,254,254)"/>
   <polyline points="57.155,106.5269  59.5269,97.845  50.845,95.4731  48.4731,104.155  57.155,106.5269 " style="fill:rgb(254,254,254)"/>
   <polyline points="67.507,106.3105  69.3105,97.493  60.493,95.6895  58.6895,104.507  67.507,106.3105 " style="fill:rgb(254,254,254)"/>
   <polyline points="98.1063,107.3631  104.3631,100.8937  97.8937,94.6369  91.6369,101.1063  98.1063,107.3631 " style="fill:rgb(254,254,254)"/>
   <polyline points="79.5058,109.4942  79.4942,100.4942  70.4942,100.5058  70.5058,109.5058  79.5058,109.4942 " style="fill:rgb(255,255,255)"/>
   <polyline points="113.8839,111.0018  122.0018,107.1161  118.1161,98.9982  109.9982,102.8839  113.8839,111.0018 " style="fill:rgb(255,255,255)"/>
   <polyline points="134.0017,107.1164  130.1164,98.9983  121.9983,102.8836  125.8836,111.0017  134.0017,107.1164 " style="fill:rgb(255,255,255)"/>
   <polyline points="149.3346,110.4204  151.4204,101.6654  142.6654,99.5796  140.5796,108.3346  149.3346,110.4204 " style="fill:rgb(255,255,255)"/>
   <polyline points="164.0776,103.1125  156.1125,98.9224  151.9224,106.8875  159.8875,111.0776  164.0776,103.1125 " style="fill:rgb(255,255,255)"/>
   <polyline points="173.3349,110.4202  175.4202,101.6651  166.6651,99.5798  164.5798,108.3349  173.3349,110.4202 " style="fill:rgb(255,255,255)"/>
   <polyline points="201.0899,101.1799  192.1799,99.9101  190.9101,108.8201  199.8201,110.0899  201.0899,101.1799 " style="fill:rgb(255,255,255)"/>
   <polyline points="211.908,100.9489  202.9489,100.092  202.092,109.0511  211.0511,109.908  211.908,100.9489 " style="fill:rgb(255,255,255)"/>
   <polyline points="222.8127,100.8361  213.8361,100.1873  213.1873,109.1639  222.1639,109.8127  222.8127,100.8361 " style="fill:rgb(255,255,255)"/>
   <polyline points="233.7974,100.8185  224.8185,100.2026  224.2026,109.1815  233.1815,109.7974  233.7974,100.8185 " style="fill:rgb(255,255,255)"/>
   <polyline points="244.5002,109.4998  244.4998,100.4998  235.4998,100.5002  235.5002,109.5002  244.5002,109.4998 " style="fill:rgb(255,255,255)"/>
   <polyline points="255.5,109.5  255.5,100.5  246.5,100.5  246.5,109.5  255.5,109.5 " style="fill:rgb(255,255,255)"/>
   <polyline points="266.5,109.5  266.5,100.5  257.5,100.5  257.5,109.5  266.5,109.5 " style="fill:rgb(255,255,255)"/>
   <polyline points="275.5,109.5  275.5,100.5  266.5,100.5  266.5,109.5  275.5,109.5 " style="fill:rgb(255,255,255)"/>
   <polyline points="284.5,109.5  284.5,100.5  275.5,100.5  275.5,109.5  284.5,109.5 " style="fill:rgb(255,255,255)"/>
   <polyline points="293.5,109.5  293.5,100.5  284.5,100.5  284.5,109.5  293.5,109.5 " style="fill:rgb(255,255,255)"/>
   <polyline points="27.8921,112.6689  30.6689,104.1079  22.1079,101.3311  19.3311,109.8921  27.8921,112.6689 " style="fill:rgb(255,255,255)"/>
   <polyline points="111.3638,107.0438  105.0438,100.6362  98.6362,106.9562  104.9562,113.3638  111.3638,107.0438 " style="fill:rgb(255,255,255)"/>
   <polyline points="41.053,113.9065  41.9065,104.947  32.947,104.0935  32.0935,113.053  41.053,113.9065 " style="fill:rgb(254,254,254)"/>
   <polyline points="90.4903,113.5097  90.5097,104.5097  81.5097,104.4903  81.4903,113.4903  90.4903,113.5097 " style="fill:rgb(255,255,255)"/>
   <polyline points="187.323,108.2792  180.2792,102.677  174.677,109.7208  181.7208,115.323  187.323,108.2792 " style="fill:rgb(255,255,255)"/>
   <polyline points="9.6631,106.6692  0.66923,106.3369  0.33691,115.3308  9.3308,115.6631  9.6631,106.6692 " style="fill:rgb(254,254,254)"/>
   <polyline points="44.4477,116.2802  53.2802,114.5523  51.5523,105.7198  42.7198,107.4477  44.4477,116.2802 " style="fill:rgb(255,255,255)"/>
   <polyline points="66.4976,115.5024  66.5024,106.5024  57.5024,106.4976  57.4976,115.4976  66.4976,115.5024 " style="fill:rgb(254,254,254)"/>
   <polyline points="10.5653,119.5644  19.5644,119.4347  19.4347,110.4356  10.4356,110.5653  10.5653,119.5644 " style="fill:rgb(254,254,254)"/>
   <polyline points="76.5,119.5  76.5,110.5  67.5,110.5  67.5,119.5  76.5,119.5 " style="fill:rgb(255,255,255)"/>
   <polyline points="92.666,119.6601  101.6601,119.334  101.334,110.3399  92.3399,110.666  92.666,119.6601 " style="fill:rgb(255,255,255)"/>
   <polyline points="126.2036,116.4196  121.4196,108.7964  113.7964,113.5804  118.5804,121.2036  126.2036,116.4196 " style="fill:rgb(255,255,255)"/>
   <polyline points="131.7226,121.3579  138.3579,115.2774  132.2774,108.6421  125.6421,114.7226  131.7226,121.3579 " style="fill:rgb(255,255,255)"/>
   <polyline points="153.211,119.7715  153.7715,110.789  144.789,110.2285  144.2285,119.211  153.211,119.7715 " style="fill:rgb(255,255,255)"/>
   <polyline points="170.3479,114.5483  163.5483,108.6521  157.6521,115.4517  164.4517,121.3479  170.3479,114.5483 " style="fill:rgb(255,255,255)"/>
   <polyline points="188.496,120.3125  197.3125,118.504  195.504,109.6875  186.6875,111.496  188.496,120.3125 " style="fill:rgb(255,255,255)"/>
   <polyline points="198.0969,120.0265  207.0265,118.9031  205.9031,109.9735  196.9735,111.0969  198.0969,120.0265 " style="fill:rgb(255,255,255)"/>
   <polyline points="208.9282,119.8909  217.8909,119.0718  217.0718,110.1091  208.1091,110.9282  208.9282,119.8909 " style="fill:rgb(255,255,255)"/>
   <polyline points="219.8445,119.82  228.82,119.1555  228.1555,110.18  219.18,110.8445  219.8445,119.82 " style="fill:rgb(255,255,255)"/>
   <polyline points="230.7953,119.7771  239.7771,119.2047  239.2047,110.2229  230.2229,110.7953  230.7953,119.7771 " style="fill:rgb(255,255,255)"/>
   <polyline points="250.5149,119.485  250.485,110.4851  241.4851,110.515  241.515,119.5149  250.5149,119.485 " style="fill:rgb(255,255,255)"/>
   <polyline points="261.5,119.5  261.5,110.5  252.5,110.5  252.5,119.5  261.5,119.5 " style="fill:rgb(255,255,255)"/>
   <polyline points="272.5,119.5  272.5,110.5  263.5,110.5  263.5,119.5  272.5,119.5 " style="fill:rgb(255,255,255)"/>
   <polyline points="283.5,119.5  283.5,110.5  274.5,110.5  274.5,119.5  283.5,119.5 " style="fill:rgb(255,255,255)"/>
   <polyline points="294.5,119.5  294.5,110.5  285.5,110.5  285.5,119.5  294.5,119.5 " style="fill:rgb(255,255,255)"/>
   <polyline points="107.8619,123.2614  115.2614,118.1381  110.1381,110.7386  102.7386,115.8619  107.8619,123.2614 " style="fill:rgb(255,255,255)"/>
   <polyline points="32.5551,122.1051  30.1051,113.4449  21.4449,115.8949  23.8949,124.5551  32.5551,122.1051 " style="fill:rgb(255,255,255)"/>
   <polyline points="87.5665,123.4325  87.4325,114.4335  78.4335,114.5675  78.5675,123.5665  87.5665,123.4325 " style="fill:rgb(254,254,254)"/>
   <polyline points="178.3947,124.8962  181.8962,116.6053  173.6053,113.1038  170.1038,121.3947  178.3947,124.8962 " style="fill:rgb(255,255,255)"/>
   <polyline points="42.9992,125.9504  43.9504,117.0008  35.0008,116.0496  34.0496,124.9992  42.9992,125.9504 " style="fill:rgb(254,254,254)"/>
   <polyline points="55.4461,126.3502  57.3502,117.5539  48.5539,115.6498  46.6498,124.4461  55.4461,126.3502 " style="fill:rgb(255,255,255)"/>
   <polyline points="66.4987,125.5013  66.5013,116.5013  57.5013,116.4987  57.4987,125.4987  66.4987,125.5013 " style="fill:rgb(255,255,255)"/>
   <polyline points="133.3633,123.0933  127.0933,116.6367  120.6367,122.9067  126.9067,129.3633  133.3633,123.0933 " style="fill:rgb(255,255,255)"/>
   <polyline points="145.3265,119.5175  136.5175,117.6735  134.6735,126.4825  143.4825,128.3265  145.3265,119.5175 " style="fill:rgb(255,255,255)"/>
   <polyline points="9.7229,120.7345  0.73449,120.2771  0.27714,129.2655  9.2655,129.7229  9.7229,120.7345 " style="fill:rgb(255,255,255)"/>
   <polyline points="20.5133,120.5134  11.5134,120.4867  11.4867,129.4866  20.4866,129.5133  20.5133,120.5134 " style="fill:rgb(254,254,254)"/>
   <polyline points="77.5,129.5  77.5,120.5  68.5,120.5  68.5,129.5  77.5,129.5 " style="fill:rgb(254,254,254)"/>
   <polyline points="95.6402,130.22  97.22,121.3598  88.3598,119.78  86.78,128.6402  95.6402,130.22 " style="fill:rgb(254,254,254)"/>
   <polyline points="145.5,129.5  154.5,129.5  154.5,120.5  145.5,120.5  145.5,129.5 " style="fill:rgb(254,254,254)"/>
   <polyline points="180.5,129.5  189.5,129.5  189.5,120.5  180.5,120.5  180.5,129.5 " style="fill:rgb(255,255,255)"/>
   <polyline points="191.5,129.5  200.5,129.5  200.5,120.5  191.5,120.5  191.5,129.5 " style="fill:rgb(255,255,255)"/>
   <polyline points="202.5,129.5  211.5,129.5  211.5,120.5  202.5,120.5  202.5,129.5 " style="fill:rgb(255,255,255)"/>
   <polyline points="213.5,129.5  222.5,129.5  222.5,120.5  213.5,120.5  213.5,129.5 " style="fill:rgb(255,255,255)"/>
   <polyline points="224.5,129.5  233.5,129.5  233.5,120.5  224.5,120.5  224.5,129.5 " style="fill:rgb(255,255,255)"/>
   <polyline points="235.5634,129.5625  244.5625,129.4366  244.4366,120.4375  235.4375,120.5634  235.5634,129.5625 " style="fill:rgb(255,255,255)"/>
   <polyline points="255.5,129.5  255.5,120.5  246.5,120.5  246.5,129.5  255.5,129.5 " style="fill:rgb(255,255,255)"/>
   <polyline points="266.5,129.5  266.5,120.5  257.5,120.5  257.5,129.5  266.5,129.5 " style="fill:rgb(255,255,255)"/>
   <polyline points="277.5,129.5  277.5,120.5  268.5,120.5  268.5,129.5  277.5,129.5 " style="fill:rgb(255,255,255)"/>
   <polyline points="288.4895,129.5104  288.5104,120.5105  279.5105,120.4896  279.4896,129.4895  288.4895,129.5104 " style="fill:rgb(255,255,255)"/>
   <polyline points="299.2777,129.7118  299.7118,120.7223  290.7223,120.2882  290.2882,129.2777  299.2777,129.7118 " style="fill:rgb(255,255,255)"/>
   <polyline points="102.6772,133.3558  109.3558,127.3228  103.3228,120.6442  96.6442,126.6772  102.6772,133.3558 " style="fill:rgb(255,255,255)"/>
   <polyline points="112.5213,132.329  121.329,130.4787  119.4787,121.671  110.671,123.5213  112.5213,132.329 " style="fill:rgb(255,255,255)"/>
   <polyline points="159.1866,132.7083  167.7083,129.8134  164.8134,121.2917  156.2917,124.1866  159.1866,132.7083 " style="fill:rgb(255,255,255)"/>
   <polyline points="34.4914,134.3207  36.3207,125.5086  27.5086,123.6793  25.6793,132.4914  34.4914,134.3207 " style="fill:rgb(255,255,255)"/>
   <polyline points="48.8656,133.4687  45.4687,125.1344  37.1344,128.5313  40.5313,136.8656  48.8656,133.4687 " style="fill:rgb(255,255,255)"/>
   <polyline points="59.451,135.5485  59.5485,126.549  50.549,126.4515  50.4515,135.451  59.451,135.5485 " style="fill:rgb(254,254,254)"/>
   <polyline points="179.083,134.8293  177.8293,125.917  168.917,127.1707  170.1707,136.083  179.083,134.8293 " style="fill:rgb(255,255,255)"/>
   <polyline points="137.327,133.6849  131.6849,126.673  124.673,132.3151  130.3151,139.327  137.327,133.6849 " style="fill:rgb(255,255,255)"/>
   <polyline points="9.6512,130.6564  0.65643,130.3488  0.34883,139.3436  9.3436,139.6512  9.6512,130.6564 " style="fill:rgb(254,254,254)"/>
   <polyline points="20.5237,130.5238  11.5238,130.4763  11.4763,139.4762  20.4762,139.5237  20.5237,130.5238 " style="fill:rgb(254,254,254)"/>
   <polyline points="69.4996,139.5004  69.5004,130.5004  60.5004,130.4996  60.4996,139.4996  69.4996,139.5004 " style="fill:rgb(254,254,254)"/>
   <polyline points="80.5,139.5  80.5,130.5  71.5,130.5  71.5,139.5  80.5,139.5 " style="fill:rgb(254,254,254)"/>
   <polyline points="91.5323,139.4674  91.4674,130.4677  82.4677,130.5326  82.5326,139.5323  91.5323,139.4674 " style="fill:rgb(254,254,254)"/>
   <polyline points="145.412,141.2053  150.2053,133.588  142.588,128.7947  137.7947,136.412  145.412,141.2053 " style="fill:rgb(255,255,255)"/>
   <polyline points="195.4134,131.6541  186.6541,129.5866  184.5866,138.3459  193.3459,140.4134  195.4134,131.6541 " style="fill:rgb(255,255,255)"/>
   <polyline points="205.065,131.147  196.147,129.935  194.935,138.853  203.853,140.065  205.065,131.147 " style="fill:rgb(255,255,255)"/>
   <polyline points="215.9089,130.95  206.95,130.0911  206.0911,139.05  215.05,139.9089  215.9089,130.95 " style="fill:rgb(255,255,255)"/>
   <polyline points="226.8301,130.8564  217.8564,130.1699  217.1699,139.1436  226.1436,139.8301  226.8301,130.8564 " style="fill:rgb(255,255,255)"/>
   <polyline points="239.4114,139.5869  239.5869,130.5886  230.5886,130.4131  230.4131,139.4114  239.4114,139.5869 " style="fill:rgb(255,255,255)"/>
   <polyline points="250.5,139.5  250.5,130.5  241.5,130.5  241.5,139.5  250.5,139.5 " style="fill:rgb(255,255,255)"/>
   <polyline points="261.5,139.5  261.5,130.5  252.5,130.5  252.5,139.5  261.5,139.5 " style="fill:rgb(255,255,255)"/>
   <polyline points="272.5,139.5  272.5,130.5  263.5,130.5  263.5,139.5  272.5,139.5 " style="fill:rgb(255,255,255)"/>
   <polyline points="283.4985,139.5015  283.5015,130.5015  274.5015,130.4985  274.4985,139.4985  283.4985,139.5015 " style="fill:rgb(255,255,255)"/>
   <polyline points="294.4038,139.5942  294.5942,130.5962  285.5962,130.4058  285.4058,139.4038  294.4038,139.5942 " style="fill:rgb(255,255,255)"/>
   <polyline points="102.2376,133.3851  93.3851,131.7624  91.7624,140.6149  100.6149,142.2376  102.2376,133.3851 " style="fill:rgb(255,255,255)"/>
   <polyline points="113.6375,132.6419  104.6419,132.3625  104.3625,141.3581  113.3581,141.6375  113.6375,132.6419 " style="fill:rgb(255,255,255)"/>
   <polyline points="115.5007,141.5007  124.5007,141.4993  124.4993,132.4993  115.4993,132.5007  115.5007,141.5007 " style="fill:rgb(255,255,255)"/>
   <polyline points="160.5,141.5  169.5,141.5  169.5,132.5  160.5,132.5  160.5,141.5 " style="fill:rgb(255,255,255)"/>
   <polyline points="34.9314,136.6938  26.6938,133.0686  23.0686,141.3062  31.3062,144.9314  34.9314,136.6938 " style="fill:rgb(255,255,255)"/>
   <polyline points="154.412,145.2053  159.2053,137.588  151.588,132.7947  146.7947,140.412  154.412,145.2053 " style="fill:rgb(255,255,255)"/>
   <polyline points="53.2467,142.2161  48.2161,134.7533  40.7533,139.7839  45.7839,147.2467  53.2467,142.2161 " style="fill:rgb(255,255,255)"/>
   <polyline points="179.8067,147.361  186.361,141.1933  180.1933,134.639  173.639,140.8067  179.8067,147.361 " style="fill:rgb(255,255,255)"/>
   <polyline points="132.2725,149.3222  139.3222,143.7275  133.7275,136.6778  126.6778,142.2725  132.2725,149.3222 " style="fill:rgb(255,255,255)"/>
   <polyline points="17.3378,144.4238  10.4238,138.6622  4.6622,145.5762  11.5762,151.3378  17.3378,144.4238 " style="fill:rgb(254,254,254)"/>
   <polyline points="63.4899,149.5101  63.5101,140.5101  54.5101,140.4899  54.4899,149.4899  63.4899,149.5101 " style="fill:rgb(255,255,255)"/>
   <polyline points="74.5,149.5  74.5,140.5  65.5,140.5  65.5,149.5  74.5,149.5 " style="fill:rgb(255,255,255)"/>
   <polyline points="85.4996,149.5004  85.5004,140.5004  76.5004,140.4996  76.4996,149.4996  85.4996,149.5004 " style="fill:rgb(255,255,255)"/>
   <polyline points="190.2503,150.142  199.142,148.7497  197.7497,139.858  188.858,141.2503  190.2503,150.142 " style="fill:rgb(255,255,255)"/>
   <polyline points="199.9951,149.9458  208.9458,149.0049  208.0049,140.0542  199.0542,140.9951  199.9951,149.9458 " style="fill:rgb(255,255,255)"/>
   <polyline points="210.8639,149.8366  219.8366,149.1361  219.1361,140.1634  210.1634,140.8639  210.8639,149.8366 " style="fill:rgb(255,255,255)"/>
   <polyline points="230.4212,149.5774  230.5774,140.5788  221.5788,140.4226  221.4226,149.4212  230.4212,149.5774 " style="fill:rgb(255,255,255)"/>
   <polyline points="241.5,149.5  241.5,140.5  232.5,140.5  232.5,149.5  241.5,149.5 " style="fill:rgb(255,255,255)"/>
   <polyline points="252.5,149.5  252.5,140.5  243.5,140.5  243.5,149.5  252.5,149.5 " style="fill:rgb(255,255,255)"/>
   <polyline points="263.5,149.5  263.5,140.5  254.5,140.5  254.5,149.5  263.5,149.5 " style="fill:rgb(255,255,255)"/>
   <polyline points="274.5,149.5  274.5,140.5  265.5,140.5  265.5,149.5  274.5,149.5 " style="fill:rgb(255,255,255)"/>
   <polyline points="285.4944,149.5056  285.5056,140.5056  276.5056,140.4944  276.4944,149.4944  285.4944,149.5056 " style="fill:rgb(255,255,255)"/>
   <polyline points="296.3101,149.6822  296.6822,140.6899  287.6899,140.3178  287.3178,149.3101  296.3101,149.6822 " style="fill:rgb(255,255,255)"/>
   <polyline points="41.3719,151.6246  41.6246,142.6281  32.6281,142.3754  32.3754,151.3719  41.3719,151.6246 " style="fill:rgb(254,254,254)"/>
   <polyline points="96.6497,151.3452  96.3452,142.3503  87.3503,142.6548  87.6548,151.6497  96.6497,151.3452 " style="fill:rgb(255,255,255)"/>
   <polyline points="109.3586,146.7388  102.7388,140.6414  96.6414,147.2612  103.2612,153.3586  109.3586,146.7388 " style="fill:rgb(255,255,255)"/>
   <polyline points="121.3285,143.5205  112.5205,141.6715  110.6715,150.4795  119.4795,152.3285  121.3285,143.5205 " style="fill:rgb(255,255,255)"/>
   <polyline points="148.7577,142.7734  139.7734,142.2423  139.2423,151.2266  148.2266,151.7577  148.7577,142.7734 " style="fill:rgb(255,255,255)"/>
   <polyline points="168.4285,143.6786  159.6786,141.5715  157.5715,150.3214  166.3214,152.4285  168.4285,143.6786 " style="fill:rgb(255,255,255)"/>
   <polyline points="18.7784,153.7621  27.7621,153.2216  27.2216,144.2379  18.2379,144.7784  18.7784,153.7621 " style="fill:rgb(255,255,255)"/>
   <polyline points="46.5795,156.8857  54.8857,153.4205  51.4205,145.1143  43.1143,148.5795  46.5795,156.8857 " style="fill:rgb(255,255,255)"/>
   <polyline points="128.7909,156.1117  130.1117,147.2091  121.2091,145.8883  119.8883,154.7909  128.7909,156.1117 " style="fill:rgb(255,255,255)"/>
   <polyline points="176.0625,157.0205  180.0205,148.9375  171.9375,144.9795  167.9795,153.0625  176.0625,157.0205 " style="fill:rgb(255,255,255)"/>
   <polyline points="65.4998,159.5002  65.5002,150.5002  56.5002,150.4998  56.4998,159.4998  65.4998,159.5002 " style="fill:rgb(254,254,254)"/>
   <polyline points="76.5,159.5  76.5,150.5  67.5,150.5  67.5,159.5  76.5,159.5 " style="fill:rgb(254,254,254)"/>
   <polyline points="87.5015,159.4985  87.4985,150.4985  78.4985,150.5015  78.5015,159.5015  87.5015,159.4985 " style="fill:rgb(254,254,254)"/>
   <polyline points="160.3436,155.5093  154.5093,148.6564  147.6564,154.4907  153.4907,161.3436  160.3436,155.5093 " style="fill:rgb(255,255,255)"/>
   <polyline points="189.9421,152.7215  181.7215,149.0579  178.0579,157.2785  186.2785,160.9421  189.9421,152.7215 " style="fill:rgb(255,255,255)"/>
   <polyline points="203.2397,151.3881  194.3881,149.7603  192.7603,158.6119  201.6119,160.2397  203.2397,151.3881 " style="fill:rgb(255,255,255)"/>
   <polyline points="212.8599,150.8914  203.8914,150.1401  203.1401,159.1086  212.1086,159.8599  212.8599,150.8914 " style="fill:rgb(255,255,255)"/>
   <polyline points="223.4948,159.5052  223.5052,150.5052  214.5052,150.4948  214.4948,159.4948  223.4948,159.5052 " style="fill:rgb(255,255,255)"/>
   <polyline points="234.5,159.5  234.5,150.5  225.5,150.5  225.5,159.5  234.5,159.5 " style="fill:rgb(255,255,255)"/>
   <polyline points="245.5,159.5  245.5,150.5  236.5,150.5  236.5,159.5  245.5,159.5 " style="fill:rgb(255,255,255)"/>
   <polyline points="256.5,159.5  256.5,150.5  247.5,150.5  247.5,159.5  256.5,159.5 " style="fill:rgb(255,255,255)"/>
   <polyline points="267.5,159.5  267.5,150.5  258.5,150.5  258.5,159.5  267.5,159.5 " style="fill:rgb(255,255,255)"/>
   <polyline points="278.4998,159.5002  278.5002,150.5002  269.5002,150.4998  269.4998,159.4998  278.4998,159.5002 " style="fill:rgb(255,255,255)"/>
   <polyline points="289.4629,159.5368  289.5368,150.5371  280.5371,150.4632  280.4632,159.4629  289.4629,159.5368 " style="fill:rgb(255,255,255)"/>
   <polyline points="2.5182,161.5181  11.5181,161.4818  11.4818,152.4819  2.4819,152.5182  2.5182,161.5181 " style="fill:rgb(255,255,255)"/>
   <polyline points="40.9519,160.9973  39.9973,152.0481  31.0481,153.0027  32.0027,161.9519  40.9519,160.9973 " style="fill:rgb(254,254,254)"/>
   <polyline points="96.5219,162.3006  98.3006,153.4781  89.4781,151.6994  87.6994,160.5219  96.5219,162.3006 " style="fill:rgb(255,255,255)"/>
   <polyline points="113.2773,155.9535  105.9535,150.7227  100.7227,158.0465  108.0465,163.2773  113.2773,155.9535 " style="fill:rgb(255,255,255)"/>
   <polyline points="141.462,160.2659  139.2659,151.538  130.538,153.7341  132.7341,162.462  141.462,160.2659 " style="fill:rgb(255,255,255)"/>
   <polyline points="21.5332,154.5335  12.5335,154.4668  12.4668,163.4665  21.4665,163.5332  21.5332,154.5335 " style="fill:rgb(255,255,255)"/>
   <polyline points="163.5483,165.3479  170.3479,159.4517  164.4517,152.6521  157.6521,158.5483  163.5483,165.3479 " style="fill:rgb(255,255,255)"/>
   <polyline points="46.3295,166.7765  54.7765,163.6705  51.6705,155.2235  43.2235,158.3295  46.3295,166.7765 " style="fill:rgb(254,254,254)"/>
   <polyline points="114.5013,165.5013  123.5013,165.4987  123.4987,156.4987  114.4987,156.5013  114.5013,165.5013 " style="fill:rgb(255,255,255)"/>
   <polyline points="298.0984,165.8686  298.8686,156.9016  289.9016,156.1314  289.1314,165.0984  298.0984,165.8686 " style="fill:rgb(255,255,255)"/>
   <polyline points="177.8501,168.6901  180.6901,160.1499  172.1499,157.3099  169.3099,165.8501  177.8501,168.6901 " style="fill:rgb(255,255,255)"/>
   <polyline points="65.4976,169.5024  65.5024,160.5024  56.5024,160.4976  56.4976,169.4976  65.4976,169.5024 " style="fill:rgb(255,255,255)"/>
   <polyline points="76.5,169.5  76.5,160.5  67.5,160.5  67.5,169.5  76.5,169.5 " style="fill:rgb(255,255,255)"/>
   <polyline points="87.5024,169.4976  87.4976,160.4976  78.4976,160.5024  78.5024,169.5024  87.5024,169.4976 " style="fill:rgb(255,255,255)"/>
   <polyline points="150.0588,166.9471  145.9471,158.9412  137.9412,163.0529  142.0529,171.0588  150.0588,166.9471 " style="fill:rgb(255,255,255)"/>
   <polyline points="187.0737,170.6513  195.6513,167.9263  192.9263,159.3487  184.3487,162.0737  187.0737,170.6513 " style="fill:rgb(255,255,255)"/>
   <polyline points="210.4045,169.5935  210.5935,160.5955  201.5955,160.4065  201.4065,169.4045  210.4045,169.5935 " style="fill:rgb(255,255,255)"/>
   <polyline points="221.5001,169.4999  221.4999,160.4999  212.4999,160.5001  212.5001,169.5001  221.5001,169.4999 " style="fill:rgb(255,255,255)"/>
   <polyline points="232.5,169.5  232.5,160.5  223.5,160.5  223.5,169.5  232.5,169.5 " style="fill:rgb(255,255,255)"/>
   <polyline points="243.5,169.5  243.5,160.5  234.5,160.5  234.5,169.5  243.5,169.5 " style="fill:rgb(255,255,255)"/>
   <polyline points="254.5,169.5  254.5,160.5  245.5,160.5  245.5,169.5  254.5,169.5 " style="fill:rgb(255,255,255)"/>
   <polyline points="265.5,169.5  265.5,160.5  256.5,160.5  256.5,169.5  265.5,169.5 " style="fill:rgb(255,255,255)"/>
   <polyline points="276.4999,169.5001  276.5001,160.5001  267.5001,160.4999  267.4999,169.4999  276.4999,169.5001 " style="fill:rgb(255,255,255)"/>
   <polyline points="287.4763,169.5236  287.5236,160.5237  278.5237,160.4764  278.4764,169.4763  287.4763,169.5236 " style="fill:rgb(255,255,255)"/>
   <polyline points="30.8145,169.5869  27.5869,161.1855  19.1855,164.4131  22.4131,172.8145  30.8145,169.5869 " style="fill:rgb(255,255,255)"/>
   <polyline points="40.3409,170.4604  38.4604,161.6591  29.6591,163.5396  31.5396,172.3409  40.3409,170.4604 " style="fill:rgb(254,254,254)"/>
   <polyline points="93.9663,172.5944  102.5944,170.0337  100.0337,161.4056  91.4056,163.9663  93.9663,172.5944 " style="fill:rgb(255,255,255)"/>
   <polyline points="130.4055,173.2068  135.2068,165.5945  127.5945,160.7932  122.7932,168.4055  130.4055,173.2068 " style="fill:rgb(255,255,255)"/>
   <polyline points="156.2723,173.3222  163.3222,167.7277  157.7277,160.6778  150.6778,166.2723  156.2723,173.3222 " style="fill:rgb(255,255,255)"/>
   <polyline points="13.2078,167.5987  5.5987,162.7922  0.79222,170.4013  8.4013,175.2078  13.2078,167.5987 " style="fill:rgb(254,254,254)"/>
   <polyline points="106.6442,174.9119  114.9119,171.3558  111.3558,163.0881  103.0881,166.6442  106.6442,174.9119 " style="fill:rgb(255,255,255)"/>
   <polyline points="297.0537,175.9059  297.9059,166.9463  288.9463,166.0941  288.0941,175.0537  297.0537,175.9059 " style="fill:rgb(255,255,255)"/>
   <polyline points="50.6221,170.018  42.018,167.3779  39.3779,175.982  47.982,178.6221  50.6221,170.018 " style="fill:rgb(254,254,254)"/>
   <polyline points="162.5026,177.5026  171.5026,177.4974  171.4974,168.4974  162.4974,168.5026  162.5026,177.5026 " style="fill:rgb(255,255,255)"/>
   <polyline points="59.4171,179.5814  59.5814,170.5829  50.5829,170.4186  50.4186,179.4171  59.4171,179.5814 " style="fill:rgb(255,255,255)"/>
   <polyline points="70.4999,179.5001  70.5001,170.5001  61.5001,170.4999  61.4999,179.4999  70.4999,179.5001 " style="fill:rgb(255,255,255)"/>
   <polyline points="81.5,179.5  81.5,170.5  72.5,170.5  72.5,179.5  81.5,179.5 " style="fill:rgb(255,255,255)"/>
   <polyline points="92.4741,179.5257  92.5257,170.5259  83.5259,170.4743  83.4743,179.4741  92.4741,179.5257 " style="fill:rgb(255,255,255)"/>
   <polyline points="127.0726,173.0963  119.0963,168.9274  114.9274,176.9037  122.9037,181.0726  127.0726,173.0963 " style="fill:rgb(255,255,255)"/>
   <polyline points="136.8405,181.362  143.362,175.1595  137.1595,168.638  130.638,174.8405  136.8405,181.362 " style="fill:rgb(255,255,255)"/>
   <polyline points="153.1133,178.7887  151.7887,169.8867  142.8867,171.2113  144.2113,180.1133  153.1133,178.7887 " style="fill:rgb(255,255,255)"/>
   <polyline points="181.7593,170.7751  172.7751,170.2407  172.2407,179.2249  181.2249,179.7593  181.7593,170.7751 " style="fill:rgb(255,255,255)"/>
   <polyline points="186.4483,180.2807  195.2807,178.5517  193.5517,169.7193  184.7193,171.4483  186.4483,180.2807 " style="fill:rgb(255,255,255)"/>
   <polyline points="204.6771,179.3156  204.3156,170.3229  195.3229,170.6844  195.6844,179.6771  204.6771,179.3156 " style="fill:rgb(255,255,255)"/>
   <polyline points="215.5042,179.4958  215.4958,170.4958  206.4958,170.5042  206.5042,179.5042  215.5042,179.4958 " style="fill:rgb(255,255,255)"/>
   <polyline points="226.4995,179.5005  226.5005,170.5005  217.5005,170.4995  217.4995,179.4995  226.4995,179.5005 " style="fill:rgb(255,255,255)"/>
   <polyline points="237.5005,179.4995  237.4995,170.4995  228.4995,170.5005  228.5005,179.5005  237.5005,179.4995 " style="fill:rgb(255,255,255)"/>
   <polyline points="248.4996,179.5004  248.5004,170.5004  239.5004,170.4996  239.4996,179.4996  248.4996,179.5004 " style="fill:rgb(255,255,255)"/>
   <polyline points="259.5003,179.4997  259.4997,170.4997  250.4997,170.5003  250.5003,179.5003  259.5003,179.4997 " style="fill:rgb(255,255,255)"/>
   <polyline points="270.4998,179.5002  270.5002,170.5002  261.5002,170.4998  261.4998,179.4998  270.4998,179.5002 " style="fill:rgb(255,255,255)"/>
   <polyline points="281.4982,179.5018  281.5018,170.5018  272.5018,170.4982  272.4982,179.4982  281.4982,179.5018 " style="fill:rgb(255,255,255)"/>
   <polyline points="19.6614,172.6674  10.6674,172.3386  10.3386,181.3326  19.3326,181.6614  19.6614,172.6674 " style="fill:rgb(254,254,254)"/>
   <polyline points="33.6876,182.1867  35.1867,173.3124  26.3124,171.8133  24.8133,180.6876  33.6876,182.1867 " style="fill:rgb(255,255,255)"/>
   <polyline points="105.4698,180.2529  103.2529,171.5302  94.5302,173.7471  96.7471,182.4698  105.4698,180.2529 " style="fill:rgb(255,255,255)"/>
   <polyline points="165.0829,182.8704  160.8704,174.9171  152.9171,179.1296  157.1296,187.0829  165.0829,182.8704 " style="fill:rgb(255,255,255)"/>
   <polyline points="291.3816,185.6154  291.6154,176.6184  282.6184,176.3846  282.3846,185.3816  291.3816,185.6154 " style="fill:rgb(255,255,255)"/>
   <polyline points="9.6764,178.6836  0.68361,178.3236  0.3236,187.3164  9.3164,187.6764  9.6764,178.6836 " style="fill:rgb(254,254,254)"/>
   <polyline points="44.5743,178.5756  35.5756,178.4257  35.4257,187.4244  44.4244,187.5743  44.5743,178.5756 " style="fill:rgb(255,255,255)"/>
   <polyline points="117.3187,183.7579  111.7579,176.6813  104.6813,182.2421  110.2421,189.3187  117.3187,183.7579 " style="fill:rgb(255,255,255)"/>
   <polyline points="135.9246,185.3235  132.3235,177.0754  124.0754,180.6765  127.6765,188.9246  135.9246,185.3235 " style="fill:rgb(255,255,255)"/>
   <polyline points="28.9668,182.7871  20.7871,179.0332  17.0332,187.2129  25.2129,190.9668  28.9668,182.7871 " style="fill:rgb(255,255,255)"/>
   <polyline points="52.8088,191.1015  57.1015,183.1912  49.1912,178.8985  44.8985,186.8088  52.8088,191.1015 " style="fill:rgb(254,254,254)"/>
   <polyline points="67.4978,189.5022  67.5022,180.5022  58.5022,180.4978  58.4978,189.4978  67.4978,189.5022 " style="fill:rgb(254,254,254)"/>
   <polyline points="78.5,189.5  78.5,180.5  69.5,180.5  69.5,189.5  78.5,189.5 " style="fill:rgb(254,254,254)"/>
   <polyline points="89.5141,189.4859  89.4859,180.4859  80.4859,180.5141  80.5141,189.5141  89.5141,189.4859 " style="fill:rgb(254,254,254)"/>
   <polyline points="144.431,190.8813  147.8813,182.569  139.569,179.1187  136.1187,187.431  144.431,190.8813 " style="fill:rgb(255,255,255)"/>
   <polyline points="173.728,190.1577  175.1577,181.272  166.272,179.8423  164.8423,188.728  173.728,190.1577 " style="fill:rgb(255,255,255)"/>
   <polyline points="187.2428,188.6074  185.6074,179.7572  176.7572,181.3926  178.3926,190.2428  187.2428,188.6074 " style="fill:rgb(255,255,255)"/>
   <polyline points="197.8192,187.5762  194.5762,179.1808  186.1808,182.4238  189.4238,190.8192  197.8192,187.5762 " style="fill:rgb(255,255,255)"/>
   <polyline points="208.5633,189.4358  208.4358,180.4367  199.4367,180.5642  199.5642,189.5633  208.5633,189.4358 " style="fill:rgb(255,255,255)"/>
   <polyline points="219.5018,189.4982  219.4982,180.4982  210.4982,180.5018  210.5018,189.5018  219.5018,189.4982 " style="fill:rgb(255,255,255)"/>
   <polyline points="230.4975,189.5025  230.5025,180.5025  221.5025,180.4975  221.4975,189.4975  230.4975,189.5025 " style="fill:rgb(255,255,255)"/>
   <polyline points="241.503,189.497  241.497,180.497  232.497,180.503  232.503,189.503  241.503,189.497 " style="fill:rgb(255,255,255)"/>
   <polyline points="252.4963,189.5037  252.5037,180.5037  243.5037,180.4963  243.4963,189.4963  252.4963,189.5037 " style="fill:rgb(255,255,255)"/>
   <polyline points="263.5039,189.4961  263.4961,180.4961  254.4961,180.5039  254.5039,189.5039  263.5039,189.4961 " style="fill:rgb(255,255,255)"/>
   <polyline points="274.4961,189.5039  274.5039,180.5039  265.5039,180.4961  265.4961,189.4961  274.4961,189.5039 " style="fill:rgb(255,255,255)"/>
   <polyline points="102.5745,185.93  93.93,183.4255  91.4255,192.07  100.07,194.5745  102.5745,185.93 " style="fill:rgb(255,255,255)"/>
   <polyline points="19.2735,189.9308  11.9308,184.7265  6.7265,192.0692  14.0692,197.2735  19.2735,189.9308 " style="fill:rgb(254,254,254)"/>
   <polyline points="123.6147,196.2378  125.2378,187.3853  116.3853,185.7622  114.7622,194.6147  123.6147,196.2378 " style="fill:rgb(255,255,255)"/>
   <polyline points="157.131,194.7647  155.7647,185.869  146.869,187.2353  148.2353,196.131  157.131,194.7647 " style="fill:rgb(255,255,255)"/>
   <polyline points="284.5094,195.4906  284.4906,186.4906  275.4906,186.5094  275.5094,195.5094  284.5094,195.4906 " style="fill:rgb(255,255,255)"/>
   <polyline points="295.2635,195.7247  295.7247,186.7365  286.7365,186.2753  286.2753,195.2635  295.2635,195.7247 " style="fill:rgb(255,255,255)"/>
   <polyline points="29.7302,199.236  37.236,194.2698  32.2698,186.764  24.764,191.7302  29.7302,199.236 " style="fill:rgb(255,255,255)"/>
   <polyline points="111.9573,190.7616  103.7616,187.0427  100.0427,195.2384  108.2384,198.9573  111.9573,190.7616 " style="fill:rgb(255,255,255)"/>
   <polyline points="137.4614,196.2669  135.2669,187.5386  126.5386,189.7331  128.7331,198.4614  137.4614,196.2669 " style="fill:rgb(255,255,255)"/>
   <polyline points="165.7751,198.1233  167.1233,189.2249  158.2249,187.8767  156.8767,196.7751  165.7751,198.1233 " style="fill:rgb(255,255,255)"/>
   <polyline points="49.362,194.8439  42.8439,188.638  36.638,195.1561  43.1561,201.362  49.362,194.8439 " style="fill:rgb(255,255,255)"/>
   <polyline points="62.4467,199.5527  62.5527,190.5533  53.5533,190.4473  53.4473,199.4467  62.4467,199.5527 " style="fill:rgb(255,255,255)"/>
   <polyline points="73.4997,199.5003  73.5003,190.5003  64.5003,190.4997  64.4997,199.4997  73.4997,199.5003 " style="fill:rgb(255,255,255)"/>
   <polyline points="84.5028,199.4972  84.4972,190.4972  75.4972,190.5028  75.5028,199.5028  84.5028,199.4972 " style="fill:rgb(255,255,255)"/>
   <polyline points="181.7773,190.7955  172.7955,190.2227  172.2227,199.2045  181.2045,199.7773  181.7773,190.7955 " style="fill:rgb(255,255,255)"/>
   <polyline points="202.2238,196.3284  197.3284,188.7762  189.7762,193.6716  194.6716,201.2238  202.2238,196.3284 " style="fill:rgb(254,254,254)"/>
   <polyline points="211.6909,199.3007  211.3007,190.3091  202.3091,190.6993  202.6993,199.6909  211.6909,199.3007 " style="fill:rgb(254,254,254)"/>
   <polyline points="222.437,199.5621  222.5621,190.563  213.563,190.4379  213.4379,199.437  222.437,199.5621 " style="fill:rgb(254,254,254)"/>
   <polyline points="233.5304,199.4693  233.4693,190.4696  224.4696,190.5307  224.5307,199.5304  233.5304,199.4693 " style="fill:rgb(254,254,254)"/>
   <polyline points="244.521,199.4789  244.4789,190.479  235.479,190.5211  235.5211,199.521  244.521,199.4789 " style="fill:rgb(254,254,254)"/>
   <polyline points="255.4102,199.588  255.588,190.5898  246.5898,190.412  246.412,199.4102  255.4102,199.588 " style="fill:rgb(254,254,254)"/>
   <polyline points="266.6015,199.3962  266.3962,190.3985  257.3985,190.6038  257.6038,199.6015  266.6015,199.3962 " style="fill:rgb(254,254,254)"/>
   <polyline points="26.1839,195.3085  17.3085,193.8161  15.8161,202.6915  24.6915,204.1839  26.1839,195.3085 " style="fill:rgb(255,255,255)"/>
   <polyline points="95.8634,203.1046  95.1046,194.1366  86.1366,194.8954  86.8954,203.8634  95.8634,203.1046 " style="fill:rgb(255,255,255)"/>
   <polyline points="145.6259,204.23  147.23,195.3741  138.3741,193.77  136.77,202.6259  145.6259,204.23 " style="fill:rgb(255,255,255)"/>
   <polyline points="4.4639,206.8368  12.8368,203.5361  9.5361,195.1632  1.1632,198.4639  4.4639,206.8368 " style="fill:rgb(254,254,254)"/>
   <polyline points="119.1715,199.4468  111.4468,194.8285  106.8285,202.5532  114.5532,207.1715  119.1715,199.4468 " style="fill:rgb(255,255,255)"/>
   <polyline points="158.4047,204.3599  156.3599,195.5953  147.5953,197.6401  149.6401,206.4047  158.4047,204.3599 " style="fill:rgb(255,255,255)"/>
   <polyline points="191.6575,196.6632  182.6632,196.3425  182.3425,205.3368  191.3368,205.6575  191.6575,196.6632 " style="fill:rgb(255,255,255)"/>
   <polyline points="277.7899,198.3586  269.3586,195.2101  266.2101,203.6414  274.6414,206.7899  277.7899,198.3586 " style="fill:rgb(254,254,254)"/>
   <polyline points="291.8863,206.0395  293.0395,197.1137  284.1137,195.9605  282.9605,204.8863  291.8863,206.0395 " style="fill:rgb(254,254,254)"/>
   <polyline points="40.5687,206.0805  38.0805,197.4313  29.4313,199.9195  31.9195,208.5687  40.5687,206.0805 " style="fill:rgb(255,255,255)"/>
   <polyline points="130.384,206.3931  128.3931,197.616  119.616,199.6069  121.6069,208.384  130.384,206.3931 " style="fill:rgb(255,255,255)"/>
   <polyline points="54.6743,202.1185  46.1185,199.3257  43.3257,207.8815  51.8815,210.6743  54.6743,202.1185 " style="fill:rgb(255,255,255)"/>
   <polyline points="65.5279,209.4719  65.4719,200.4721  56.4721,200.5281  56.5281,209.5279  65.5279,209.4719 " style="fill:rgb(255,255,255)"/>
   <polyline points="76.5,209.5  76.5,200.5  67.5,200.5  67.5,209.5  76.5,209.5 " style="fill:rgb(255,255,255)"/>
   <polyline points="109.1693,206.5619  104.5619,198.8307  96.8307,203.4381  101.4381,211.1693  109.1693,206.5619 " style="fill:rgb(255,255,255)"/>
   <polyline points="166.7892,210.1129  168.1129,201.2108  159.2108,199.8871  157.8871,208.7892  166.7892,210.1129 " style="fill:rgb(255,255,255)"/>
   <polyline points="178.7456,200.7598  169.7598,200.2544  169.2544,209.2402  178.2402,209.7456  178.7456,200.7598 " style="fill:rgb(255,255,255)"/>
   <polyline points="207.1435,203.3395  199.3395,198.8565  194.8565,206.6605  202.6605,211.1435  207.1435,203.3395 " style="fill:rgb(255,255,255)"/>
   <polyline points="218.4714,201.7498  209.7498,199.5286  207.5286,208.2502  216.2502,210.4714  218.4714,201.7498 " style="fill:rgb(254,254,254)"/>
   <polyline points="218.5325,209.5323  227.5323,209.4675  227.4675,200.4677  218.4677,200.5325  218.5325,209.5323 " style="fill:rgb(254,254,254)"/>
   <polyline points="238.5323,200.5325  229.5325,200.4677  229.4677,209.4675  238.4675,209.5323  238.5323,200.5325 " style="fill:rgb(254,254,254)"/>
   <polyline points="241.292,210.1721  250.1721,208.708  248.708,199.8279  239.8279,201.292  241.292,210.1721 " style="fill:rgb(254,254,254)"/>
   <polyline points="253.0281,209.9723  261.9723,208.9719  260.9719,200.0277  252.0277,201.0281  253.0281,209.9723 " style="fill:rgb(254,254,254)"/>
   <polyline points="10.5385,213.5382  19.5382,213.4615  19.4615,204.4618  10.4618,204.5385  10.5385,213.5382 " style="fill:rgb(255,255,255)"/>
   <polyline points="86.52,213.4799  86.4799,204.48  77.48,204.5201  77.5201,213.52  86.52,213.4799 " style="fill:rgb(255,255,255)"/>
   <polyline points="97.9368,213.016  97.016,204.0632  88.0632,204.984  88.984,213.9368  97.9368,213.016 " style="fill:rgb(255,255,255)"/>
   <polyline points="139.9415,213.9965  140.9965,205.0585  132.0585,204.0035  131.0035,212.9415  139.9415,213.9965 " style="fill:rgb(255,255,255)"/>
   <polyline points="24.824,216.9804  32.9804,213.176  29.176,205.0196  21.0196,208.824  24.824,216.9804 " style="fill:rgb(255,255,255)"/>
   <polyline points="156.2704,214.567  154.567,205.7296  145.7296,207.433  147.433,216.2704  156.2704,214.567 " style="fill:rgb(255,255,255)"/>
   <polyline points="187.6625,206.6686  178.6686,206.3375  178.3375,215.3314  187.3314,215.6625  187.6625,206.6686 " style="fill:rgb(255,255,255)"/>
   <polyline points="267.8382,217.3619  274.3619,211.1618  268.1618,204.6381  261.6381,210.8382  267.8382,217.3619 " style="fill:rgb(254,254,254)"/>
   <polyline points="284.4669,214.2577  282.2577,205.5331  273.5331,207.7423  275.7423,216.4669  284.4669,214.2577 " style="fill:rgb(254,254,254)"/>
   <polyline points="287.8056,216.5041  296.5041,214.1944  294.1944,205.4959  285.4959,207.8056  287.8056,216.5041 " style="fill:rgb(254,254,254)"/>
   <polyline points="9.5888,208.5906  0.5906,208.4112  0.41119,217.4094  9.4094,217.5888  9.5888,208.5906 " style="fill:rgb(254,254,254)"/>
   <polyline points="43.2183,216.6427  41.6427,207.7817  32.7817,209.3573  34.3573,218.2183  43.2183,216.6427 " style="fill:rgb(255,255,255)"/>
   <polyline points="115.8158,218.0931  117.0931,209.1842  108.1842,207.9069  106.9069,216.8158  115.8158,218.0931 " style="fill:rgb(255,255,255)"/>
   <polyline points="128.3841,216.3928  126.3928,207.6159  117.6159,209.6072  119.6072,218.3841  128.3841,216.3928 " style="fill:rgb(255,255,255)"/>
   <polyline points="197.5569,208.5576  188.5576,208.4431  188.4431,217.4424  197.4424,217.5569  197.5569,208.5576 " style="fill:rgb(254,254,254)"/>
   <polyline points="51.7536,220.7374  54.7374,212.2464  46.2464,209.2626  43.2626,217.7536  51.7536,220.7374 " style="fill:rgb(255,255,255)"/>
   <polyline points="74.4202,218.3348  72.3348,209.5798  63.5798,211.6652  65.6652,220.4202  74.4202,218.3348 " style="fill:rgb(255,255,255)"/>
   <polyline points="164.5138,220.306  166.306,211.4862  157.4862,209.694  155.694,218.5138  164.5138,220.306 " style="fill:rgb(255,255,255)"/>
   <polyline points="212.7045,217.8212  209.8212,209.2955  201.2955,212.1788  204.1788,220.7045  212.7045,217.8212 " style="fill:rgb(254,254,254)"/>
   <polyline points="220.9316,221.0638  225.0638,213.0684  217.0684,208.9362  212.9362,216.9316  220.9316,221.0638 " style="fill:rgb(254,254,254)"/>
   <polyline points="236.2584,218.5845  234.5845,209.7416  225.7416,211.4155  227.4155,220.2584  236.2584,218.5845 " style="fill:rgb(254,254,254)"/>
   <polyline points="252.169,220.5188  254.5188,211.831  245.831,209.4812  243.4812,218.169  252.169,220.5188 " style="fill:rgb(254,254,254)"/>
   <polyline points="106.7552,219.7162  103.7162,211.2448  95.2448,214.2838  98.2838,222.7552  106.7552,219.7162 " style="fill:rgb(255,255,255)"/>
   <polyline points="178.9657,219.216  175.216,211.0343  167.0343,214.784  170.784,222.9657  178.9657,219.216 " style="fill:rgb(255,255,255)"/>
   <polyline points="11.0194,223.9653  19.9653,222.9806  18.9806,214.0347  10.0347,215.0194  11.0194,223.9653 " style="fill:rgb(255,255,255)"/>
   <polyline points="84.2315,223.7534  84.7534,214.7685  75.7685,214.2466  75.2466,223.2315  84.2315,223.7534 " style="fill:rgb(255,255,255)"/>
   <polyline points="137.3263,223.6672  137.6672,214.6737  128.6737,214.3328  128.3328,223.3263  137.3263,223.6672 " style="fill:rgb(255,255,255)"/>
   <polyline points="265.8068,221.604  262.604,213.1932  254.1932,216.396  257.396,224.8068  265.8068,221.604 " style="fill:rgb(254,254,254)"/>
</svg>